<?xml version="1.0" encoding="UTF-8" standalone="no"?>
<svg
   xmlns:dc="http://purl.org/dc/elements/1.1/"
   xmlns:cc="http://creativecommons.org/ns#"
   xmlns:rdf="http://www.w3.org/1999/02/22-rdf-syntax-ns#"
   xmlns:svg="http://www.w3.org/2000/svg"
   xmlns="http://www.w3.org/2000/svg"
   xmlns:sodipodi="http://sodipodi.sourceforge.net/DTD/sodipodi-0.dtd"
   xmlns:inkscape="http://www.inkscape.org/namespaces/inkscape"
   inkscape:version="1.0 (4035a4fb49, 2020-05-01)"
   sodipodi:docname="muscleBack.svg"
   viewBox="0 0 540 1040"
   height="1040"
   width="540"
   id="svg833"
   version="1.1">
  <metadata
     id="metadata839">
    <rdf:RDF>
      <cc:Work
         rdf:about="">
        <dc:format>image/svg+xml</dc:format>
        <dc:type
           rdf:resource="http://purl.org/dc/dcmitype/StillImage" />
        <dc:title></dc:title>
      </cc:Work>
    </rdf:RDF>
  </metadata>
  <defs
     id="defs837" />
  <sodipodi:namedview
     inkscape:current-layer="g841"
     inkscape:cy="512.29884"
     inkscape:cx="355.24891"
     inkscape:zoom="0.50871811"
     showborder="true"
     showgrid="false"
     id="namedview835"
     inkscape:window-height="480"
     inkscape:window-width="640"
     inkscape:pageshadow="2"
     inkscape:pageopacity="0"
     guidetolerance="10"
     gridtolerance="10"
     objecttolerance="10"
     borderopacity="1"
     bordercolor="#666666"
     pagecolor="#ffffff" />
  <g
     style="display:inline"
     id="g841"
     inkscape:label="Image"
     inkscape:groupmode="layer">
    <g
       style="display:none"
       inkscape:label="Layer 1"
       id="layer1"
       inkscape:groupmode="layer">
      <g
         transform="translate(-711.31719,-11.390873)"
         id="g1513"
         style="display:inline">
        <g
           id="g1739">
          <path
             id="path1285"
             d="m 1600.1904,61.345262 c -0.7431,-1.40946 1.3752,-26.622634 2.3724,-28.236013 1.4471,-2.341581 9.0294,-1.513532 16.0309,1.750731 9.5772,4.465049 10.2647,5.674605 9.1895,16.168439 -0.8455,8.252674 -1.1184,8.844782 -3.7176,8.065784 -8.0682,-2.418053 -12.797,-2.308609 -18.0266,0.417211 -2.9404,1.532652 -5.5723,2.357883 -5.8486,1.833848 z"
             style="fill:#000000;stroke-width:1.33333" />
          <path
             id="path1283"
             d="m 1591.2604,59.476266 c -4.6036,-2.544155 -10.6863,-2.659173 -18.3333,-0.346667 -2.7183,0.822024 -3,0.462523 -3,-3.828154 0,-2.604457 -0.5693,-6.232614 -1.265,-8.062573 -0.9849,-2.590466 -0.7005,-4.044842 1.2844,-6.56822 3.327,-4.229611 15.021,-9.211271 20.3967,-8.688988 4.0359,0.392116 4.2764,0.744431 5.2855,7.744139 0.5815,4.033333 0.8865,10.707467 0.6778,14.831407 l -0.3794,7.498073 z"
             style="fill:#000000;stroke-width:1.33333" />
          <path
             id="path1281"
             d="m 1623.64,77.171844 c -4.4198,-3.688844 -11.7046,-4.644744 -16.6387,-2.183301 -5.1948,2.591529 -5.0742,2.606162 -5.0742,-0.615653 0,-3.908905 7.9759,-11.855591 12.8304,-12.783433 6.0347,-1.153422 12.3923,4.750691 13.4275,12.46968 0.8331,6.212928 -0.081,6.838732 -4.545,3.112707 z"
             style="fill:#000000;stroke-width:1.33333" />
          <path
             id="path1279"
             d="m 1569.0025,74.059137 c 1.0345,-7.714007 7.4039,-13.637462 13.3793,-12.442394 4.9741,0.994828 11.0193,6.498642 12.169,11.079165 1.1397,4.541117 0.3528,4.9367 -4.6618,2.343544 -5.0801,-2.627015 -11.432,-1.829751 -16.3703,2.054727 -4.7681,3.750568 -5.3717,3.344892 -4.5162,-3.035042 z"
             style="fill:#000000;stroke-width:1.33333" />
          <path
             id="path1273"
             d="m 1633.4875,72.581524 c -3.2699,-16.641901 -2.5977,-23.63985 2.0977,-21.83806 3.6141,1.386848 5.3828,11.565339 3.6604,21.064133 -2.3781,13.114547 -3.3088,13.239638 -5.7581,0.773927 z"
             style="fill:#000000;stroke-width:1.33333" />
          <path
             id="path1271"
             d="m 1559.4728,78.921595 c -3.8855,-13.775727 -2.5937,-27.239107 2.7116,-28.260705 3.7398,-0.720148 4.2632,7.214575 1.3984,21.200415 l -2.5669,12.531166 z"
             style="fill:#000000;stroke-width:1.33333" />
          <path
             id="path1269"
             d="m 1611.2878,90.268606 c -4.8227,-1.969191 -8.0274,-5.253739 -8.0274,-8.22733 0,-2.193533 0.5786,-2.447623 3.6667,-1.610091 2.9495,0.79998 10.7219,1.518396 20.7511,1.918068 0.5965,0.02377 0.8965,1.993218 0.6667,4.376551 -0.4061,4.21178 -0.6048,4.341179 -7.0845,4.613002 -3.6667,0.153816 -8.1543,-0.327774 -9.9726,-1.0702 z"
             style="fill:#000000;stroke-width:1.33333" />
          <path
             id="path1267"
             d="m 1569.5937,90.964686 c -0.55,-0.559163 -1,-2.716659 -1,-4.794438 0,-2.077777 0.45,-3.795105 1,-3.816284 8.3566,-0.321784 17.7819,-1.229675 20.7822,-2.001835 3.4015,-0.875414 3.7369,-0.667448 3.3333,2.06638 -0.7172,4.85777 -6.7783,8.398915 -15.4309,9.015357 -4.2265,0.301113 -8.1346,0.08999 -8.6846,-0.46918 z"
             style="fill:#000000;stroke-width:1.33333" />
          <path
             id="path1265"
             d="m 1612.0399,106.5172 c -1.4673,-1.62143 -2.1457,-4.15637 -1.8733,-7.000009 0.3963,-4.136091 0.7506,-4.442709 4.9063,-4.2456 6.6436,0.31512 7.4953,1.970406 4.2684,8.295579 -3.1604,6.19492 -4.0423,6.55125 -7.3014,2.95003 z"
             style="fill:#000000;stroke-width:1.33333" />
          <path
             id="path1263"
             d="m 1577.9013,103.67521 c -3.2826,-6.4344 -2.4539,-8.087382 4.2133,-8.403619 4.3498,-0.206319 4.4791,-0.06316 4.4791,4.958249 0,3.83995 -0.7509,5.66931 -2.9177,7.10805 -2.7715,1.84015 -3.0611,1.65642 -5.7747,-3.66268 z"
             style="fill:#000000;stroke-width:1.33333" />
          <path
             id="path1261"
             d="m 1621.3805,114.98871 c -2.414,-2.41393 -1.9843,-5.3243 1.7612,-11.92957 2.4704,-4.356611 6.3867,-5.228129 8.4925,-1.88986 1.0071,1.5967 0.1905,3.80363 -3.3561,9.07007 -4.3647,6.48126 -4.8391,6.8079 -6.8976,4.74936 z"
             style="fill:#000000;stroke-width:1.33333" />
          <path
             id="path1259"
             d="m 1568.3335,109.56803 c -4.4726,-6.47355 -4.7344,-7.32382 -2.8382,-9.21997 1.1488,-1.148834 3.066,-1.908817 4.2603,-1.688854 2.7506,0.506583 8.5191,11.942544 7.4411,14.751764 -1.6121,4.20112 -4.0299,3.15282 -8.8632,-3.84294 z"
             style="fill:#000000;stroke-width:1.33333" />
          <path
             id="path1257"
             d="m 1579.2604,116.40614 c 0,-3.42746 8.2799,-6.02117 18.9572,-5.93841 11.3892,0.0883 18.8188,2.25901 19.4768,5.69064 0.422,2.20099 -0.1476,2.32792 -5.9838,1.33333 -8.1852,-1.39489 -18.0137,-1.40149 -26.1169,-0.0175 -5.384,0.91957 -6.3333,0.75949 -6.3333,-1.06803 z"
             style="fill:#000000;stroke-width:1.33333" />
          <path
             id="path1251"
             d="m 1589.5141,130.33513 c -6.9404,-1.73168 -10.2537,-3.66708 -10.2537,-5.98956 0,-1.62543 3.2434,-1.95309 19.3333,-1.95309 16.579,0 19.3334,0.29463 19.3334,2.06804 0,4.59915 -18.333,8.38963 -28.413,5.87461 z"
             style="fill:#000000;stroke-width:1.33333" />
          <path
             id="path1249"
             d="m 1623.5068,137.52196 c 4.622,-9.40774 7.7058,-17.08965 9.1513,-22.79615 1.2933,-5.106 2.4051,-7 4.109,-7 1.2848,0 2.7037,0.59514 3.1533,1.32253 1.4971,2.42239 -3.5454,17.00193 -7.5683,21.88241 -3.6234,4.39582 -10.1596,9.26636 -8.8453,6.59121 z"
             style="fill:#000000;stroke-width:1.33333" />
          <path
             id="path1247"
             d="m 1566.2733,132.61363 c -5.5489,-6.01983 -8.035,-11.63957 -8.6502,-19.55368 -0.2995,-3.85229 0.1209,-4.73511 2.411,-5.06308 2.3676,-0.33907 3.0162,0.68608 4.4296,7.0022 0.9108,4.06969 3.405,10.84808 5.5428,15.06309 4.4318,8.73827 4.2968,8.33032 2.7571,8.33032 -0.64,0 -3.5606,-2.60048 -6.4903,-5.77885 z"
             style="fill:#000000;stroke-width:1.33333" />
          <path
             id="path1241"
             d="m 1601.9271,148.4951 c 0,-0.49356 2.0339,-4.077 4.5199,-7.96319 3.3885,-5.2971 5.9334,-7.63134 10.1664,-9.32508 3.1056,-1.2426 5.9953,-1.91048 6.4216,-1.48418 1.221,1.22103 -3.6444,9.35388 -8.2891,13.85572 -3.8079,3.6907 -12.8188,7.14691 -12.8188,4.91673 z"
             style="fill:#000000;stroke-width:1.33333" />
          <path
             id="path1239"
             d="m 1587.8851,147.79204 c -5.5437,-2.2474 -15.7964,-16.00561 -13.5795,-18.2225 0.3421,-0.34209 3.1281,0.38077 6.1911,1.60635 4.1705,1.66869 6.7238,4.0333 10.1664,9.41502 2.5285,3.95268 4.5973,7.47503 4.5973,7.82746 0,0.97559 -4.3311,0.60778 -7.3753,-0.62633 z"
             style="fill:#000000;stroke-width:1.33333" />
          <path
             id="path1237"
             d="m 1595.4254,175.09549 c -1.7251,-3.25189 -5.2147,-8.3404 -7.7547,-11.30777 -3.3677,-3.93444 -4.0371,-5.39524 -2.4723,-5.39524 1.1801,0 2.4374,-0.76029 2.794,-1.68955 0.8245,-2.1486 18.788,-1.99042 20.9631,0.1846 0.8277,0.82772 2.3206,1.50495 3.3176,1.50495 1.0435,0 -0.4216,2.68757 -3.4526,6.33333 -2.8959,3.48334 -6.3887,8.57184 -7.7618,11.30778 l -2.4967,4.97445 z"
             style="fill:#000000;stroke-width:1.33333" />
          <path
             id="path1235"
             d="m 1640.3082,189.32563 c -6.7674,-6.59557 -9.1775,-9.83536 -8.8421,-11.88637 0.4249,-2.59913 1.9722,-1.99863 19.7943,7.68194 10.6333,5.7758 20.2333,11.08939 21.3333,11.80796 1.3853,0.90492 -1.8393,1.3306 -10.4911,1.38491 l -12.4912,0.0784 -9.3032,-9.06685 z"
             style="fill:#000000;stroke-width:1.33333" />
          <path
             id="path1233"
             d="m 1524.5937,196.92916 c 1.1,-0.71857 10.7,-6.03216 21.3334,-11.80796 17.822,-9.68057 19.3693,-10.28107 19.7943,-7.68194 0.3353,2.05101 -2.0747,5.2908 -8.8422,11.88637 l -9.3031,9.06685 -12.4912,-0.0784 c -8.6518,-0.0543 -11.8764,-0.47998 -10.4912,-1.3849 z"
             style="fill:#000000;stroke-width:1.33333" />
          <path
             id="path1231"
             d="m 1620.0925,199.99343 c -0.4599,-0.74411 0.8481,-4.91432 2.9067,-9.26712 l 3.7428,-7.91419 2.8378,8.10048 c 1.5607,4.45527 2.7049,8.23336 2.5425,8.39578 -1.2052,1.20512 -11.3513,1.78292 -12.0298,0.68505 z"
             style="fill:#000000;stroke-width:1.33333" />
          <path
             id="path1229"
             d="m 1567.5169,200.1081 c -1.7026,-0.32531 -2.7803,-1.28638 -2.4129,-2.15175 0.3652,-0.86013 1.6535,-4.75239 2.863,-8.64947 l 2.1991,-7.0856 3.8825,8.20963 c 2.1354,4.51529 3.5462,8.75381 3.1352,9.41893 -0.7598,1.22926 -4.1158,1.31892 -9.6669,0.25826 z"
             style="fill:#000000;stroke-width:1.33333" />
          <path
             id="path1223"
             d="m 1601.9271,208.60576 c 0,-9.39286 4.1725,-25.35825 9.1659,-35.07132 2.2079,-4.29475 7.6838,-13.20863 12.1688,-19.80863 l 8.1544,-12 -0.9128,8 c -1.832,16.05654 -5.7212,27.47782 -15.1877,44.60139 -5.0875,9.20258 -9.6454,17.78195 -10.1287,19.06528 -1.7057,4.52996 -3.2599,2.24783 -3.2599,-4.78672 z"
             style="fill:#000000;stroke-width:1.33333" />
          <path
             id="path1221"
             d="m 1583.298,197.35048 c -10.373,-19.04501 -15.0471,-32.19372 -16.6927,-46.958 l -0.9659,-8.66667 9.0025,13.33334 c 10.4229,15.4368 15.8524,26.61968 18.6166,38.34333 2.0763,8.80603 2.6854,22.35204 1.0019,22.28134 -0.55,-0.0231 -5.4831,-8.2731 -10.9624,-18.33334 z"
             style="fill:#000000;stroke-width:1.33333" />
          <path
             id="path1219"
             d="m 1688.7639,260.97451 c -2.4731,-1.50773 -10.8731,-7.91201 -18.6667,-14.23172 -18.06,-14.64461 -29.4438,-21.99372 -41.6895,-26.91372 -5.3638,-2.15501 -9.9388,-4.47768 -10.1667,-5.16148 -0.8147,-2.44397 8.4827,-4.89119 18.3527,-4.83077 18.0242,0.1104 28.3684,7.55624 38.6667,27.83274 3.3,6.49744 8.9102,15.01815 12.4671,18.9349 3.5569,3.91674 6.2569,7.11912 6,7.11637 -0.2569,-0.003 -2.4905,-1.23859 -4.9636,-2.74632 z"
             style="fill:#000000;stroke-width:1.33333" />
          <path
             id="path1217"
             d="m 1508.7413,257.3549 c 3.3318,-3.70575 9.2573,-12.82352 13.1679,-20.26171 10.602,-20.16593 20.6988,-27.29371 38.6845,-27.30905 9.9038,-0.008 19.1587,2.46565 18.3458,4.90437 -0.2318,0.69531 -4.6224,2.89869 -9.7569,4.89639 -11.8622,4.61524 -24.3515,12.70526 -43.454,28.14748 -8.3242,6.72917 -16.9147,13.16306 -19.09,14.29754 -3.5899,1.87224 -3.3957,1.44054 2.1027,-4.67502 z"
             style="fill:#000000;stroke-width:1.33333" />
          <path
             id="path1215"
             d="m 1718.8157,274.29422 c -14.0009,-4.81622 -22.129,-11.3543 -31.7757,-25.55964 -6.8183,-10.04034 -18.9112,-35.17783 -17.7932,-36.98671 1.2325,-1.99431 9.3961,-1.64917 14.8452,0.6276 5.859,2.44805 18.4572,15.15263 25.9131,26.13196 5.2459,7.72481 15.8912,28.89844 17.8742,35.55172 1.0776,3.61564 0.7858,3.62321 -9.0636,0.23507 z"
             style="fill:#000000;stroke-width:1.33333" />
          <path
             id="path1213"
             d="m 1468.5937,275.89083 c 0,-2.42964 8.4301,-21.03564 13.3653,-29.49835 6.5028,-11.1508 19.1478,-26.16146 26.2339,-31.14178 5.6747,-3.98834 17.9234,-6.4548 19.4874,-3.92411 1.0405,1.68344 -6.9272,19.72867 -13.8999,31.4808 -8.2788,13.95351 -17.2239,22.82571 -28.4205,28.18893 -10.2586,4.91396 -16.7662,6.81368 -16.7662,4.89451 z"
             style="fill:#000000;stroke-width:1.33333" />
          <path
             id="path1211"
             d="m 1727.7326,259.72582 c -10.3431,-20.9879 -19.227,-33.80659 -28.952,-41.7755 -3.4199,-2.80241 -5.8756,-5.64936 -5.4571,-6.32656 1.0661,-1.72504 11.9462,-1.53528 18.1257,0.31614 7.6978,2.30634 14.8821,9.19364 18.878,18.09788 4.2954,9.57125 7.8671,29.37664 7.3311,40.65106 l -0.3979,8.37031 z"
             style="fill:#000000;stroke-width:1.33333" />
          <path
             id="path1209"
             d="m 1459.6896,264.05915 c 2.1017,-36.35215 14.1402,-53.66667 37.3135,-53.66667 3.3549,0 6.4205,0.51863 6.8122,1.15251 0.3918,0.63387 -2.2072,3.61429 -5.7756,6.62315 -10.1399,8.55013 -18.4248,20.612 -28.3155,41.22434 -5.0144,10.45 -9.51,19 -9.9902,19 -0.4802,0 -0.5002,-6.45 -0.044,-14.33333 z"
             style="fill:#000000;stroke-width:1.33333" />
          <path
             id="path1199"
             d="m 1675.5937,297.54039 c -2.981,-1.25832 -1.7665,-3.8211 3.0369,-6.40788 5.352,-2.88224 7.802,-1.69136 7.076,3.43948 -0.3455,2.44244 -1.3484,3.21222 -4.4462,3.41284 -2.2,0.14248 -4.75,-0.0575 -5.6667,-0.44444 z"
             style="fill:#000000;stroke-width:1.33333" />
          <path
             id="path1197"
             d="m 1512.1493,297.50359 c -1.3255,-1.3255 -1.0735,-6.83962 0.3529,-7.72117 1.7455,-1.0788 10.7582,3.42916 10.7582,5.38103 0,2.72373 -8.8612,4.59002 -11.1111,2.34014 z"
             style="fill:#000000;stroke-width:1.33333" />
          <path
             id="path1195"
             d="m 1614.5937,299.05523 c -5.8245,-2.06065 -11.3672,-7.50286 -11.2748,-11.07042 0.032,-1.24244 0.8404,-4.44762 1.796,-7.12261 1.1688,-3.2718 1.3168,-5.6154 0.452,-7.16062 -0.707,-1.26335 -1.2689,-5.67472 -1.2486,-9.80306 0.1974,-40.18148 -0.1,-37.01746 3.76,-40.05344 4.9423,-3.88765 7.7666,-3.53865 20.2614,2.50368 12.1766,5.88844 21.4731,11.91376 40.3311,26.13955 7.009,5.28737 15.9582,11.59133 19.8871,14.00881 l 7.1435,4.39542 -4.7539,4.0833 c -10.4075,8.93939 -32.4831,19.91845 -48.3006,24.02178 -9.7784,2.53669 -20.9809,2.55969 -28.0532,0.0576 z"
             style="fill:#000000;stroke-width:1.33333" />
          <path
             id="path1193"
             d="m 1558.5937,300.15299 c -13.7564,-3.07882 -33.0875,-11.67028 -46.0537,-20.46793 -11.8538,-8.04291 -11.8641,-8.10758 -2.2856,-14.33718 4.5866,-2.983 15.5393,-10.86368 24.3393,-17.51262 16.2007,-12.24066 42.188,-26.77611 47.8718,-26.77611 1.7061,0 4.6863,1.24625 6.6227,2.76945 3.4323,2.69984 3.5237,3.16064 3.6362,18.33334 0.2055,27.72273 0.1481,29.21837 -1.2208,31.7761 -0.7427,1.38782 -0.8782,3.40782 -0.3011,4.48887 0.5771,1.08107 1.4564,4.23155 1.954,7.00107 0.7899,4.39615 0.4173,5.52288 -2.9341,8.87429 -2.1113,2.11135 -6.1915,4.49204 -9.0671,5.29042 -5.143,1.42793 -17.3323,1.73065 -22.5616,0.5603 z"
             style="fill:#000000;stroke-width:1.33333" />
          <path
             id="path1187"
             d="m 1650.816,309.50359 c -0.4889,-0.48888 -0.8889,-1.37045 -0.8889,-1.95902 0,-1.41144 14.7628,-10.83367 15.6244,-9.97211 1.034,1.034 -4.5069,8.21791 -8.2097,10.64408 -3.6026,2.36051 -5.1477,2.66523 -6.5258,1.28705 z"
             style="fill:#000000;stroke-width:1.33333" />
          <path
             id="path1185"
             d="m 1536.4369,305.21602 c -7.0532,-7.05319 -6.5572,-9.05441 1.1568,-4.66796 8.074,4.59109 10.2061,6.55971 9.0791,8.38315 -1.6738,2.70832 -5.0309,1.48985 -10.2359,-3.71519 z"
             style="fill:#000000;stroke-width:1.33333" />
          <path
             id="path1183"
             d="m 1673.9271,321.65961 c 0,-4.41223 8.0022,-16.60046 10.8991,-16.60046 0.6055,0 1.1009,3.26598 1.1009,7.25774 0,5.98844 -0.5183,7.62072 -2.9634,9.33333 -3.8657,2.70764 -9.0366,2.71301 -9.0366,0.009 z"
             style="fill:#000000;stroke-width:1.33333" />
          <path
             id="path1181"
             d="m 1513.8526,321.26693 c -2.373,-1.92155 -3.0366,-3.81547 -3.0366,-8.66667 0,-7.52316 0.9392,-8.71331 4.4026,-5.57895 2.7717,2.50832 8.0418,12.4207 8.0418,15.12547 0,2.43224 -6.0119,1.86999 -9.4078,-0.87985 z"
             style="fill:#000000;stroke-width:1.33333" />
          <path
             id="path1179"
             d="m 1656.6406,330.48014 c -0.7591,-1.41845 -1.3802,-4.77773 -1.3802,-7.46505 0,-5.1351 2.0607,-7.69448 13.4718,-16.73228 4.822,-3.81908 5.1949,-3.91598 5.1949,-1.35 0,6.60677 -11.2347,28.12634 -14.6838,28.12634 -0.6723,0 -1.8435,-1.16056 -2.6027,-2.57901 z"
             style="fill:#000000;stroke-width:1.33333" />
          <path
             id="path1177"
             d="m 1533.4029,328.46078 c -4.9121,-6.44011 -10.1137,-17.96373 -10.1295,-22.44073 l -0.013,-3.70578 8.7101,6.97979 c 9.368,7.50709 11.015,10.78053 9.1471,18.18011 -1.6006,6.34032 -3.4507,6.57692 -7.7147,0.98661 z"
             style="fill:#000000;stroke-width:1.33333" />
          <path
             id="path1175"
             d="m 1637.2604,340.23677 c -4.2747,-3.38088 -13.2027,-6.88658 -21.8919,-8.59607 -4.4341,-0.87235 -8.6998,-2.35457 -9.4793,-3.29381 -0.8055,-0.97056 -1.2471,-5.93374 -1.023,-11.49774 l 0.3942,-9.79 7.6579,-0.39961 c 8.8849,-0.46364 16.5014,2.36088 23.9122,8.86768 6.158,5.40679 8.0132,10.09781 7.5067,18.98099 -0.4502,7.89497 -2.3714,9.45014 -7.0768,5.72856 z"
             style="fill:#000000;stroke-width:1.33333" />
          <path
             id="path1173"
             d="m 1553.4826,341.50359 c -2.0024,-2.00244 -0.8456,-15.83232 1.6693,-19.95666 5.1781,-8.49188 17.176,-15.15444 27.29,-15.15444 9.8074,0 10.1518,0.38377 10.1518,11.31272 0,6.1598 -0.6076,10.17712 -1.6666,11.01894 -0.9167,0.72868 -6.2352,2.32494 -11.8188,3.54723 -5.785,1.26636 -12.8311,3.92129 -16.3797,6.17175 -6.4916,4.11685 -7.7673,4.53912 -9.246,3.06046 z"
             style="fill:#000000;stroke-width:1.33333" />
          <path
             id="path1171"
             d="m 1657.3091,354.54585 c -1.2569,-3.96008 1.4221,-13.41604 4.8381,-17.07667 3.4565,-3.70412 11.8835,-8.41003 15.0601,-8.41003 3.0919,0 2.4638,3.90708 -1.8321,11.39647 -3.7261,6.49615 -13.4836,16.60353 -16.0288,16.60353 -0.6818,0 -1.5986,-1.13098 -2.0373,-2.5133 z"
             style="fill:#000000;stroke-width:1.33333" />
          <path
             id="path1169"
             d="m 1529.3738,350.37573 c -3.4384,-3.67588 -7.7131,-9.82588 -9.4993,-13.66667 -3.1942,-6.86816 -3.2033,-6.99036 -0.5502,-7.41552 2.9491,-0.47259 12.6084,4.68525 16.1939,8.64712 2.6552,2.93404 5.1024,12.72781 4.1194,16.4866 -1.0782,4.12313 -3.5184,3.15989 -10.2638,-4.05153 z"
             style="fill:#000000;stroke-width:1.33333" />
          <path
             id="path1167"
             d="m 1724.3143,362.05107 c -12.3349,-7.46766 -24.5699,-33.82221 -28.9343,-62.32525 -0.8421,-5.5 -1.7827,-11.57048 -2.09,-13.48996 -0.4601,-2.8732 0.4474,-4.21264 5.1354,-7.57932 l 5.6944,-4.08936 11.2369,4.52625 11.237,4.52626 3.6766,11.71973 c 13.5309,43.13259 14.867,64.37775 4.3011,68.39488 -4.618,1.75576 -4.5613,1.76507 -10.2571,-1.68323 z"
             style="fill:#000000;stroke-width:1.33333" />
          <path
             id="path1165"
             d="m 1462.2012,363.66235 c -3.9248,-1.57514 -6.9408,-8.82489 -6.9408,-16.68426 0,-8.67888 4.421,-29.14267 10.3239,-47.78727 l 5.0239,-15.86832 5.3261,-1.84244 c 2.9294,-1.01334 7.864,-3.07023 10.9658,-4.57087 l 5.6397,-2.72845 5.3318,3.77253 c 6.4476,4.56198 6.6811,6.94068 2.7043,27.54799 -4.3944,22.77136 -11.5664,39.98985 -21.0213,50.46783 -3.9542,4.38212 -11.8261,9.47556 -13.918,9.00554 -0.2069,-0.0465 -1.7528,-0.637 -3.4354,-1.31228 z"
             style="fill:#000000;stroke-width:1.33333" />
          <path
             id="path1155"
             d="m 1635.9271,374.74785 c -3.1438,-1.16796 -10.5335,-2.05815 -18,-2.16838 l -12.6667,-0.18698 v -15.28222 c 0,-15.19649 0.02,-15.29348 3.5824,-17.29292 2.9826,-1.6741 4.8051,-1.75425 10.8861,-0.47874 15.3021,3.20965 24.8648,13.72472 24.8648,27.34109 0,9.25384 -1.5617,10.70771 -8.6666,8.06815 z"
             style="fill:#000000;stroke-width:1.33333" />
          <path
             id="path1153"
             d="m 1554.1278,375.39319 c -2.8512,-2.85113 -1.8393,-15.57884 1.7215,-21.65489 6.9581,-11.87312 26.2869,-19.27416 33.9839,-13.01248 2.6683,2.1708 2.8412,3.355 2.481,17 l -0.3871,14.66667 -13.3334,0.19137 c -8.7432,0.12547 -14.9855,0.90605 -18.1326,2.26737 -3.6181,1.56507 -5.1768,1.69844 -6.3333,0.54196 z"
             style="fill:#000000;stroke-width:1.33333" />
          <path
             id="path1151"
             d="m 1741.0104,375.72582 c 0.3275,-1.83333 1.5678,-6.90939 2.7561,-11.28013 4.8379,-17.79438 1.7379,-45.47856 -7.6831,-68.61098 -3.6367,-8.9296 -3.6656,-11.0213 -0.1115,-8.0717 6.0449,5.01678 11.5054,27.7922 12.3044,51.32065 0.7024,20.68183 -0.8939,32.0388 -5.1911,36.93384 l -2.6703,3.04165 z"
             style="fill:#000000;stroke-width:1.33333" />
          <path
             id="path1149"
             d="m 1453.4415,375.50817 c -3.3816,-5.18532 -4.7809,-14.29018 -4.8152,-31.33172 -0.034,-17.03239 2.1026,-31.50014 6.6872,-45.27672 2.4407,-7.33451 6.9902,-13.90836 8.5476,-12.35099 0.3214,0.3214 -1.5401,6.2404 -4.1367,13.15333 -9.2905,24.73396 -11.2811,47.67838 -5.853,67.46399 2.9932,10.91005 2.8651,13.39452 -0.4299,8.34211 z"
             style="fill:#000000;stroke-width:1.33333" />
          <path
             id="path1143"
             d="m 1660.2028,382.72582 c -1.2689,-6.42395 1.0951,-14.59799 5.7575,-19.90823 5.2168,-5.94164 16.8085,-23.44237 17.9874,-27.15685 0.4542,-1.43087 1.3853,-2.60159 2.0692,-2.60159 3.2669,0 -0.6514,22.49558 -5.9244,34.01326 -3.7685,8.23148 -13.4309,19.32008 -16.8352,19.32008 -1.4776,0 -2.5952,-1.34167 -3.0545,-3.66667 z"
             style="fill:#000000;stroke-width:1.33333" />
          <path
             id="path1141"
             d="m 1526.0013,380.31859 c -3.0793,-3.34065 -7.0456,-9.19065 -8.8141,-13 -3.9437,-8.49502 -7.6044,-24.35297 -7.0237,-30.4266 l 0.4302,-4.4995 5.6288,9.33333 c 3.0957,5.13333 8.9457,13.49039 13,18.57124 7.1879,9.00808 7.3712,9.44759 7.3712,17.66667 0,7.34878 -0.3199,8.42876 -2.4968,8.42876 -1.3733,0 -5.0163,-2.73326 -8.0956,-6.0739 z"
             style="fill:#000000;stroke-width:1.33333" />
          <path
             id="path1139"
             d="m 1729.8945,381.94151 c -4.0513,-3.18045 -9.0971,-7.83006 -11.2129,-10.33249 -3.9821,-4.70971 -12.1912,-20.89092 -11.1346,-21.94756 0.3297,-0.32971 2.5368,2.39041 4.9048,6.04471 2.3679,3.6543 9.6685,11.56257 16.2236,17.57392 11.186,10.25814 14.1588,14.44686 10.2517,14.44489 -0.9167,-4.5e-4 -4.9814,-2.60303 -9.0326,-5.78347 z"
             style="fill:#000000;stroke-width:1.33333" />
          <path
             id="path1137"
             d="m 1456.5937,385.94213 c 0,-0.98103 5.2029,-6.51987 11.5619,-12.30852 6.359,-5.78867 13.859,-14.07903 16.6666,-18.42303 6.0567,-9.3708 6.6487,-7.41929 1.2264,4.04233 -4.4265,9.35682 -10.9478,17.07211 -20.1229,23.80723 -6.7717,4.97091 -9.332,5.76159 -9.332,2.88199 z"
             style="fill:#000000;stroke-width:1.33333" />
          <path
             id="path1131"
             d="m 1605.4031,417.61677 c -0.4452,-1.15997 -0.8094,-8.94615 -0.8094,-17.30259 0,-14.99435 0.047,-15.22415 3.5612,-17.52691 5.2438,-3.43585 19.7851,-3.88705 25.7456,-0.79885 7.0261,3.64029 10.6932,10.04943 10.6932,18.6889 0,10.92328 -1.2527,12.38184 -10.6341,12.38184 -5.0454,0 -11.1929,1.19732 -17.1144,3.33333 -10.9286,3.94216 -10.4201,3.88775 -11.4421,1.22428 z"
             style="fill:#000000;stroke-width:1.33333" />
          <path
             id="path1129"
             d="m 1579.9271,416.31752 c -5.1415,-1.9922 -10.9609,-3.12816 -16.2865,-3.17911 -10.2219,-0.0977 -11.5818,-1.89107 -10.7956,-14.23716 0.4519,-7.09649 1.1562,-9.10693 4.3637,-12.45482 2.1037,-2.19576 5.8895,-4.67369 8.4129,-5.50649 6.102,-2.01384 19.1172,-0.96605 23.476,1.88992 3.4341,2.25011 3.4961,2.56049 3.4961,17.48432 0,15.85771 -0.5968,19.51504 -3.1426,19.25742 -0.8382,-0.0848 -5.124,-1.54916 -9.524,-3.25408 z"
             style="fill:#000000;stroke-width:1.33333" />
          <path
             id="path1127"
             d="m 1745.2604,417.55358 c -3.6667,-2.49501 -11.6886,-7.0258 -17.8265,-10.06839 -9.0413,-4.48185 -11.5091,-6.36802 -13,-9.9362 -1.9085,-4.56769 -2.4509,-11.43467 -1.0165,-12.86904 1.4093,-1.40933 19.5025,11.6767 26.5599,19.20968 6.4884,6.92567 13.4324,16.8403 12.4352,17.75506 -0.267,0.24492 -3.4854,-1.59608 -7.1521,-4.09111 z"
             style="fill:#000000;stroke-width:1.33333" />
          <path
             id="path1125"
             d="m 1444.5937,421.43254 c 0,-2.56357 9.3825,-14.69427 16.5543,-21.40311 8.7709,-8.20472 21.2945,-16.67712 22.6491,-15.32247 1.4146,1.41458 0.8474,8.31634 -1.0583,12.87722 -1.5152,3.62645 -3.8957,5.43599 -13,9.88168 -6.1298,2.99327 -14.2951,7.54177 -18.1451,10.1078 -3.85,2.56603 -7,4.30253 -7,3.85888 z"
             style="fill:#000000;stroke-width:1.33333" />
          <path
             id="path1119"
             d="m 1646.1534,480.6651 c -1.2212,-1.47149 -0.9866,-5.91604 1.0427,-19.75239 1.4402,-9.81949 3.1278,-26.34484 3.7502,-36.72297 1.0597,-17.66964 1.3649,-19.17513 4.8001,-23.67897 3.6151,-4.7396 12.1633,-10.11836 16.0806,-10.11836 3.1264,0 4.7676,4.45462 4.7572,12.91234 -0.01,4.26488 0.6752,16.95303 1.512,28.1959 1.785,23.98288 0.9586,28.4307 -6.7069,36.0962 -10.8431,10.8431 -22.2012,16.72484 -25.2359,13.06825 z"
             style="fill:#000000;stroke-width:1.33333" />
          <path
             id="path1117"
             d="m 1541.2499,479.54946 c -8.432,-4.51928 -16.5155,-11.77547 -20.2866,-18.21035 l -3.4845,-5.94584 1.5776,-24.83376 c 0.8677,-13.65857 1.5685,-27.6103 1.5574,-31.00385 -0.032,-9.98931 4.7282,-11.55259 14.7055,-4.82887 7.3287,4.93876 10.5601,12.01814 10.5858,23.19102 0.027,11.80042 2.1405,33.3364 4.8013,48.92976 1.5425,9.0394 1.6481,12.22648 0.4529,13.66666 -2.0996,2.5299 -3.6753,2.3765 -9.9094,-0.96477 z"
             style="fill:#000000;stroke-width:1.33333" />
          <path
             id="path1107"
             d="m 1808.245,501.20228 c -3.9156,-1.4262 -49.8294,-74.67403 -54.4804,-86.91455 -3.9794,-10.47283 -5.0141,-21.59395 -3.457,-37.15368 l 1.3936,-13.9251 5.1122,5.9251 c 10.3207,11.96168 17.1159,29.28053 25.3182,64.52816 6.0172,25.85721 12.7652,43.22107 22.446,57.75752 3.6863,5.53535 6.548,10.19336 6.3593,10.35114 -0.1887,0.15778 -1.4001,-0.0981 -2.6919,-0.56859 z"
             style="fill:#000000;stroke-width:1.33333" />
          <path
             id="path1105"
             d="m 1385.9271,501.60409 c 0,-0.29632 2.0312,-3.39014 4.5138,-6.87519 10.6884,-15.00413 18.7994,-35.19416 24.2392,-60.33641 6.8358,-31.59425 14.3639,-51.09736 24.7036,-64 l 5.8767,-7.33334 0.8681,7.33334 c 0.4775,4.03333 0.9149,13.03333 0.9719,20 0.1693,20.66393 -0.9613,23.10667 -37.4314,80.87613 -11.2954,17.89204 -19.6545,29.80533 -21.1962,30.20851 -1.4002,0.36614 -2.5457,0.42327 -2.5457,0.12696 z"
             style="fill:#000000;stroke-width:1.33333" />
          <path
             id="path1103"
             d="m 1793.9271,502.60813 c 0,-1.9911 -23.5534,-37.07275 -35.716,-53.19719 -10.573,-14.0171 -17.8,-24.22013 -20.8847,-29.48481 -0.8697,-1.4844 -0.5007,-1.51192 2.1064,-0.15708 11.0126,5.72287 23.0501,19.86969 31.9517,37.55056 2.8411,5.64325 9.6755,18.109 15.1875,27.70168 5.512,9.59267 10.0217,17.72546 10.0217,18.07287 0,0.34741 -0.6,0.63167 -1.3333,0.63167 -0.7333,0 -1.3333,-0.50296 -1.3333,-1.1177 z"
             style="fill:#000000;stroke-width:1.33333" />
          <path
             id="path1101"
             d="m 1401.0015,502.39249 c 0.3266,-1.1 4.7185,-9.21056 9.7597,-18.02347 5.0412,-8.81289 11.8454,-21.27661 15.1203,-27.69712 3.2749,-6.42052 8.5298,-14.95505 11.6776,-18.96562 5.3213,-6.77994 19.6673,-19.31104 22.11,-19.31295 1.7965,-10e-4 -3.0935,7.42275 -16.9975,25.80637 -7.2905,9.63936 -18.8065,25.92612 -25.5911,36.19279 -13.2311,20.02174 -17.0383,25.23084 -16.079,22 z"
             style="fill:#000000;stroke-width:1.33333" />
          <path
             id="path1097"
             d="m 1763.6036,490.05916 c -21.5668,-30.16984 -35.1565,-53.3409 -40.2478,-68.6246 -1.5192,-4.5602 -2.7621,-8.9102 -2.7621,-9.66667 0,-4.61011 3.9441,1.59309 15.8685,24.95793 11.4453,22.42608 27.726,51.12896 36.6798,64.66667 1.3338,2.01667 2.1459,3.66667 1.8047,3.66667 -0.3413,0 -5.4457,-6.75 -11.3431,-15 z"
             style="fill:#000000;stroke-width:1.33333" />
          <path
             id="path1089"
             d="m 1428.6987,493.667 c 10.42,-16.53946 23.7845,-40.53515 35.7982,-64.27451 9.5148,-18.80164 12.7798,-23.06531 11.2312,-14.66667 -2.4201,13.12488 -18.1567,41.45915 -40.3585,72.66667 -7.4344,10.45 -13.7805,19 -14.1025,19 -0.322,0 3.0222,-5.72646 7.4316,-12.72549 z"
             style="fill:#000000;stroke-width:1.33333" />
          <path
             id="path1087"
             d="m 1650.816,506.83693 c -2.4646,-2.46452 0.9606,-8.66618 7.6193,-13.79569 1.9329,-1.48899 1.5462,-0.0265 -1.6859,6.3762 -4.3941,8.70472 -4.507,8.84591 -5.9334,7.41949 z"
             style="fill:#000000;stroke-width:1.33333" />
          <path
             id="path1085"
             d="m 1540.5514,499.55695 -4.2468,-8.49779 4.8013,4.58532 c 5.336,5.0958 7.1164,8.98608 5.0558,11.04669 -0.9292,0.9292 -2.7164,-1.3434 -5.6103,-7.13422 z"
             style="fill:#000000;stroke-width:1.33333" />
          <path
             id="path1083"
             d="m 1783.2604,509.34997 c 0,-0.57337 -6.0776,-10.92337 -13.5058,-23 -14.269,-23.1984 -29.8704,-51.6924 -28.8577,-52.70508 0.7831,-0.78316 16.2631,21.23753 23.958,34.08093 5.7022,9.51743 21.0722,40.01835 21.0722,41.81658 0,0.46755 -0.6,0.85009 -1.3334,0.85009 -0.7333,0 -1.3333,-0.46913 -1.3333,-1.04252 z"
             style="fill:#000000;stroke-width:1.33333" />
          <path
             id="path1081"
             d="m 1411.2604,509.03865 c 0,-2.30436 15.868,-33.14545 22.9066,-44.52124 8.1812,-13.22244 21.3347,-31.66136 22.065,-30.93111 1.0068,1.00683 -7.8778,17.4481 -25.432,47.06266 -16.1061,27.17144 -19.5396,32.16009 -19.5396,28.38969 z"
             style="fill:#000000;stroke-width:1.33333" />
          <path
             id="path1075"
             d="m 1606.974,518.05916 c -1.2422,-2.17473 -1.8393,-12.71988 -2.1707,-38.33334 -0.4398,-33.99597 -0.3412,-35.67262 2.6058,-44.2976 2.7548,-8.06222 3.5719,-9.16789 8.1208,-10.988 6.3372,-2.53562 18.3799,-4.00913 23.0947,-2.82578 l 3.5761,0.89753 -0.9008,12.2736 c -1.9035,25.93769 -9.6545,61.7171 -16.1655,74.6224 -5.5006,10.90267 -14.4415,15.16191 -18.1604,8.65119 z"
             style="fill:#000000;stroke-width:1.33333" />
          <path
             id="path1073"
             d="m 1576.8686,516.50177 c -9.3788,-10.68182 -19.8331,-52.02151 -20.5959,-81.44261 l -0.3456,-13.33334 5.9381,-0.42326 c 5.7948,-0.41304 14.6918,1.17773 21.3952,3.82544 2.6028,1.02804 4.0183,3.42941 6.4589,10.95721 3.0103,9.28483 3.1087,10.91997 2.6667,44.30728 -0.504,38.07042 -0.9956,40.66667 -7.701,40.66667 -2.6732,0 -5.0126,-1.36397 -7.8164,-4.55739 z"
             style="fill:#000000;stroke-width:1.33333" />
          <path
             id="path1071"
             d="m 1821.0054,525.53557 c -5.2203,-1.84936 -15.0783,-10.8639 -15.0783,-13.78818 0,-4.88035 17.6894,-1.93604 28.3205,4.7138 7.7571,4.85206 10.2762,8.30713 7.3913,10.13762 -2.704,1.71575 -14.5056,1.10763 -20.6335,-1.06324 z"
             style="fill:#000000;stroke-width:1.33333" />
          <path
             id="path1069"
             d="m 1355.5937,526.84279 c -3.5256,-1.42263 -1.3588,-4.70743 6.4233,-9.7372 8.671,-5.60438 20.12,-8.95214 25.7676,-7.53466 4.5941,1.15306 4.395,2.46311 -1.3391,8.8101 -3.3496,3.70757 -6.8724,5.94054 -11.5754,7.33717 -6.5627,1.94892 -15.8855,2.49281 -19.2764,1.12459 z"
             style="fill:#000000;stroke-width:1.33333" />
          <path
             id="path1067"
             d="m 1640.0564,526.05916 c -3.6296,-5.63579 -3.9452,-12.02695 -0.7918,-16.03583 3.5648,-4.5319 5.7932,-4.59913 7.7818,-0.23477 2.0786,4.56197 1.9506,7.54221 -0.5974,13.91028 -2.4537,6.13239 -3.6732,6.58267 -6.3926,2.36032 z"
             style="fill:#000000;stroke-width:1.33333" />
          <path
             id="path1065"
             d="m 1550.6144,523.77156 c -2.4457,-5.42352 -2.1779,-13.75517 0.5291,-16.4622 1.8871,-1.88703 7.8905,2.38359 8.8772,6.31484 0.8515,3.39257 -3.6863,15.43496 -5.8162,15.43496 -0.6631,0 -2.2787,-2.37943 -3.5901,-5.2876 z"
             style="fill:#000000;stroke-width:1.33333" />
          <path
             id="path1063"
             d="m 1506.0676,523.00848 c -0.272,-15.58279 4.8454,-48.7532 7.8036,-50.58144 2.6962,-1.66635 2.7134,2.58393 0.061,14.9736 -1.5366,7.177 -3.9031,19.93621 -5.2588,28.3538 -2.3045,14.30819 -2.4742,14.78052 -2.6055,7.25404 z"
             style="fill:#000000;stroke-width:1.33333" />
          <path
             id="path1061"
             d="m 1688.8717,519.72583 c -0.9471,-6.96667 -3.2608,-20.35296 -5.1415,-29.74731 -3.3631,-16.7984 -3.313,-21.2782 0.1845,-16.49514 3.1005,4.24027 7.9814,40.75765 7.0963,53.09313 -0.3384,4.71716 -0.7426,3.42284 -2.1393,-6.85068 z"
             style="fill:#000000;stroke-width:1.33333" />
          <path
             id="path1051"
             d="m 1851.4671,541.08824 c -4.5137,-2.91735 -8.2067,-5.78384 -8.2067,-6.37 0,-1.79987 4.071,-6.99241 5.4821,-6.99241 0.732,0 4.898,2.42236 9.2577,5.38301 5.9136,4.01585 7.9269,6.18076 7.9269,8.52401 0,2.77288 -2.1855,4.75964 -5.2357,4.75964 -0.5597,0 -4.7106,-2.38692 -9.2243,-5.30425 z"
             style="fill:#000000;stroke-width:1.33333" />
          <path
             id="path1049"
             d="m 1791.588,540.04116 c -3.9816,-9.48189 -4.7691,-18.15829 -1.9551,-21.5416 4.2092,-5.06093 5.9579,-1.67132 6.6601,12.90964 0.7366,15.29712 -0.7561,18.03573 -4.705,8.63196 z"
             style="fill:#000000;stroke-width:1.33333" />
          <path
             id="path1047"
             d="m 1401.2082,544.67847 c -1.1622,-2.95583 -0.1945,-25.06275 1.1956,-27.31191 0.7665,-1.24032 1.6999,-1.28323 3.7735,-0.17348 2.4701,1.32196 2.6895,2.39136 2.1208,10.33917 -0.7133,9.9698 -5.4283,21.37232 -7.0899,17.14622 z"
             style="fill:#000000;stroke-width:1.33333" />
          <path
             id="path1045"
             d="m 1332.8104,545.22129 c -3.6438,-2.30965 -1.0313,-7.32797 6.45,-12.38965 4.0333,-2.72887 8.0679,-4.99403 8.9658,-5.03369 0.8978,-0.0396 2.5654,1.73202 3.7056,3.9371 l 2.0733,4.00922 -8.3724,5.31145 c -8.8366,5.60597 -9.9693,5.97396 -12.8223,4.16557 z"
             style="fill:#000000;stroke-width:1.33333" />
          <path
             id="path1027"
             d="m 1798.8189,559.38865 c -2.1476,-1.5703 -2.1167,-2.31014 0.5147,-12.33333 2.2244,-8.473 2.6396,-12.92191 2.0219,-21.66283 -0.4275,-6.05 -0.3995,-11 0.062,-11 0.4619,0 3.216,2.69952 6.1202,5.99894 3.1028,3.525 11.0618,9.43601 19.2995,14.33333 14.846,8.82611 17.3729,11.40135 15.1897,15.48065 -3.72,6.9508 -36.681,13.95614 -43.2084,9.18324 z"
             style="fill:#000000;stroke-width:1.33333" />
          <path
             id="path1025"
             d="m 1376.5937,559.55168 c -8.9804,-1.46431 -21.8466,-7.66199 -22.4267,-10.80299 -0.5998,-3.24818 4.7099,-7.737 17.9259,-15.15446 6.7994,-3.81618 13.715,-8.97667 17.1509,-12.79818 3.1665,-3.52196 6.0065,-6.40356 6.3111,-6.40356 0.3046,0 0.5129,6.45 0.463,14.33334 -0.068,10.78354 0.5316,16.12132 2.4226,21.55288 2.4315,6.98436 2.4341,7.27754 0.079,9 -2.7084,1.98044 -10.8332,2.08158 -21.9252,0.27297 z"
             style="fill:#000000;stroke-width:1.33333" />
          <path
             id="path1023"
             d="m 1623.6167,562.85859 c -3.9243,-5.56147 -9.1402,-16.29995 -11.0994,-22.85139 l -1.7101,-5.71863 5.8933,-6.02894 c 6.894,-7.05278 13.9434,-11.73884 15.8689,-10.54883 0.7467,0.46149 1.3635,2.15367 1.3707,3.76039 0.01,1.60672 1.4272,5.95822 3.1556,9.67002 l 3.1425,6.74871 -2.9023,7.91796 c -1.5963,4.35487 -4.7329,10.82769 -6.9703,14.38404 l -4.0679,6.46609 z"
             style="fill:#000000;stroke-width:1.33333" />
          <path
             id="path1021"
             d="m 1566.2386,559.37691 c -2.3884,-3.94094 -5.5053,-10.47335 -6.9263,-14.51647 l -2.5838,-7.35113 3.266,-6.45104 c 1.7962,-3.54808 3.2659,-8.14936 3.2659,-10.22508 0,-2.27938 0.7128,-3.77403 1.8,-3.77403 2.3604,0 11.034,6.44223 16.702,12.40524 3.7392,3.93395 4.3428,5.37004 3.563,8.47721 -1.3746,5.47676 -9.2539,21.95972 -12.2021,25.52575 l -2.542,3.07488 z"
             style="fill:#000000;stroke-width:1.33333" />
          <path
             id="path1019"
             d="m 1856.347,582.72583 c -4.4777,-5.24131 -14.5239,-23.47254 -13.8714,-25.17295 0.3856,-1.00488 1.7699,-1.81907 3.0763,-1.80931 2.6758,0.02 16.3752,22.38935 16.3752,26.73858 0,3.2114 -2.9353,3.33957 -5.5801,0.24368 z"
             style="fill:#000000;stroke-width:1.33333" />
          <path
             id="path1017"
             d="m 1335.2604,582.29547 c 0,-4.27082 13.6159,-26.50059 16.2547,-26.53783 1.24,-0.0175 2.6365,0.58613 3.1033,1.3414 0.8109,1.31212 -9.6474,20.74711 -13.7903,25.62679 -2.6877,3.16574 -5.5677,2.94313 -5.5677,-0.43036 z"
             style="fill:#000000;stroke-width:1.33333" />
          <path
             id="path1007"
             d="m 1805.2636,589.06432 c -0.4515,-0.73049 -2.2559,-6.26423 -4.0099,-12.29719 -3.0791,-10.59118 -2.9079,-12.9374 0.9502,-13.02089 0.9505,-0.0205 5.6363,14.54515 7.2092,22.40981 0.6634,3.31688 0.3941,4.23644 -1.2407,4.23644 -1.1484,0 -2.4573,-0.59768 -2.9088,-1.32817 z"
             style="fill:#000000;stroke-width:1.33333" />
          <path
             id="path1005"
             d="m 1387.2604,588.22573 c 0,-1.29926 1.502,-7.28656 3.3378,-13.30512 2.918,-9.56658 3.6726,-10.85525 6,-10.24662 3.1922,0.83478 3.2791,-0.20491 -1.1453,13.70746 -2.4846,7.81248 -4.3125,11.45935 -5.8966,11.76443 -1.4748,0.28401 -2.2959,-0.40273 -2.2959,-1.92015 z"
             style="fill:#000000;stroke-width:1.33333" />
          <path
             id="path995"
             d="m 1835.4572,584.72583 c -9.0497,-19.8516 -9.0251,-19.76347 -6.115,-21.89138 2.1986,-1.60762 2.7522,-1.59541 3.9831,0.0879 3.2692,4.47091 12.8916,28.7916 12.1529,30.71657 -1.8358,4.78418 -5.1008,1.8802 -10.021,-8.91312 z"
             style="fill:#000000;stroke-width:1.33333" />
          <path
             id="path993"
             d="m 1817.2089,580.90449 c -4.0312,-12.09788 -4.6027,-15.03392 -3.1103,-15.97832 1.0057,-0.63634 2.4285,-0.97741 3.1618,-0.7579 1.7476,0.52308 11.1627,27.72756 10.3448,29.89089 -0.3465,0.91667 -1.7163,1.66667 -3.0439,1.66667 -1.8885,0 -3.4884,-3.2252 -7.3524,-14.82134 z"
             style="fill:#000000;stroke-width:1.33333" />
          <path
             id="path991"
             d="m 1369.271,594.40963 c -1.0899,-1.76356 8.9587,-30.67152 10.6561,-30.65555 0.7333,0.007 2.1558,0.53357 3.1611,1.1704 1.5035,0.95243 1.1755,3.137 -1.8487,12.31292 -2.0221,6.13528 -4.51,12.80505 -5.5287,14.82172 -1.8609,3.68388 -4.9246,4.80212 -6.4398,2.35048 z"
             style="fill:#000000;stroke-width:1.33333" />
          <path
             id="path989"
             d="m 1351.9259,594.39053 c -1.347,-2.17936 -0.01,-6.35892 6.6272,-20.64973 5.4934,-11.83576 6.1604,-12.71137 8.6628,-11.37212 1.4911,0.79803 2.7112,1.95913 2.7112,2.58024 0,0.62109 -2.8995,7.64999 -6.4434,15.61975 -6.0772,13.66689 -9.2837,17.50153 -11.5578,13.82186 z"
             style="fill:#000000;stroke-width:1.33333" />
          <path
             id="path983"
             d="m 1610.9373,607.60528 c -6.2902,-16.95476 -9.6034,-51.48245 -6.5775,-68.54568 l 0.9457,-5.33289 1.7674,5.99956 c 1.6727,5.67822 5.8481,14.07697 14.0623,28.28612 l 3.6342,6.28656 -4.8701,16.3801 c -2.6786,9.00906 -5.3001,17.82586 -5.8255,19.5929 -0.8833,2.97095 -1.1194,2.77021 -3.1365,-2.66667 z"
             style="fill:#000000;stroke-width:1.33333" />
          <path
             id="path981"
             d="m 1582.6376,609.72583 c -0.5288,-2.2 -3.0115,-10.85696 -5.5171,-19.23768 -2.6849,-8.98044 -4.1966,-16.37202 -3.6814,-18 0.4808,-1.51928 3.2653,-6.55075 6.1879,-11.18106 2.9225,-4.6303 6.9744,-12.68718 9.0042,-17.90418 l 3.6905,-9.48544 0.9953,10.57084 c 1.7578,18.66884 -2.218,51.50838 -7.8471,64.81528 l -1.8707,4.42224 z"
             style="fill:#000000;stroke-width:1.33333" />
          <path
             id="path975"
             d="m 1608.0917,655.05916 c 1.4505,-11.25864 8.1797,-37.19166 14.6334,-56.39455 7.2102,-21.45354 41.7116,-107.32487 43.9527,-109.39461 2.1254,-1.96299 -1.0025,25.69309 -4.1244,36.46596 -3.8514,13.29051 -6.3713,19.47659 -20.9064,51.3232 -14.3588,31.46012 -23.127,52.42234 -29.2801,70 -4.2556,12.15698 -4.9872,13.5259 -4.2752,8 z"
             style="fill:#000000;stroke-width:1.33333" />
          <path
             id="path973"
             d="m 1586.0316,651.36207 c -4.8627,-15.27644 -14.7172,-39.24728 -29.4499,-71.63624 -21.6712,-47.64268 -25.0422,-57.90912 -26.0497,-79.33334 -0.3448,-7.33333 -0.3203,-12.73333 0.054,-12 0.8322,1.62835 14.7573,35.52296 27.9369,68 12.6259,31.11254 23.8921,65.90287 28.1478,86.92099 1.8626,9.19936 3.1709,16.94183 2.9073,17.20548 -0.2637,0.26364 -1.8597,-3.85696 -3.5468,-9.15689 z"
             style="fill:#000000;stroke-width:1.33333" />
          <path
             id="path967"
             d="m 1663.9645,717.72583 c 5.247,-16.01307 11.8565,-63.19832 13.9947,-99.90803 1.5074,-25.87829 0.6993,-44.54548 -4.1191,-95.15697 -1.4869,-15.61908 -2.5257,-32.11909 -2.3083,-36.66667 0.3436,-7.18734 0.7368,-8.26834 3.0073,-8.26834 3.0798,0 3.9791,3.65894 9.6674,39.33334 3.4185,21.43881 3.7098,26.14805 3.5883,58 -0.1451,38.00203 -2.8916,67.63314 -9.1205,98.39655 -3.4842,17.20805 -9.3133,36.05696 -13.2783,42.93679 -1.268,2.2 -1.9121,2.8 -1.4315,1.33333 z"
             style="fill:#000000;stroke-width:1.33333" />
          <path
             id="path965"
             d="m 1634.4004,740.05917 c 3.0374,-10.85366 1.6773,-59.55142 -2.6783,-95.89878 -3.1007,-25.87544 -3.4254,-24.67981 21.3322,-78.5541 4.0741,-8.86573 8.8711,-20.4655 10.6598,-25.77728 1.7887,-5.31176 3.5592,-9.15797 3.9345,-8.54713 2.2442,3.65329 5.4333,32.812 5.5169,50.44395 0.094,19.78226 0.019,20.30482 -6.8549,48 -7.7264,31.12867 -14.969,68.19139 -18.5645,95 l -2.3693,17.66667 h -5.8147 c -4.8977,0 -5.7117,-0.36799 -5.1617,-2.33333 z"
             style="fill:#000000;stroke-width:1.33333" />
          <path
             id="path963"
             d="m 1551.2604,739.48487 c 0,-12.57973 -13.508,-83.75299 -21.7118,-114.39861 -5.4999,-20.54528 -5.539,-20.85639 -5.4501,-43.36043 0.081,-20.47167 2.808,-46.1913 5.3306,-50.27291 0.4255,-0.68852 2.4523,3.74121 4.5039,9.84385 2.0516,6.10266 8.9382,22.19572 15.3037,35.76239 12.631,26.92035 18.0296,41.37682 18.0129,48.2351 0,2.43736 -0.8773,11.03157 -1.9364,19.09824 -4.2366,32.26856 -5.6685,87.83413 -2.4776,96.14943 0.5424,1.4135 -0.7406,1.85057 -5.4325,1.85057 -5.4235,0 -6.1427,-0.34044 -6.1427,-2.90763 z"
             style="fill:#000000;stroke-width:1.33333" />
          <path
             id="path961"
             d="m 1651.3545,745.90155 c -2.1395,-3.99766 -1.4469,-11.75989 4.0607,-45.50911 4.1131,-25.20448 12.032,-61.35824 15.274,-69.73354 1.8024,-4.65644 1.8687,-4.18531 1.1824,8.40021 -2.2465,41.1924 -10.7946,94.3861 -17.2053,107.06682 l -1.5504,3.06681 z"
             style="fill:#000000;stroke-width:1.33333" />
          <path
             id="path959"
             d="m 1541.9584,745.80835 c -0.7729,-2.03308 -2.3883,-7.68334 -3.5898,-12.55617 -1.2014,-4.87283 -3.2064,-10.35968 -4.4555,-12.19301 -12.8097,-18.80107 -23.4136,-78.29829 -24.8328,-139.33334 -0.7598,-32.67627 0.5139,-47.36656 7.6066,-87.73155 2.7708,-15.76867 3.2103,-17.03464 5.786,-16.66667 4.1524,0.5932 4.1501,7.60043 -0.017,52.21138 -5.5028,58.9092 -4.9403,95.25449 2.252,145.52017 3.0351,21.21124 7.5365,42.02461 9.5161,44.00001 0.8922,0.89022 1.0844,0.44712 0.5785,-1.33334 -4.0031,-14.08755 -12.5305,-93.82124 -9.761,-91.26812 3.0843,2.84335 16.2669,66.81545 20.3445,98.72752 2.1418,16.76176 2.1528,18.35916 0.147,21.22284 l -2.169,3.09676 -1.4054,-3.69648 z"
             style="fill:#000000;stroke-width:1.33333" />
          <path
             id="path957"
             d="m 1613.432,747.68658 c -4.78,-5.68069 -5.5075,-10.71412 -5.4862,-37.96075 0.018,-22.56947 0.2718,-24.99343 4.2669,-40.66667 2.3365,-9.16666 5.7069,-20.86666 7.4897,-26 3.9617,-11.40701 4.029,-11.20938 6.806,20 3.0124,33.85442 3.9791,66.61417 2.2395,75.89078 -2.4385,13.00299 -8.7139,16.58268 -15.3159,8.73664 z"
             style="fill:#000000;stroke-width:1.33333" />
          <path
             id="path955"
             d="m 1572.1795,749.33805 c -4.1407,-4.57538 -5.343,-15.65192 -4.4444,-40.94555 0.85,-23.92756 4.4206,-68.86966 5.7733,-72.66667 0.9338,-2.62115 4.6618,8.0186 10.7451,30.66667 4.7317,17.61582 4.8367,18.54068 4.9209,43.33333 0.062,18.19627 -0.4298,26.83587 -1.7449,30.66667 -3.5065,10.21445 -10.4276,14.27429 -15.25,8.94555 z"
             style="fill:#000000;stroke-width:1.33333" />
          <path
             id="path945"
             d="m 1631.329,770.72583 c -6.049,-5.58196 -6.5406,-10.0665 -1.6406,-14.96644 5.8709,-5.87089 15.1055,-5.03737 19.5631,1.76575 2.6027,3.97221 1.6306,8.78081 -2.7253,13.48091 -4.2477,4.58332 -10.0425,4.47648 -15.1972,-0.28022 z"
             style="fill:#000000;stroke-width:1.33333" />
          <path
             id="path943"
             d="m 1552.377,772.72583 c -3.3314,-2.69564 -6.4499,-8.04512 -6.4499,-11.06425 0,-3.89635 5.4034,-8.57953 10.8088,-9.368 5.5915,-0.81563 10.6434,1.70117 12.9121,6.43261 4.214,8.78847 -9.7363,20.09638 -17.271,13.99964 z"
             style="fill:#000000;stroke-width:1.33333" />
          <path
             id="path937"
             d="m 1650.1814,783.77946 c 0.3503,-4.84377 1.4396,-8.90879 2.7858,-10.39636 1.2159,-1.34345 3.7253,-8.11595 5.5765,-15.04996 1.8513,-6.93401 4.5418,-15.60731 5.979,-19.27397 l 2.613,-6.66667 0.062,22.89095 c 0.034,12.59002 -0.2764,23.77372 -0.6904,24.85265 -0.4489,1.16964 -1.7952,1.68912 -3.3345,1.2866 -1.7883,-0.46767 -4.2694,1.01271 -8.0744,4.81767 l -5.4927,5.49277 0.5753,-7.95368 z"
             style="fill:#000000;stroke-width:1.33333" />
          <path
             id="path935"
             d="m 1542.4063,786.44291 c -2.7701,-3.0537 -5.478,-4.67196 -8,-4.78085 l -3.8126,-0.1646 -0.6666,-24.82308 c -0.3667,-13.65269 -0.2765,-24.40131 0.2004,-23.88581 1.3144,1.42072 9.1329,26.61704 9.1329,29.43218 0,1.35467 1.831,5.89419 4.0688,10.08783 3.0533,5.72168 3.9685,9.01325 3.6667,13.18768 l -0.4022,5.56291 z"
             style="fill:#000000;stroke-width:1.33333" />
          <path
             id="path933"
             d="m 1633.9947,795.69881 c -0.8434,-3.28514 -2.3672,-8.52298 -3.3863,-11.63964 -1.019,-3.11667 -1.6625,-5.66667 -1.4299,-5.66667 0.2326,0 2.6226,0.91909 5.3111,2.04241 2.6885,1.12334 5.4618,1.68792 6.1628,1.25466 1.6426,-1.0152 1.7487,-1.56139 -1.9426,10.00924 l -3.1816,9.97297 z"
             style="fill:#000000;stroke-width:1.33333" />
          <path
             id="path931"
             d="m 1558.9403,793.54142 c -1.1953,-4.29857 -2.5792,-8.87239 -3.0751,-10.16404 -0.6388,-1.66375 -0.3687,-2.14395 0.9263,-1.647 1.0053,0.3858 4.0721,-0.44272 6.8151,-1.84115 2.7429,-1.39842 4.975,-2.45728 4.9601,-2.353 -0.015,0.10427 -1.6979,5.50662 -3.74,12.00519 l -3.7129,11.81559 z"
             style="fill:#000000;stroke-width:1.33333" />
          <path
             id="path929"
             d="m 1569.4416,829.53974 c -1.7475,-12.74984 -0.9243,-22.15673 2.6675,-30.48057 8.1257,-18.83114 12.8902,-32.62799 14.9407,-43.26467 1.8181,-9.43065 2.3359,-10.68712 3.043,-7.38332 1.3532,6.32243 1.2715,24.58115 -0.1491,33.31465 -0.7686,4.72586 -3.7947,12.96638 -7.3939,20.13478 -6.2088,12.36608 -9.9118,23.61585 -9.9402,30.19856 -0.026,5.95445 -2.2488,4.18645 -3.168,-2.51943 z"
             style="fill:#000000;stroke-width:1.33333" />
          <path
             id="path927"
             d="m 1623.7234,827.78385 c -0.9537,-6.05683 -3.7926,-14.17831 -8.2643,-23.6421 -3.7463,-7.92876 -7.4237,-17.64781 -8.1718,-21.5979 -1.4838,-7.83459 -1.574,-27.77332 -0.1544,-34.15135 0.7541,-3.3884 1.1467,-2.47919 2.5677,5.94656 2.0075,11.90301 6.6482,25.75832 13.318,39.76167 4.7703,10.01522 4.9,10.69513 4.8273,25.30307 -0.089,17.85841 -2.0138,21.77136 -4.1225,8.38005 z"
             style="fill:#000000;stroke-width:1.33333" />
          <path
             id="path925"
             d="m 1610.2611,886.83672 c -1.9088,-4.6622 -0.8594,-41.95848 1.5694,-55.77755 1.2888,-7.33333 2.7978,-13.81333 3.3533,-14.39999 2.0254,-2.13919 4.6931,20.19966 4.6653,39.06666 -0.024,16.03961 -0.4738,20.4502 -2.6425,25.88908 -2.8482,7.14322 -5.3796,9.0464 -6.9455,5.2218 z"
             style="fill:#000000;stroke-width:1.33333" />
          <path
             id="path923"
             d="m 1581.424,885.37548 c -3.7303,-7.21351 -5.2553,-19.9398 -4.4062,-36.76916 0.9363,-18.55543 3.4012,-34.2147 4.9428,-31.40119 4.1908,7.64816 8.1574,56.14979 5.413,66.18737 -1.8039,6.5978 -3.3046,7.09796 -5.9496,1.98298 z"
             style="fill:#000000;stroke-width:1.33333" />
          <path
             id="path913"
             d="m 1616.018,946.39251 c -1.4758,-40.89954 -1.2537,-46.58754 2.1744,-55.66337 2.62,-6.9364 2.9882,-7.35116 3.8496,-4.33664 2.5127,8.79262 0.353,61.68191 -3.3211,81.33334 -1.5635,8.36259 -1.6583,7.61409 -2.7029,-21.33333 z"
             style="fill:#000000;stroke-width:1.33333" />
          <path
             id="path911"
             d="m 1579.2493,975.39251 c -0.01,-0.18334 -0.9227,-6.93334 -2.037,-15 -2.4774,-17.93571 -4.0782,-69.35123 -2.3015,-73.92422 1.2042,-3.09943 1.389,-2.93764 3.8076,3.33333 2.0174,5.23063 2.5239,9.89302 2.4545,22.59088 -0.1227,22.41115 -1.1281,63.33334 -1.5561,63.33334 -0.196,0 -0.3614,-0.15 -0.3675,-0.33333 z"
             style="fill:#000000;stroke-width:1.33333" />
          <path
             id="path909"
             d="m 1617.5937,1004.1401 c -2.8102,-0.7344 -2.7887,-0.1315 -0.2589,-7.24662 3.408,-9.58541 11.0244,-39.64609 13.302,-52.50097 1.3025,-7.35164 2.5918,-26.46155 3.3282,-49.33334 1.5764,-48.95956 6.0751,-77.25829 14.6761,-92.31806 4.3554,-7.62608 8.2188,-9.41581 12.0516,-5.583 2.1442,2.14426 2.567,4.49176 2.5635,14.23439 -0.01,15.1679 -2.4459,28.7637 -12.0631,67.20794 -4.3397,17.34769 -12.1298,50.34769 -17.3113,73.33333 -11.3799,50.48283 -12.0444,53.16713 -13.113,52.97073 -0.463,-0.085 -1.8917,-0.4291 -3.1751,-0.7644 z"
             style="fill:#000000;stroke-width:1.33333" />
          <path
             id="path907"
             d="m 1572.0838,990.72584 c -1.8751,-7.88333 -7.3491,-31.73333 -12.1643,-53 -4.8152,-21.26667 -11.3979,-48.86667 -14.6281,-61.33334 -11.6703,-45.04046 -14.751,-72.18891 -8.9978,-79.29379 5.561,-6.86749 13.5838,3.44855 18.8923,24.29226 4.8743,19.13887 6.9728,38.53149 8.1161,75.00153 1.3739,43.82425 4.4156,62.81314 15.8048,98.66667 2.3355,7.35223 2.3636,8.07343 0.3474,8.90623 -1.2066,0.4985 -2.5915,0.9485 -3.0775,1 -0.486,0.052 -2.4178,-6.35623 -4.2929,-14.23956 z"
             style="fill:#000000;stroke-width:1.33333" />
          <path
             id="path905"
             d="m 1631.6689,1002.7258 c 0.3912,-2.0166 3.6953,-18.36663 7.3425,-36.33329 3.6473,-17.96667 8.8672,-44.36667 11.5999,-58.66667 5.973,-31.25567 13.1172,-61.00142 15.136,-63.02024 2.3523,-2.35226 3.3574,-0.11054 3.9178,8.73808 0.7583,11.9708 -2.3134,27.33922 -14.1804,70.94883 -5.7871,21.26666 -12.4563,47.66666 -14.8204,58.66666 -5.2984,24.65283 -4.8735,23.33333 -7.5134,23.33333 -1.6761,0 -2.0255,-0.8645 -1.482,-3.6667 z"
             style="fill:#000000;stroke-width:1.33333" />
          <path
             id="path903"
             d="m 1559.4072,996.76644 c -2.2331,-12.17611 -12.1638,-52.56551 -18.1347,-73.75607 -10.298,-36.5474 -12.7702,-47.91125 -13.4773,-61.9512 -0.7133,-14.16499 0.4255,-19.57307 3.4787,-16.51983 2.3205,2.32052 9.7141,34.12631 17.168,73.85316 3.7838,20.16667 9.0496,46.86667 11.7017,59.33334 5.6288,26.45876 5.7728,27.78296 3.0803,28.33236 -1.5583,0.3179 -2.4545,-1.864 -3.8167,-9.29176 z"
             style="fill:#000000;stroke-width:1.33333" />
          <path
             id="path893"
             d="m 1641.507,1036.0592 c -3.6891,-10.0009 -6.2466,-17.6904 -6.2466,-18.7815 0,-0.3943 2.4939,3.4453 5.542,8.5323 3.0481,5.087 6.6481,10.6801 8,12.429 3.3737,4.3644 3.1005,6.8202 -0.7588,6.8202 -2.7545,0 -3.6938,-1.2933 -6.5366,-9 z"
             style="fill:#000000;stroke-width:1.33333" />
          <path
             id="path891"
             d="m 1545.9271,1043.5257 c 0,-0.8434 3,-6.2102 6.6666,-11.9262 3.6667,-5.716 6.6667,-10.9906 6.6667,-11.7212 0,-0.7306 0.6643,-1.739 1.4762,-2.2407 1.7129,-1.0587 1.3125,0.4223 -4.44,16.4216 -3.4635,9.6329 -4.3536,11 -7.1623,11 -1.764,0 -3.2072,-0.6901 -3.2072,-1.5335 z"
             style="fill:#000000;stroke-width:1.33333" />
          <path
             id="path889"
             d="m 1631.2345,1045.3923 c -0.014,-0.55 -0.8953,-7 -1.9577,-14.3333 -2.5145,-17.3552 -2.5031,-18.2895 0.2176,-17.7644 1.6722,0.3227 2.9998,3.9511 5.2799,14.431 3.9351,18.087 3.9295,18.6667 -0.1806,18.6667 -1.8333,0 -3.345,-0.45 -3.3592,-1 z"
             style="fill:#000000;stroke-width:1.33333" />
          <path
             id="path887"
             d="m 1617.8619,1044.059 c -0.036,-1.2834 -0.8105,-9.0887 -1.7214,-17.3453 -1.7104,-15.503 -1.305,-17.6547 3.3262,-17.6547 1.597,0 2.5771,1.3753 3.0882,4.3333 1.7271,9.9966 3.3211,23.3371 3.3458,28 0.025,4.6725 -0.2356,5 -3.9736,5 -2.8958,0 -4.018,-0.6441 -4.0652,-2.3333 z"
             style="fill:#000000;stroke-width:1.33333" />
          <path
             id="path885"
             d="m 1606.2198,1029.8193 c 0.21,-9.4171 0.9423,-16.9132 1.6704,-17.098 1.703,-0.4322 3.2743,9.0614 3.6972,22.3377 0.325,10.2063 0.2085,10.6852 -2.7009,11.098 l -3.0406,0.4314 z"
             style="fill:#000000;stroke-width:1.33333" />
          <path
             id="path883"
             d="m 1585.1468,1034.1768 c 2.0065,-26.7007 5.385,-29.8897 5.422,-5.1178 0.025,16.5736 0.01,16.6692 -3.1664,17.1178 l -3.1913,0.4511 z"
             style="fill:#000000;stroke-width:1.33333" />
          <path
             id="path881"
             d="m 1571.2604,1042.1126 c 0,-4.9298 2.2926,-25.293 3.3933,-30.1402 0.5161,-2.2723 1.4799,-2.9758 3.6538,-2.6666 2.8295,0.4023 2.9383,0.9223 2.6024,12.4467 -0.1928,6.6148 -0.8063,14.7148 -1.3633,18 -0.8834,5.2105 -1.477,6.027 -4.6494,6.395 -3.319,0.3851 -3.6368,0.032 -3.6368,-4.0349 z"
             style="fill:#000000;stroke-width:1.33333" />
          <path
             id="path879"
             d="m 1559.2604,1044.1902 c 0,-1.2111 1.3161,-8.4745 2.9248,-16.1408 2.611,-12.4439 4.8504,-16.993 7.2056,-14.6378 0.3751,0.3751 -0.2508,7.3698 -1.3909,15.5439 -1.14,8.174 -2.0728,15.4412 -2.0728,16.1493 0,0.7081 -1.5,1.2875 -3.3334,1.2875 -2.21,0 -3.3333,-0.7421 -3.3333,-2.2021 z"
             style="fill:#000000;stroke-width:1.33333" />
          <path
             id="path873"
             d="m 1654.5201,1054.3109 c -2.0379,-2.2518 -2.1564,-2.9524 -0.6562,-3.8796 1.2247,-0.7569 2.6009,-0.1804 4.1571,1.7414 3.9488,4.8766 0.7469,6.832 -3.5009,2.1382 z"
             style="fill:#000000;stroke-width:1.33333" />
          <path
             id="path871"
             d="m 1536.5937,1056.2693 c 0,-0.4344 1.0966,-2.1837 2.4368,-3.8875 1.6568,-2.1064 3.0267,-2.7331 4.2803,-1.9584 1.5182,0.9384 1.4047,1.6244 -0.6434,3.8875 -2.3095,2.5519 -6.0737,3.7656 -6.0737,1.9584 z"
             style="fill:#000000;stroke-width:1.33333" />
          <path
             id="path861"
             d="m 1646.707,1057.7114 c -2.1179,-3.2323 -1.8976,-5.9858 0.4788,-5.9858 0.6057,0 2.048,1.445 3.2052,3.2111 1.7442,2.662 1.7993,3.4639 0.322,4.69 -1.3716,1.1382 -2.2943,0.6971 -4.006,-1.9154 z"
             style="fill:#000000;stroke-width:1.33333" />
          <path
             id="path859"
             d="m 1546.1198,1059.8585 c -1.4864,-0.9299 -1.3942,-1.7612 0.5189,-4.681 2.2297,-3.4029 4.6916,-4.0147 5.5068,-1.3685 0.7328,2.3788 -4.1145,7.2452 -6.0257,6.0495 z"
             style="fill:#000000;stroke-width:1.33333" />
          <path
             id="path857"
             d="m 1637.974,1059.8135 c -1.9671,-3.6755 -1.7059,-6.7543 0.5728,-6.7543 2.1413,0 4.7136,3.9541 4.7136,7.2456 0,2.939 -3.6312,2.6014 -5.2864,-0.4913 z"
             style="fill:#000000;stroke-width:1.33333" />
          <path
             id="path855"
             d="m 1553.9271,1060.3048 c 0,-3.2915 2.5723,-7.2456 4.7135,-7.2456 2.2788,0 2.54,3.0788 0.5729,6.7543 -1.6552,3.0927 -5.2864,3.4303 -5.2864,0.4913 z"
             style="fill:#000000;stroke-width:1.33333" />
          <path
             id="path853"
             d="m 1626.7675,1062.0592 c -1.4429,-5.3838 -0.9453,-7.6667 1.6707,-7.6667 2.4459,0 4.0983,3.3281 4.1373,8.3333 0.027,3.493 -4.8431,2.934 -5.808,-0.6666 z"
             style="fill:#000000;stroke-width:1.33333" />
          <path
             id="path851"
             d="m 1564.5937,1061.8349 c 0,-4.9714 1.3755,-7.4424 4.1427,-7.4424 2.6297,0 3.1289,2.2735 1.6836,7.6667 -1.1321,4.2246 -5.8263,4.044 -5.8263,-0.2243 z"
             style="fill:#000000;stroke-width:1.33333" />
          <path
             id="path849"
             d="m 1608.9177,1064.8498 c -0.9115,-0.9115 -1.6573,-3.9373 -1.6573,-6.724 0,-5.0336 0.035,-5.0666 5.4064,-5.0666 h 5.4064 l -0.4064,6.3333 c -0.3618,5.6384 -0.7732,6.3762 -3.7491,6.724 -1.8385,0.2148 -4.0885,-0.3552 -5,-1.2667 z"
             style="fill:#000000;stroke-width:1.33333" />
          <path
             id="path845"
             d="m 1580.1493,1065.5036 c -0.4889,-0.4889 -0.8889,-3.4889 -0.8889,-6.6667 v -5.7777 h 5.3333 c 5.0625,0 5.3334,0.2076 5.3334,4.0876 0,5.7166 -2.2234,9.2457 -5.8247,9.2457 -1.6853,0 -3.4642,-0.4 -3.9531,-0.8889 z"
             style="fill:#000000;stroke-width:1.33333" />
        </g>
      </g>
    </g>
    <g
       transform="translate(-1915.331,-27.152087)"
       id="g1597"
       style="display:inline">
      <path
         id="path1289"
         d="m 2211.2405,48.96214 c -1.8224,-1.419704 -7.3643,-3.837374 -12.3154,-5.372598 -9.3779,-2.907909 -11.56,-4.501802 -9.2818,-6.779946 2.5945,-2.594493 15.1652,2.324877 20.8701,8.16723 5.6641,5.800586 6.096,8.167919 0.7271,3.985314 z"
         style="fill:#000000;stroke-width:1.33333" />
      <path
         id="path1287"
         d="m 2156.5738,47.753776 c 3.4936,-4.906293 12.281,-10.177991 19.0199,-11.410375 4.4637,-0.816298 5,-0.617944 5,1.849288 0,2.148512 -1.2613,3.067279 -5.6666,4.127703 -3.1167,0.750223 -9.1649,3.183623 -13.4404,5.407556 l -7.7737,4.043514 z"
         style="fill:#000000;stroke-width:1.33333" />
      <path
         id="path1277"
         d="m 2206.122,82.426276 c -8.2351,-2.001715 -14.8966,-5.7091 -15.6497,-8.709659 -0.4019,-1.60142 -0.539,-5.249488 -0.3047,-8.106819 0.5507,-6.714175 3.252,-7.26852 11.316,-2.322247 3.382,2.074374 9.5152,5.587062 13.6296,7.805973 6.5041,3.507783 7.4805,4.552011 7.4805,8 0,3.777465 -0.2846,3.976388 -6,4.192656 -3.3,0.124867 -8.0122,-0.262084 -10.4717,-0.859904 z"
         style="fill:#000000;stroke-width:1.33333" />
      <path
         id="path1275"
         d="m 2147.7251,82.323823 c -2.4985,-2.498499 -0.4243,-7.624558 3.7918,-9.370937 2.1924,-0.908097 7.5357,-3.945304 11.8741,-6.749348 11.0147,-7.119119 14.1258,-7.730308 15.8789,-3.119388 1.9834,5.21674 0.2699,12.397111 -3.5568,14.904435 -6.5975,4.322847 -25.1298,7.193435 -27.988,4.335238 z"
         style="fill:#000000;stroke-width:1.33333" />
      <path
         id="path1255"
         d="m 2216.7191,114.39617 c -2.1146,-9.85986 -1.8699,-15.560597 0.7103,-16.550717 5.2761,-2.024616 8.5675,8.115817 5.5633,17.139657 -2.5057,7.52626 -4.5749,7.33201 -6.2736,-0.58894 z"
         style="fill:#000000;stroke-width:1.33333" />
      <path
         id="path1253"
         d="m 2147.2082,116.23437 c -1.7846,-5.40741 -1.0513,-15.93837 1.2715,-18.261217 1.1171,-1.11708 2.1304,-1.129294 3.8174,-0.04601 1.8437,1.183892 2.2034,3.008037 1.824,9.249537 -0.8327,13.6997 -4.0079,17.85996 -6.9129,9.0577 z"
         style="fill:#000000;stroke-width:1.33333" />
      <path
         id="path1245"
         d="m 2202.9687,132.18734 c -3.9134,-8.3628 -4.058,-9.22175 -2.5203,-14.97104 1.6756,-6.26489 8.9653,-20.157574 10.5765,-20.156638 1.6412,9.55e-4 1.9305,38.165708 0.3123,41.189378 -2.4058,4.4952 -3.9527,3.37469 -8.3685,-6.0617 z"
         style="fill:#000000;stroke-width:1.33333" />
      <path
         id="path1243"
         d="m 2159.2388,139.68551 c -1.8269,-3.41362 -2.132,-8.99853 -1.63,-29.83302 0.3097,-12.850332 0.3862,-13.145213 2.8345,-10.929505 3.5621,3.223645 9.7537,17.600445 9.7331,22.599995 -0.018,4.35911 -3.8678,14.29586 -7.2747,18.77646 -1.9093,2.51095 -1.9985,2.496 -3.6629,-0.61393 z"
         style="fill:#000000;stroke-width:1.33333" />
      <path
         id="path1227"
         d="m 2196.9271,206.22583 c -0.9167,-0.93501 -1.6667,-4.49984 -1.6667,-7.92187 0,-3.42201 -1.5,-14.18217 -3.3333,-23.91148 -2.6414,-14.01755 -3.3334,-21.93299 -3.3334,-38.13124 0,-18.84541 0.2014,-20.54939 2.5791,-21.82185 1.4184,-0.75914 2.7684,-1.38025 3,-1.38025 0.2315,0 0.4209,5.55001 0.4209,12.33334 0,10.8587 0.4541,13.25809 3.7979,20.06769 5.5229,11.24751 18.9666,23.93174 45.3423,42.78089 l 10.4734,7.48476 h -5.8952 c -9.1371,0 -20.0677,2.41216 -30.5868,6.74986 -11.7554,4.84756 -18.5256,6.06828 -20.7982,3.75015 z"
         style="fill:#000000;stroke-width:1.33333" />
      <path
         id="path1225"
         d="m 2151.4392,202.27718 c -10.1962,-3.92862 -16.6471,-5.54326 -24.5957,-6.1562 -10.426,-0.804 -10.6697,-0.89927 -7.5368,-2.94635 21.7227,-14.19405 45.6902,-35.39128 50.9223,-45.03657 4.4894,-8.27603 6.8375,-21.03471 5.2068,-28.2921 -1.4326,-6.37603 0.069,-8.18566 3.9086,-4.71078 4.0693,3.68262 3.6793,33.08133 -0.7507,56.59063 -1.8333,9.72931 -3.3333,20.86662 -3.3333,24.74959 0,7.76644 -2.2356,11.29191 -7.0952,11.18876 -1.5976,-0.0339 -9.1243,-2.45804 -16.726,-5.38698 z"
         style="fill:#000000;stroke-width:1.33333" />
      <path
         id="path1207"
         d="m 2308.4887,267.15155 c -6.2911,-6.65083 -15.2278,-17.1924 -19.8593,-23.42573 -4.6316,-6.23334 -11.4476,-14.46695 -15.1468,-18.29692 l -6.7258,-6.96358 6.4339,-2.84604 c 9.1104,-4.02996 20.549,-4.83652 28.0367,-1.97694 12.6443,4.8289 21.8324,20.72721 23.0566,39.8952 0.6264,9.80896 -1.3404,24.21892 -3.4474,25.25793 -0.5002,0.24667 -6.0568,-4.99311 -12.3479,-11.64392 z"
         style="fill:#000000;stroke-width:1.33333" />
      <path
         id="path1205"
         d="m 2239.9633,277.39248 c 0.5435,-1.28333 2.9504,-7.43656 5.3486,-13.67382 6.3791,-16.5911 11.1007,-26.91603 13.5425,-29.61419 2.8512,-3.15056 7.774,-3.01032 12.5017,0.35616 8.0381,5.72363 23.0732,33.21652 20.4693,37.42973 -0.3973,0.64283 -2.9369,1.17959 -5.6437,1.19278 -2.7067,0.0133 -11.2213,1.5024 -18.9213,3.30934 -7.7,1.80695 -17.2142,3.29615 -21.1426,3.30935 -6.2947,0.0212 -7.0254,-0.25304 -6.1545,-2.30935 z"
         style="fill:#000000;stroke-width:1.33333" />
      <path
         id="path1203"
         d="m 2105.2604,276.87887 c -5.8667,-1.45963 -14.2667,-3.06619 -18.6667,-3.57013 -10.2385,-1.17263 -10.5622,-2.82016 -3.3759,-17.17798 6.5609,-13.10838 16.5971,-24.40494 21.682,-24.40494 6.2962,0 8.6009,3.65748 19.1142,30.33333 l 6.9627,17.66667 -7.5248,-0.0965 c -4.1387,-0.0531 -12.3248,-1.29078 -18.1915,-2.75041 z"
         style="fill:#000000;stroke-width:1.33333" />
      <path
         id="path1201"
         d="m 2047.1282,273.39248 c -5.7666,-20.15412 2.3896,-47.85185 16.9812,-57.66666 7.0151,-4.71862 22.2795,-4.77968 32.2092,-0.12894 l 6.8417,3.20448 -6.5749,6.79552 c -3.6161,3.73755 -10.9962,12.65235 -16.4001,19.81068 -7.8686,10.42327 -29.384,34.31826 -30.9006,34.31826 -0.1894,0 -1.1599,-2.85 -2.1565,-6.33334 z"
         style="fill:#000000;stroke-width:1.33333" />
      <path
         id="path1191"
         d="m 2193.4826,302.83693 c -1.4018,-1.40183 -1.0143,-53.15873 0.4968,-66.34931 1.6765,-14.63426 3.1511,-17.8506 9.9477,-21.69792 12.174,-6.89132 44.7835,-15.06388 60.1066,-15.06388 6.7898,0 25.293,3.71154 24.1585,4.84597 -0.2737,0.27371 -3.9326,1.13263 -8.1308,1.90872 -10.2481,1.89445 -18.1198,5.42263 -22.8719,10.25141 -2.161,2.1959 -8.9442,13.81784 -15.0737,25.82655 -13.9972,27.42253 -19.9457,36.37547 -33.3324,50.16735 -9.9573,10.2586 -13.0858,12.32604 -15.3008,10.11111 z"
         style="fill:#000000;stroke-width:1.33333" />
      <path
         id="path1189"
         d="m 2163.6752,295.39249 c -13.1519,-12.61551 -20.5195,-23.36723 -33.7957,-49.31866 -6.6549,-13.0086 -13.6422,-25.48491 -15.5272,-27.72513 -4.0328,-4.79268 -11.099,-8.64103 -19.246,-10.4816 -3.2153,-0.72639 -7.6459,-1.72416 -9.8459,-2.21727 l -4,-0.89656 5.3333,-1.93609 c 13.5351,-4.91346 39.6389,-2.59902 64.5202,5.72053 15.2931,5.11352 21.1654,9.06884 22.8716,15.40512 2.1361,7.93292 3.8954,32.559 3.9199,54.87064 0.021,18.87943 -0.982,24.91235 -4.1406,24.91235 -0.771,0 -5.3113,-3.75 -10.0896,-8.33333 z"
         style="fill:#000000;stroke-width:1.33333" />
      <path
         id="path1163"
         d="m 2336.072,366.05915 c -0.315,-1.65 -1.8716,-10.98913 -3.4592,-20.75364 -2.436,-14.9827 -9.5532,-46.18078 -12.6793,-55.57969 -0.6401,-1.92452 0.059,-1.56223 2.5107,1.30177 4.3691,5.10304 9.4205,18.78504 12.1482,32.90392 2.2249,11.51584 4.3809,45.12764 2.8948,45.12764 -0.4635,0 -1.1003,-1.35 -1.4152,-3 z"
         style="fill:#000000;stroke-width:1.33333" />
      <path
         id="path1161"
         d="m 2320.8853,366.72582 c -1.6081,-3.91593 -1.0682,-45.42333 0.6126,-47.10416 1.8556,-1.85553 2.2679,-0.048 5.7548,25.22575 2.802,20.30997 2.3592,24.21174 -2.7477,24.21174 -1.4639,0 -3.0928,-1.05 -3.6197,-2.33333 z"
         style="fill:#000000;stroke-width:1.33333" />
      <path
         id="path1159"
         d="m 2041.8267,366.93819 c -1.4669,-1.76754 -1.267,-5.65032 1.1997,-23.30166 1.6281,-11.64939 3.3516,-22.20108 3.8302,-23.44822 0.7872,-2.05153 0.966,-2.0228 1.8766,0.30166 1.206,3.07862 1.5402,43.44862 0.3846,46.46013 -1.043,2.71788 -5.031,2.71137 -7.2911,-0.012 z"
         style="fill:#000000;stroke-width:1.33333" />
      <path
         id="path1157"
         d="m 2033.202,350.39249 c 0.4035,-16.51162 1.171,-23.23716 3.8171,-33.45195 3.2475,-12.53603 7.8424,-23.24969 12.2438,-28.54805 l 2.2152,-2.66667 -0.9259,2.66667 c -2.9871,8.6032 -11.4144,45.43218 -13.896,60.72824 -1.6007,9.86613 -3.1463,18.83842 -3.4347,19.93842 -0.2885,1.1 -0.2972,-7.3 -0.019,-18.66666 z"
         style="fill:#000000;stroke-width:1.33333" />
      <path
         id="path1147"
         d="m 2310.1525,376.44547 c -6.0171,-6.85305 -10.312,-14.83893 -14.1383,-26.28808 -4.2882,-12.83176 -4.4374,-24.03085 -0.6721,-50.46801 2.5269,-17.74247 2.6293,-28.56338 0.3388,-35.83926 -0.9448,-3.00134 4.1553,3.12684 10.3582,12.44619 6.4087,9.62856 10.5635,22.48143 10.5287,32.56996 -0.014,4.13942 -0.9084,15.32622 -1.9867,24.85955 -2.4087,21.29353 -2.438,35.7426 -0.086,42.33333 2.2226,6.2281 0.8905,6.3466 -4.3427,0.38632 z"
         style="fill:#000000;stroke-width:1.33333" />
      <path
         id="path1145"
         d="m 2054.6259,378.72582 c 3.0089,-7.13381 3.3426,-17.76139 1.2436,-39.61328 -2.8202,-29.36085 -2.7047,-38.20133 0.6248,-47.81539 2.4263,-7.00617 13.2692,-25.15549 16.0584,-26.87932 0.6173,-0.38149 0.8144,3.95675 0.4379,9.64052 -0.4584,6.92279 0.2434,16.55323 2.1261,29.1739 3.3388,22.38201 3.4958,30.57016 0.7903,41.21344 -2.5158,9.8972 -9.8521,25.00922 -15.3472,31.61346 -4.3568,5.23622 -7.64,6.7117 -5.9339,2.66667 z"
         style="fill:#000000;stroke-width:1.33333" />
      <path
         id="path1135"
         d="m 2329.5027,401.3434 c -3.3941,-7.123 -6.5753,-15.57249 -7.0692,-18.77665 l -0.8981,-5.82572 3.5173,2.30462 c 1.9345,1.26753 5.3139,5.98912 7.5097,10.49239 4.1206,8.45073 6.7073,22.53397 4.4006,23.95956 -0.709,0.43818 -4.0661,-5.0312 -7.4603,-12.1542 z"
         style="fill:#000000;stroke-width:1.33333" />
      <path
         id="path1133"
         d="m 2032.8995,406.4441 c 0.7569,-10.57892 5.7271,-22.31072 11.3136,-26.70503 1.8999,-1.49449 3.6898,-2.48184 3.9776,-2.1941 1.8828,1.88284 -12.395,38.18085 -15.0184,38.18085 -0.5153,0 -0.638,-4.17677 -0.2728,-9.28172 z"
         style="fill:#000000;stroke-width:1.33333" />
      <path
         id="path1123"
         d="m 2256.5937,445.72579 c -2.5666,-0.98841 -5.9812,-1.84277 -7.5879,-1.89856 -1.6068,-0.0557 -3.2498,-0.63282 -3.6512,-1.28229 -1.558,-2.52104 10.232,-40.44196 14.3062,-46.01384 1.284,-1.756 1.5996,0.38189 1.5996,10.83689 0,7.16346 0.4981,19.17447 1.1069,26.69114 0.6087,7.51666 0.6087,13.62101 0,13.56522 -0.6088,-0.0558 -3.2069,-0.91014 -5.7736,-1.89856 z"
         style="fill:#000000;stroke-width:1.33333" />
      <path
         id="path1121"
         d="m 2106.6681,446.51273 c -0.4123,-0.66715 -0.3859,-2.16102 0.059,-3.3197 0.4446,-1.15866 1.2128,-12.76281 1.707,-25.78698 l 0.8985,-23.68031 2.4225,5.33333 c 4.2413,9.33728 12.839,36.5965 12.839,40.70591 0,3.34937 -0.5212,3.96081 -3.3762,3.96081 -1.8569,0 -5.5301,0.9 -8.1628,2 -5.6419,2.35735 -5.4321,2.3315 -6.3867,0.78699 z"
         style="fill:#000000;stroke-width:1.33333" />
      <path
         id="path1115"
         d="m 2190.4106,481.47059 c -1.0917,-4.34942 0.3176,-68.59977 2.1731,-99.07819 2.1911,-35.99026 4.0137,-50.77245 6.9867,-56.66666 3.7429,-7.42071 24.5882,-27.72559 32.6655,-31.81867 8.0407,-4.07453 21.9467,-7.83849 40.6502,-11.00292 16.5349,-2.79751 18.9469,-2.27694 17.7012,3.82048 -2.1006,10.28285 -47.2003,138.35758 -52.0525,147.81923 -1.2735,2.48337 -7.2189,9.31521 -13.212,15.18188 -5.9932,5.86667 -15.255,16.21667 -20.5819,23 -5.3269,6.78333 -10.5278,12.33333 -11.5575,12.33333 -1.0297,0 -2.2775,-1.61481 -2.7728,-3.58848 z"
         style="fill:#000000;stroke-width:1.33333" />
      <path
         id="path1113"
         d="m 2172.4408,481.39249 c -1.8251,-2.01667 -5.6713,-6.66667 -8.5469,-10.33333 -2.8757,-3.66667 -11.251,-12.96667 -18.6118,-20.66667 -15.3604,-16.06833 -12.2817,-9.59088 -36.1225,-76 -18.6008,-51.81275 -29.8992,-85.57006 -29.8992,-89.33256 0,-1.51312 0.9432,-3.1131 2.0961,-3.55549 5.0505,-1.93806 46.6849,7.14125 57.0288,12.43643 5.0924,2.60684 28.0476,24.81026 31.6216,30.58591 4.4517,7.19403 6.9933,36.1332 9.2779,105.63702 1.3876,42.2159 0.938,54.89536 -1.9467,54.89536 -0.8683,0 -3.0721,-1.65 -4.8973,-3.66667 z"
         style="fill:#000000;stroke-width:1.33333" />
      <path
         id="path1111"
         d="m 2344.2224,475.48504 c -17.5106,-25.21056 -24.8643,-38.64812 -35.1467,-64.22388 -6.674,-16.60059 -7.3031,-19.96172 -3.0086,-16.07532 1.8989,1.71853 4.7791,2.53998 8.9058,2.53998 h 6.0991 l 7.0179,14.66667 c 4.4219,9.24107 9.0042,21.92792 12.3873,34.29552 2.9531,10.79587 7.1691,24.26412 9.369,29.92947 2.1998,5.66534 3.7764,10.52401 3.5033,10.79702 -0.273,0.27303 -4.3802,-5.09524 -9.1271,-11.92946 z"
         style="fill:#000000;stroke-width:1.33333" />
      <path
         id="path1109"
         d="m 2016.4357,486.39249 c 0.6707,-1.83333 2.4977,-6.54873 4.0599,-10.47867 1.5623,-3.92993 5.5005,-16.5936 8.7517,-28.14148 3.4271,-12.17277 8.8218,-27.24921 12.8372,-35.87598 l 6.926,-14.87984 4.4368,0.83234 c 3.2365,0.60716 5.7304,0.0692 9.218,-1.98857 l 4.7811,-2.82093 -0.8923,3.0099 c -7.2987,24.62152 -30.8301,68.32735 -48.6411,90.34323 l -2.6967,3.33333 z"
         style="fill:#000000;stroke-width:1.33333" />
      <path
         id="path1099"
         d="m 1999.3722,500.85832 c -0.3334,-14.51818 8.9313,-53.61154 21.3162,-89.94579 6.1379,-18.00701 9.6186,-26.35119 7.4474,-17.85337 -0.4684,1.83333 -1.7736,12.33333 -2.9004,23.33333 -3.445,33.62995 -8.8351,54.48268 -20.0607,77.60947 -5.3803,11.08441 -5.6968,11.45837 -5.8025,6.85636 z"
         style="fill:#000000;stroke-width:1.33333" />
      <path
         id="path1095"
         d="m 2378.6672,500.05916 c -4.0902,-34.23871 -11.264,-66.25431 -21.287,-95 -3.1962,-9.16667 -6.2296,-17.86667 -6.741,-19.33334 l -0.9298,-2.66667 2.2692,2.66667 c 1.248,1.46667 4.8439,8.06667 7.9907,14.66667 5.4811,11.49568 8.9677,22.28383 20.0378,62 2.7594,9.9 6.8092,22.45447 8.9996,27.89883 l 3.9824,9.89881 -3.6054,3.10119 c -1.9829,1.70564 -5.0351,3.10117 -6.7826,3.10117 -2.7954,0 -3.2682,-0.76128 -3.9339,-6.33333 z"
         style="fill:#000000;stroke-width:1.33333" />
      <path
         id="path1093"
         d="m 2365.4914,495.87685 c -11.7742,-25.75784 -17.2276,-46.10696 -20.2291,-75.48436 -1.1239,-11 -2.3606,-22.1 -2.7483,-24.66667 l -0.705,-4.66666 1.94,4.20334 c 3.1915,6.91474 15.0838,44.15579 18.6694,58.46332 5.1186,20.425 10.3172,52.66667 8.4918,52.66667 -0.3366,0 -2.7751,-4.73204 -5.4188,-10.51564 z"
         style="fill:#000000;stroke-width:1.33333" />
      <path
         id="path1091"
         d="m 1982.2897,504.77825 c -4.6364,-2.2377 -4.6778,-5.01258 -0.2555,-17.11759 2.264,-6.19749 7.1049,-22.06817 10.7573,-35.26817 11.06,-39.97104 17.642,-57.34451 25.0061,-66.00406 l 2.8312,-3.32928 -2.8396,7.33334 c -12.2909,31.74256 -23.3419,76.77212 -25.9766,105.84783 -0.8331,9.19356 -1.1859,10.14365 -3.7361,10.06193 -1.5489,-0.0496 -4.1529,-0.73542 -5.7868,-1.524 z"
         style="fill:#000000;stroke-width:1.33333" />
      <path
         id="path1079"
         d="m 2097.4665,507.72583 c 1.7097,-13.42359 5.8119,-35.75289 7.7541,-42.20769 5.2696,-17.51312 21.4281,-21.56556 35.456,-8.89214 5.9225,5.35056 6.812,9.6078 2.2565,10.79909 -1.6467,0.43061 -7.6122,3.09443 -13.2567,5.91956 -16.1591,8.08789 -21.8345,14.7576 -31.525,37.04784 -1.2299,2.82904 -1.3335,2.4256 -0.6849,-2.66666 z"
         style="fill:#000000;stroke-width:1.33333" />
      <path
         id="path1077"
         d="m 2271.2327,509.48183 c -5.367,-16.78991 -16.2374,-29.28538 -31.7523,-36.49902 -14.5529,-6.76637 -15.3178,-7.19133 -15.852,-8.80699 -0.8393,-2.53865 8.2984,-10.6414 14.8013,-13.12489 12.091,-4.61759 22.5341,1.39632 26.7623,15.41176 2.1646,7.17511 8.8949,46.86768 8.0856,47.6858 -0.2299,0.23247 -1.1501,-1.86753 -2.0449,-4.66666 z"
         style="fill:#000000;stroke-width:1.33333" />
      <path
         id="path1059"
         d="m 2406.2604,529.72772 c -4.5833,-5.38837 -8.3333,-10.70772 -8.3333,-11.82077 0,-4.93194 3.4887,-3.47828 11.5315,4.80493 6.7171,6.91788 8.4685,9.57917 8.4685,12.86781 0,2.48164 -0.6691,4.10578 -1.6667,4.0456 -0.9166,-0.0553 -5.4166,-4.5092 -10,-9.89757 z"
         style="fill:#000000;stroke-width:1.33333" />
      <path
         id="path1057"
         d="m 1952.5937,534.87509 c 0,-4.23502 1.0554,-5.83037 8.3146,-12.56888 6.1909,-5.7469 8.745,-7.3609 10,-6.31934 0.927,0.76934 1.6854,1.82061 1.6854,2.33613 0,1.53121 -17.4234,21.40283 -18.766,21.40283 -0.6787,0 -1.234,-2.18283 -1.234,-4.85074 z"
         style="fill:#000000;stroke-width:1.33333" />
      <path
         id="path1055"
         d="m 2403.6716,544.77023 c -1.1353,-1.46898 -4.3329,-8.91422 -6.7476,-15.71107 -0.3908,-1.1 2.0931,1.54556 5.5199,5.87903 3.4268,4.33346 6.0249,8.49596 5.7735,9.25 -0.7183,2.15493 -3.095,2.45925 -4.5458,0.58204 z"
         style="fill:#000000;stroke-width:1.33333" />
      <path
         id="path1053"
         d="m 1962.4028,544.37561 c -0.4587,-1.19537 1.5251,-4.99694 4.8706,-9.33333 6.2034,-8.04076 7.1725,-8.81313 5.4155,-4.31645 -5.8167,14.88706 -8.4635,18.39938 -10.2861,13.64978 z"
         style="fill:#000000;stroke-width:1.33333" />
      <path
         id="path1043"
         d="m 2439.2604,546.66431 c -1.1,-0.38564 -5.1578,-3.02931 -9.0175,-5.8748 -5.8063,-4.28076 -6.7969,-5.58576 -5.7394,-7.56166 3.2734,-6.1164 4.9,-6.06081 13.3703,0.45692 8.2891,6.37835 10.0623,10.24731 5.72,12.48064 -1.2834,0.66004 -3.2334,0.88455 -4.3334,0.4989 z"
         style="fill:#000000;stroke-width:1.33333" />
      <path
         id="path1041"
         d="m 2189.2686,527.89488 c -1.1063,-22.84359 -0.1402,-26.56547 8.3312,-32.09591 2.7467,-1.79311 6.3439,-4.44769 7.9939,-5.89909 2.4531,-2.15779 3,-2.26374 3,-0.58112 0,4.94737 -4.3115,26.48448 -6.8879,34.40707 -2.658,8.17342 -9.8988,24 -10.9803,24 -0.2731,0 -0.9287,-8.92392 -1.4569,-19.83095 z"
         style="fill:#000000;stroke-width:1.33333" />
      <path
         id="path1039"
         d="m 2174.42,539.05916 c -5.9792,-13.37584 -8.2311,-20.57681 -10.4956,-33.56247 -3.3005,-18.92619 -3.3697,-18.79189 6.0096,-11.65887 4.4039,3.34914 8.7057,7.39405 9.5596,8.98867 1.6314,3.04658 1.6186,28.41259 -0.02,39.566 l -0.8815,6 z"
         style="fill:#000000;stroke-width:1.33333" />
      <path
         id="path1037"
         d="m 1925.9802,545.78988 c -2.7217,-3.27952 -1.0189,-6.35285 6.9476,-12.53895 7.4673,-5.79845 7.7238,-5.88609 10.3284,-3.52896 4.3801,3.96399 3.2008,6.62446 -5.5375,12.49207 -9.2089,6.1836 -9.5005,6.27244 -11.7385,3.57584 z"
         style="fill:#000000;stroke-width:1.33333" />
      <path
         id="path1035"
         d="m 2392.8651,547.31324 c -0.6913,-0.87308 -1.6762,-3.98741 -2.1885,-6.92075 -0.5124,-2.93333 -1.2161,-6.83333 -1.5638,-8.66666 -0.3478,-1.83334 1.4641,0.56666 4.0263,5.33333 2.5622,4.76667 4.6877,9.05248 4.7233,9.52401 0.1289,1.70815 -3.7716,2.27798 -4.9973,0.73007 z"
         style="fill:#000000;stroke-width:1.33333" />
      <path
         id="path1033"
         d="m 2378.6997,546.05916 c -1.2226,-5.99853 -2.2601,-17.5986 -1.5065,-16.845 1.6494,1.64939 7.3017,17.59299 6.6251,18.68768 -1.3879,2.24568 -4.5147,1.12005 -5.1186,-1.84268 z"
         style="fill:#000000;stroke-width:1.33333" />
      <path
         id="path1031"
         d="m 1986.5658,547.46704 c -0.3829,-0.99764 0.7915,-5.39753 2.6096,-9.77755 l 3.3056,-7.96366 -0.077,6 c -0.042,3.3 -0.4833,7.45552 -0.9804,9.23448 -1.0415,3.72682 -3.8367,5.16906 -4.8583,2.50673 z"
         style="fill:#000000;stroke-width:1.33333" />
      <path
         id="path1029"
         d="m 1973.1292,547.19811 c -0.6172,-1.60844 6.6621,-18.13895 7.9876,-18.13895 0.6333,0 -2.9858,17.25807 -3.9444,18.80913 -1.1046,1.78724 -3.2357,1.43399 -4.0432,-0.67018 z"
         style="fill:#000000;stroke-width:1.33333" />
      <path
         id="path1015"
         d="m 2434.2732,584.72583 c -3.3456,-4.24432 -13.8036,-26.38712 -13.0434,-27.61704 0.4701,-0.76063 1.8932,-1.38296 3.1625,-1.38296 2.8892,0 15.6913,25.26497 14.4462,28.50966 -0.9903,2.58063 -2.7672,2.77147 -4.5653,0.49034 z"
         style="fill:#000000;stroke-width:1.33333" />
      <path
         id="path1013"
         d="m 1931.3546,584.50596 c -1.2425,-1.49705 -0.1726,-4.66271 5.1822,-15.33333 6.5748,-13.10188 8.0854,-14.65458 11.904,-12.2362 1.4751,0.93421 0.3195,4.01768 -5.7392,15.3129 -4.1725,7.77875 -8.0802,14.14316 -8.6838,14.14316 -0.6037,0 -1.8021,-0.84894 -2.6632,-1.88653 z"
         style="fill:#000000;stroke-width:1.33333" />
      <path
         id="path1011"
         d="m 2382.6891,587.88015 c -0.7376,-1.19356 -6.0688,-22.64388 -6.086,-24.48766 -0.01,-0.55 1.1792,-1 2.6319,-1 1.791,0 2.9089,1.1804 3.4726,3.66667 0.4572,2.01667 1.7043,7.19097 2.7713,11.49845 1.0671,4.30748 1.6233,8.65748 1.236,9.66667 -0.7967,2.07605 -2.9329,2.42409 -4.0258,0.65587 z"
         style="fill:#000000;stroke-width:1.33333" />
      <path
         id="path1009"
         d="m 1983.7381,587.04753 c -0.4245,-1.1064 0.3482,-6.9564 1.7173,-13 2.1814,-9.6294 2.8746,-11.04308 5.6049,-11.43074 2.494,-0.35411 2.9653,0.0449 2.3621,2 -0.4145,1.3433 -1.6749,6.45465 -2.8009,11.35856 -2.5197,10.97462 -3.3063,13.08381 -4.8789,13.08381 -0.6779,0 -1.5799,-0.90523 -2.0045,-2.01163 z"
         style="fill:#000000;stroke-width:1.33333" />
      <path
         id="path1003"
         d="m 2398.0816,591.39249 c -0.6121,-1.65 -2.4942,-8.27304 -4.1825,-14.71785 -3.1111,-11.87604 -2.6615,-15.59951 1.6822,-13.93267 1.6787,0.64418 9.0125,24.70067 9.0125,29.56296 0,3.26475 -5.2348,2.53131 -6.5122,-0.91244 z"
         style="fill:#000000;stroke-width:1.33333" />
      <path
         id="path1001"
         d="m 1965.9271,591.04993 c 0,-1.83841 1.6089,-9.03841 3.5753,-16 2.7787,-9.8371 4.0981,-12.65744 5.9213,-12.65744 3.7362,0 4.1591,2.19966 1.9262,10.01752 -1.1492,4.0237 -3.0321,10.61582 -4.1841,14.64915 -1.6083,5.63064 -2.6918,7.33333 -4.6667,7.33333 -1.8565,0 -2.572,-0.92988 -2.572,-3.34256 z"
         style="fill:#000000;stroke-width:1.33333" />
      <path
         id="path999"
         d="m 2416.9449,594.05916 c -0.7198,-0.91667 -3.7799,-8.23955 -6.8001,-16.27307 -5.5661,-14.80502 -5.5903,-16.66354 -0.2177,-16.69946 2.3843,-0.016 13.6796,29.51874 12.4824,32.63872 -0.9337,2.43312 -3.6842,2.60113 -5.4646,0.33381 z"
         style="fill:#000000;stroke-width:1.33333" />
      <path
         id="path997"
         d="m 1947.7497,593.7444 c -0.4598,-1.19819 1.7077,-9.04253 4.8166,-17.43188 4.5201,-12.19741 6.1659,-15.25336 8.2152,-15.25336 1.4094,0 2.878,0.82195 3.2635,1.82653 1.1935,3.11012 -10.4738,32.0771 -13.1256,32.58779 -1.2836,0.24719 -2.7099,-0.53091 -3.1697,-1.72908 z"
         style="fill:#000000;stroke-width:1.33333" />
      <path
         id="path987"
         d="m 2260.1392,591.56603 c -4.9904,-6.94327 -14.4334,-13.85618 -31.5455,-23.09348 -24.8402,-13.40904 -26.0053,-15.81194 -20.8283,-42.95691 1.936,-10.15107 4.432,-25.03861 5.5466,-33.08344 2.3604,-17.0368 4.4408,-21.34104 9.7228,-20.11592 8.4789,1.96662 22.9122,10.38594 30.0626,17.53636 20.5295,20.52952 25.492,49.07447 15.5085,89.20652 -2.3715,9.53333 -4.3945,17.43316 -4.4954,17.55519 -0.1009,0.122 -1.888,-2.14974 -3.9713,-5.04832 z"
         style="fill:#000000;stroke-width:1.33333" />
      <path
         id="path985"
         d="m 2104.5937,593.75141 c 0,-1.74828 -1.8,-10.1598 -4,-18.69225 -6.8651,-26.62573 -5.3364,-50.69017 4.4045,-69.33333 8.0689,-15.44321 30.1611,-32.60306 42.6807,-33.15182 5.6495,-0.24764 6.9029,2.79053 9.5326,23.10619 1.1833,9.14157 3.3284,22.01348 4.7669,28.60424 1.4384,6.59076 2.6153,14.89109 2.6153,18.44517 0,11.97922 -3.9693,16.01143 -27.9997,28.44336 -9.4528,4.89034 -15.1189,8.989 -22.3333,16.155 -8.3898,8.33355 -9.667,9.18219 -9.667,6.42344 z"
         style="fill:#000000;stroke-width:1.33333" />
      <path
         id="path979"
         d="m 2274.8866,633.43307 c -0.4414,-3.72723 -2.1144,-11.09565 -3.7178,-16.37431 -2.1097,-6.94577 -2.6993,-11.41968 -2.1341,-16.19245 0.9369,-7.9106 6.4918,-27.80715 7.7634,-27.80715 2.9015,0 2.9375,56.21224 0.041,64.04238 -0.9746,2.63468 -1.2721,2.07572 -1.9524,-3.66847 z"
         style="fill:#000000;stroke-width:1.33333" />
      <path
         id="path977"
         d="m 2091.8085,625.72583 c -1.4763,-17.82397 -1.4521,-35.92244 0.062,-46.66667 l 1.1277,-8 3.7405,11.33333 c 4.5637,13.82746 4.9338,25.39906 1.2481,39.02811 -1.4335,5.30122 -3.1369,11.73856 -3.7852,14.30523 -1.006,3.98283 -1.3568,2.51744 -2.3935,-10 z"
         style="fill:#000000;stroke-width:1.33333" />
      <path
         id="path971"
         d="m 2205.5928,669.56891 c -3.5877,-5.69761 -7.6315,-50.88329 -7.6525,-85.50975 l -0.013,-21.66667 h 3.7033 c 2.0368,0 4.9629,0.88227 6.5025,1.96059 2.6615,1.86425 2.8304,3.38748 3.437,31 0.5071,23.08442 0.1251,33.41416 -1.8632,50.37275 -3.1173,26.58885 -2.9598,25.67593 -4.1139,23.84308 z"
         style="fill:#000000;stroke-width:1.33333" />
      <path
         id="path969"
         d="m 2163.301,670.31608 c -0.022,-0.40868 -1.2048,-10.30868 -2.6278,-22 -2.0163,-16.56609 -2.5083,-28.013 -2.2298,-51.8728 l 0.3574,-30.61588 5.117,-2.25764 c 8.0897,-3.56916 8.6769,-2.71364 8.6691,12.63205 -0.017,34.51751 -4.4852,86.69538 -7.9289,92.59995 -0.7241,1.24158 -1.3348,1.92302 -1.357,1.51432 z"
         style="fill:#000000;stroke-width:1.33333" />
      <path
         id="path953"
         d="m 2156.1071,750.05917 c -7.447,-21.0257 -8.3288,-29.77586 -5.6196,-55.7691 1.1788,-11.31033 2.6009,-26.26424 3.1602,-33.23091 l 1.0169,-12.66666 2.2713,12.04606 c 3.7931,20.11602 4.789,30.72074 5.695,60.6389 0.8303,27.42091 0.2347,38.64837 -2.0503,38.64837 -0.5773,0 -2.5904,-4.35 -4.4735,-9.66666 z"
         style="fill:#000000;stroke-width:1.33333" />
      <path
         id="path951"
         d="m 2207.8783,755.19838 c -0.51,-3.40037 -0.6311,-20.12276 -0.2692,-37.16085 0.5045,-23.75257 1.3578,-35.02142 3.6581,-48.3117 3.382,-19.5402 5.3265,-23.86128 5.3265,-11.83664 0,4.41652 0.9623,17.58652 2.1384,29.26667 2.8868,28.66924 2.0559,42.97345 -3.4407,59.23664 -2.3545,6.96667 -4.7772,13.18905 -5.3835,13.82752 -0.6064,0.63847 -1.5197,-1.62128 -2.0296,-5.02164 z"
         style="fill:#000000;stroke-width:1.33333" />
      <path
         id="path949"
         d="m 2258.8518,760.12426 c -0.4729,-6.83479 -2.505,-17.57436 -4.8682,-25.72895 -4.6627,-16.08898 -4.8438,-19.75004 -1.9174,-38.76796 1.6489,-10.71629 1.9568,-19.24784 1.3437,-37.23485 -0.8185,-24.01579 -3.7793,-53.86427 -6.2547,-63.05757 -0.7719,-2.86638 -1.1323,-5.48268 -0.801,-5.81398 0.3313,-0.33131 4.2262,2.75269 8.6554,6.85334 7.8411,7.25949 8.1233,7.76142 10.7222,19.0703 8.5404,37.16253 9.1832,56.29229 2.81,83.61457 -3.8115,16.33978 -4.4583,21.86251 -5.1886,44.30409 -0.9283,28.52649 -3.1221,36.6951 -4.5014,16.76101 z"
         style="fill:#000000;stroke-width:1.33333" />
      <path
         id="path947"
         d="m 2107.8942,766.78801 c -0.5609,-2.7842 -1.1305,-14.36218 -1.2659,-25.72884 -0.219,-18.39288 -0.741,-22.72042 -4.7445,-39.33334 -6.7222,-27.89453 -6.2295,-45.98892 2.36,-86.66667 2.1652,-10.25394 2.563,-10.9633 10.2808,-18.33333 8.1489,-7.78174 11.0354,-9.44128 9.5107,-5.46802 -0.464,1.20927 -1.7067,7.35927 -2.7616,13.66667 -5.1115,30.56275 -6.181,72.8315 -2.4401,96.43515 l 2.2665,14.30048 -4.4879,16.36619 c -2.4684,9.00141 -4.8851,21.31895 -5.3704,27.37232 -0.4854,6.05336 -1.2077,11.33133 -1.6052,11.72883 -0.3975,0.3975 -1.1816,-1.55526 -1.7424,-4.33944 z"
         style="fill:#000000;stroke-width:1.33333" />
      <path
         id="path941"
         d="m 2213.4386,779.92274 c -1.198,-1.32379 -2.1782,-3.43308 -2.1782,-4.68733 0,-1.25426 3.45,-12.307 7.6667,-24.56168 l 7.6666,-22.28123 -0.1098,-30 c -0.09,-24.50788 -0.6587,-33.29527 -3.1081,-48 -2.9718,-17.84118 -5.5151,-70.42927 -3.6421,-75.31015 0.6857,-1.78702 1.9647,-1.50395 8.804,1.94853 4.401,2.2216 8.869,5.3868 9.9289,7.03377 4.101,6.37224 9.629,71.97726 8.1168,96.32785 -1.2204,19.65098 -6.104,38.26325 -18.4836,70.44412 -5.595,14.54425 -10.1727,27.25885 -10.1727,28.25464 0,2.99073 -2.1705,3.39281 -4.4885,0.83148 z"
         style="fill:#000000;stroke-width:1.33333" />
      <path
         id="path939"
         d="m 2149.7161,772.02343 c -1.9494,-5.66368 -6.9596,-19.24853 -11.1337,-30.18856 -4.1742,-10.94001 -9.1504,-25.64001 -11.0583,-32.66666 -3.2886,-12.11158 -3.4679,-14.43921 -3.4497,-44.77571 0.018,-29.75654 0.8756,-42.37462 4.6977,-69.10531 1.681,-11.75663 3.0121,-13.59058 13.7469,-18.93994 l 6.7279,-3.35266 1.1616,4.36561 c 2.0158,7.57617 -0.1144,48.13892 -3.9055,74.36563 -2.6784,18.52916 -3.6079,30.47241 -3.7358,48 -0.1899,26.0166 0.667,30.77855 10.0206,55.68471 2.8266,7.52659 5.1393,15.51604 5.1393,17.75432 0,4.20509 -2.0401,9.25465 -3.7136,9.19191 -0.5242,-0.0196 -2.5481,-4.66966 -4.4974,-10.33334 z"
         style="fill:#000000;stroke-width:1.33333" />
      <path
         id="path921"
         d="m 2239.522,891.32902 c -5.0435,-5.20356 -5.1407,-6.85106 -1.3923,-23.60318 2.5848,-11.55172 2.8582,-17.12647 3.1061,-63.33334 0.2864,-53.38471 0.9973,-60.6428 6.213,-63.43417 4.3593,-2.333 5.4238,0.0605 6.6826,15.02502 0.6359,7.55836 3.018,23.64248 5.2938,35.74248 4.8744,25.91679 6.5604,55.65427 3.8463,67.84093 -1.9796,8.88873 -10.8447,29.99354 -14.1181,33.6107 -3.1846,3.51887 -4.7137,3.22542 -9.6314,-1.84844 z"
         style="fill:#000000;stroke-width:1.33333" />
      <path
         id="path919"
         d="m 2119.9852,892.66826 c -1.1019,-1.68166 -4.4452,-8.90146 -7.4297,-16.04401 -9.6278,-23.04221 -10.0846,-42.38288 -1.9892,-84.23175 1.8442,-9.53333 4.0116,-23.93333 4.8164,-32 0.8049,-8.06667 1.7281,-16.05653 2.0515,-17.75525 0.7663,-4.0244 4.0315,-3.37838 7.6849,1.52046 2.7288,3.65912 2.8132,5.16203 2.992,53.33334 0.1673,45.04228 0.4515,50.96813 3.1133,64.90145 4.9061,25.68184 4.9756,23.27366 -0.825,28.60098 -6.0278,5.5359 -7.7074,5.80601 -10.4142,1.67478 z"
         style="fill:#000000;stroke-width:1.33333" />
      <path
         id="path917"
         d="m 2205.1748,899.05984 c -8.6375,-20.67226 -3.7972,-58.85618 14.4507,-114.00067 9.9227,-29.98559 11.6364,-33.86004 16.0127,-36.2022 2.6212,-1.40284 2.6515,-1.14523 1.7698,15.05413 -0.4934,9.06477 -1.4663,32.35284 -2.1619,51.75127 -1.5669,43.69748 -3.345,61.60524 -6.8531,69.01848 -2.8459,6.01404 -16.0569,19.04499 -19.3081,19.04499 -1.0783,0 -2.8379,-2.09971 -3.9101,-4.666 z"
         style="fill:#000000;stroke-width:1.33333" />
      <path
         id="path915"
         d="m 2150.2027,895.24149 c -4.5318,-4.71937 -8.8271,-10.12592 -9.5452,-12.01456 -2.5586,-6.72975 -4.1328,-26.18076 -6.0563,-74.83443 -1.0728,-27.13333 -2.3,-51.88333 -2.7273,-55 -0.9058,-6.60713 0.2295,-7.05691 5.0483,-2 2.5182,2.64263 6.2719,12.04517 13.4404,33.66667 14.4942,43.71667 20.8274,78.40692 18.0525,98.88299 -1.4724,10.86538 -4.7334,18.91706 -7.8971,19.4985 -1.1417,0.20982 -5.7836,-3.47981 -10.3153,-8.19917 z"
         style="fill:#000000;stroke-width:1.33333" />
      <path
         id="path901"
         d="m 2233.3895,1038.0592 c 0.5666,-3.1167 0.9205,-12.9943 0.7863,-21.9503 -0.2437,-16.26938 1.9642,-38.26311 5.861,-58.38306 3.0771,-15.88784 3.5535,-16.96112 4.7353,-10.66667 2.0905,11.13503 1.1774,29.6648 -2.4423,49.56071 -2.0275,11.14442 -3.6457,25.00902 -3.7082,31.77262 -0.1164,12.5978 -0.8699,15.3333 -4.2237,15.3333 -1.671,0 -1.8528,-1.0217 -1.0084,-5.6666 z"
         style="fill:#000000;stroke-width:1.33333" />
      <path
         id="path899"
         d="m 2220.1493,1044.1703 c -0.4889,-0.4889 -0.894,-9.0389 -0.9003,-19 -0.014,-21.6555 -1.7013,-42.39769 -5.4333,-66.77779 -1.5155,-9.9 -2.8143,-23.46986 -2.8864,-30.15524 -0.1184,-10.98801 0.2218,-12.75722 3.5428,-18.42409 4.7103,-8.03757 14.3252,-18.08734 17.3046,-18.08734 4.0031,0 12.817,8.08202 12.817,11.75268 0,1.8185 -2.1105,13.12028 -4.6901,25.11505 -7.0951,32.99142 -9.649,49.53754 -11.9201,77.22893 -2.9982,36.5547 -3.3579,39.2367 -5.2635,39.2367 -0.925,0 -2.0818,-0.4 -2.5707,-0.8889 z"
         style="fill:#000000;stroke-width:1.33333" />
      <path
         id="path897"
         d="m 2145.3632,1043.491 c -0.3057,-0.9708 -1.5527,-14.9652 -2.7712,-31.0985 -2.4412,-32.32259 -4.6998,-47.37006 -12.6401,-84.21171 -3.7891,-17.58075 -4.9523,-25.38862 -4.0371,-27.09859 2.0535,-3.83703 9.3037,-9.35636 12.2905,-9.35636 3.0639,0 9.5775,6.40292 15.9799,15.70853 6.1215,8.89732 6.4886,20.22707 1.6948,52.31303 -2.7748,18.57264 -3.8797,32.03316 -4.4842,54.6295 -0.7261,27.1464 -1.0233,30.0267 -3.1394,30.4319 -1.2856,0.2461 -2.5875,-0.3469 -2.8932,-1.3178 z"
         style="fill:#000000;stroke-width:1.33333" />
      <path
         id="path895"
         d="m 2133.9899,1043.7647 c -1.4228,-0.8794 -1.9807,-4.5479 -2.1711,-14.2778 -0.1513,-7.7312 -1.473,-18.5554 -3.227,-26.4277 -3.199,-14.35808 -5.131,-47.114 -3.3174,-56.24356 l 1.0111,-5.0898 1.1542,4 c 4.6363,16.06741 9.1805,55.50346 8.2198,71.33336 -0.3783,6.2333 -0.069,14.6333 0.6871,18.6666 1.4518,7.7432 0.7942,9.9862 -2.3567,8.0389 z"
         style="fill:#000000;stroke-width:1.33333" />
      <path
         id="path877"
         d="m 2207.2484,1042.2246 c -4.5353,-5.3785 -5.4724,-7.2956 -4.3992,-9 2.7219,-4.3226 5.3557,-3.134 8.9246,4.0279 3.5009,7.0253 4.4574,11.8065 2.362,11.8065 -0.6186,0 -3.7179,-3.0755 -6.8874,-6.8344 z"
         style="fill:#000000;stroke-width:1.33333" />
      <path
         id="path875"
         d="m 2155.2604,1045.6725 c 0,-3.4975 4.3517,-13.1828 6.5273,-14.5274 1.8209,-1.1254 5.1477,0.4771 6.0904,2.9337 0.4578,1.1931 0.01,2.6026 -1.009,3.1727 -1.0081,0.5641 -3.5141,3.4516 -5.5688,6.4166 -4.3102,6.2196 -6.0399,6.7936 -6.0399,2.0044 z"
         style="fill:#000000;stroke-width:1.33333" />
      <path
         id="path869"
         d="m 2231.2604,1055.1744 c 0,-2.3066 2.2988,-5.1388 8.1166,-10 7.1113,-5.9421 11.8834,-8.3713 11.8834,-6.0492 0,4.2671 -13.9903,19.2671 -17.9702,19.2671 -1.2568,0 -2.0298,-1.2255 -2.0298,-3.2179 z"
         style="fill:#000000;stroke-width:1.33333" />
      <path
         id="path867"
         d="m 2217.2242,1057.0004 c -1.1552,-1.8692 2.9381,-7.9414 5.3534,-7.9414 2.3986,0 5.1366,4.8942 4.1607,7.4375 -0.84,2.189 -8.2307,2.5804 -9.5141,0.5038 z"
         style="fill:#000000;stroke-width:1.33333" />
      <path
         id="path865"
         d="m 2144.1493,1057.5035 c -1.5322,-1.5322 -0.971,-5.3831 1.0259,-7.0404 2.8364,-2.354 7.4185,0.5137 7.4185,4.6428 0,2.7198 -0.6514,3.2865 -3.7777,3.2865 -2.0778,0 -4.1778,-0.4 -4.6667,-0.8889 z"
         style="fill:#000000;stroke-width:1.33333" />
      <path
         id="path863"
         d="m 2126.7967,1050.4914 c -11.11,-11.6478 -10.0039,-16.4734 1.6597,-7.2411 8.1009,6.4123 10.804,9.5705 10.804,12.6231 0,4.7086 -4.8271,2.6241 -12.4637,-5.382 z"
         style="fill:#000000;stroke-width:1.33333" />
    </g>
  </g>
</svg>
