<?xml version="1.0" encoding="UTF-8" standalone="no"?>
<svg
   xmlns:dc="http://purl.org/dc/elements/1.1/"
   xmlns:cc="http://creativecommons.org/ns#"
   xmlns:rdf="http://www.w3.org/1999/02/22-rdf-syntax-ns#"
   xmlns:svg="http://www.w3.org/2000/svg"
   xmlns="http://www.w3.org/2000/svg"
   xmlns:sodipodi="http://sodipodi.sourceforge.net/DTD/sodipodi-0.dtd"
   xmlns:inkscape="http://www.inkscape.org/namespaces/inkscape"
   version="1.1"
   id="svg833"
   width="540"
   height="1040"
   viewBox="0 0 540 1040"
   sodipodi:docname="muscle_10_2.svg"
   inkscape:version="1.0 (4035a4fb49, 2020-05-01)">
  <metadata
     id="metadata839">
    <rdf:RDF>
      <cc:Work
         rdf:about="">
        <dc:format>image/svg+xml</dc:format>
        <dc:type
           rdf:resource="http://purl.org/dc/dcmitype/StillImage" />
        <dc:title></dc:title>
      </cc:Work>
    </rdf:RDF>
  </metadata>
  <defs
     id="defs837" />
  <sodipodi:namedview
     inkscape:document-rotation="0"
     pagecolor="#ffffff"
     bordercolor="#666666"
     borderopacity="1"
     objecttolerance="10"
     gridtolerance="10"
     guidetolerance="10"
     inkscape:pageopacity="0"
     inkscape:pageshadow="2"
     inkscape:window-width="640"
     inkscape:window-height="480"
     id="namedview835"
     showgrid="false"
     showborder="true"
     inkscape:zoom="1.0174362"
     inkscape:cx="283.76937"
     inkscape:cy="469.35313"
     inkscape:current-layer="g841" />
  <g
     style="display:none"
     inkscape:groupmode="layer"
     inkscape:label="full"
     id="g841">
    <g
       id="g1513"
       transform="translate(-1328.5549,-29.0824)">
      <path
         id="path1285"
         d="m 1600.1904,61.345262 c -0.7431,-1.40946 1.3752,-26.622634 2.3724,-28.236013 1.4471,-2.341581 9.0294,-1.513532 16.0309,1.750731 9.5772,4.465049 10.2647,5.674605 9.1895,16.168439 -0.8455,8.252674 -1.1184,8.844782 -3.7176,8.065784 -8.0682,-2.418053 -12.797,-2.308609 -18.0266,0.417211 -2.9404,1.532652 -5.5723,2.357883 -5.8486,1.833848 z"
         style="fill:#000000;stroke-width:1.33333" />
      <path
         id="path1283"
         d="m 1591.2604,59.476266 c -4.6036,-2.544155 -10.6863,-2.659173 -18.3333,-0.346667 -2.7183,0.822024 -3,0.462523 -3,-3.828154 0,-2.604457 -0.5693,-6.232614 -1.265,-8.062573 -0.9849,-2.590466 -0.7005,-4.044842 1.2844,-6.56822 3.327,-4.229611 15.021,-9.211271 20.3967,-8.688988 4.0359,0.392116 4.2764,0.744431 5.2855,7.744139 0.5815,4.033333 0.8865,10.707467 0.6778,14.831407 l -0.3794,7.498073 z"
         style="fill:#000000;stroke-width:1.33333" />
      <path
         id="path1281"
         d="m 1623.64,77.171844 c -4.4198,-3.688844 -11.7046,-4.644744 -16.6387,-2.183301 -5.1948,2.591529 -5.0742,2.606162 -5.0742,-0.615653 0,-3.908905 7.9759,-11.855591 12.8304,-12.783433 6.0347,-1.153422 12.3923,4.750691 13.4275,12.46968 0.8331,6.212928 -0.081,6.838732 -4.545,3.112707 z"
         style="fill:#000000;stroke-width:1.33333" />
      <path
         id="path1279"
         d="m 1569.0025,74.059137 c 1.0345,-7.714007 7.4039,-13.637462 13.3793,-12.442394 4.9741,0.994828 11.0193,6.498642 12.169,11.079165 1.1397,4.541117 0.3528,4.9367 -4.6618,2.343544 -5.0801,-2.627015 -11.432,-1.829751 -16.3703,2.054727 -4.7681,3.750568 -5.3717,3.344892 -4.5162,-3.035042 z"
         style="fill:#000000;stroke-width:1.33333" />
      <path
         id="path1273"
         d="m 1633.4875,72.581524 c -3.2699,-16.641901 -2.5977,-23.63985 2.0977,-21.83806 3.6141,1.386848 5.3828,11.565339 3.6604,21.064133 -2.3781,13.114547 -3.3088,13.239638 -5.7581,0.773927 z"
         style="fill:#000000;stroke-width:1.33333" />
      <path
         id="path1271"
         d="m 1559.4728,78.921595 c -3.8855,-13.775727 -2.5937,-27.239107 2.7116,-28.260705 3.7398,-0.720148 4.2632,7.214575 1.3984,21.200415 l -2.5669,12.531166 z"
         style="fill:#000000;stroke-width:1.33333" />
      <path
         id="path1269"
         d="m 1611.2878,90.268606 c -4.8227,-1.969191 -8.0274,-5.253739 -8.0274,-8.22733 0,-2.193533 0.5786,-2.447623 3.6667,-1.610091 2.9495,0.79998 10.7219,1.518396 20.7511,1.918068 0.5965,0.02377 0.8965,1.993218 0.6667,4.376551 -0.4061,4.21178 -0.6048,4.341179 -7.0845,4.613002 -3.6667,0.153816 -8.1543,-0.327774 -9.9726,-1.0702 z"
         style="fill:#000000;stroke-width:1.33333" />
      <path
         id="path1267"
         d="m 1569.5937,90.964686 c -0.55,-0.559163 -1,-2.716659 -1,-4.794438 0,-2.077777 0.45,-3.795105 1,-3.816284 8.3566,-0.321784 17.7819,-1.229675 20.7822,-2.001835 3.4015,-0.875414 3.7369,-0.667448 3.3333,2.06638 -0.7172,4.85777 -6.7783,8.398915 -15.4309,9.015357 -4.2265,0.301113 -8.1346,0.08999 -8.6846,-0.46918 z"
         style="fill:#000000;stroke-width:1.33333" />
      <path
         id="path1265"
         d="m 1612.0399,106.5172 c -1.4673,-1.62143 -2.1457,-4.15637 -1.8733,-7.000009 0.3963,-4.136091 0.7506,-4.442709 4.9063,-4.2456 6.6436,0.31512 7.4953,1.970406 4.2684,8.295579 -3.1604,6.19492 -4.0423,6.55125 -7.3014,2.95003 z"
         style="fill:#000000;stroke-width:1.33333" />
      <path
         id="path1263"
         d="m 1577.9013,103.67521 c -3.2826,-6.4344 -2.4539,-8.087382 4.2133,-8.403619 4.3498,-0.206319 4.4791,-0.06316 4.4791,4.958249 0,3.83995 -0.7509,5.66931 -2.9177,7.10805 -2.7715,1.84015 -3.0611,1.65642 -5.7747,-3.66268 z"
         style="fill:#000000;stroke-width:1.33333" />
      <path
         id="path1261"
         d="m 1621.3805,114.98871 c -2.414,-2.41393 -1.9843,-5.3243 1.7612,-11.92957 2.4704,-4.356611 6.3867,-5.228129 8.4925,-1.88986 1.0071,1.5967 0.1905,3.80363 -3.3561,9.07007 -4.3647,6.48126 -4.8391,6.8079 -6.8976,4.74936 z"
         style="fill:#000000;stroke-width:1.33333" />
      <path
         id="path1259"
         d="m 1568.3335,109.56803 c -4.4726,-6.47355 -4.7344,-7.32382 -2.8382,-9.21997 1.1488,-1.148834 3.066,-1.908817 4.2603,-1.688854 2.7506,0.506583 8.5191,11.942544 7.4411,14.751764 -1.6121,4.20112 -4.0299,3.15282 -8.8632,-3.84294 z"
         style="fill:#000000;stroke-width:1.33333" />
      <path
         id="path1257"
         d="m 1579.2604,116.40614 c 0,-3.42746 8.2799,-6.02117 18.9572,-5.93841 11.3892,0.0883 18.8188,2.25901 19.4768,5.69064 0.422,2.20099 -0.1476,2.32792 -5.9838,1.33333 -8.1852,-1.39489 -18.0137,-1.40149 -26.1169,-0.0175 -5.384,0.91957 -6.3333,0.75949 -6.3333,-1.06803 z"
         style="fill:#000000;stroke-width:1.33333" />
      <path
         id="path1251"
         d="m 1589.5141,130.33513 c -6.9404,-1.73168 -10.2537,-3.66708 -10.2537,-5.98956 0,-1.62543 3.2434,-1.95309 19.3333,-1.95309 16.579,0 19.3334,0.29463 19.3334,2.06804 0,4.59915 -18.333,8.38963 -28.413,5.87461 z"
         style="fill:#000000;stroke-width:1.33333" />
      <path
         id="path1249"
         d="m 1623.5068,137.52196 c 4.622,-9.40774 7.7058,-17.08965 9.1513,-22.79615 1.2933,-5.106 2.4051,-7 4.109,-7 1.2848,0 2.7037,0.59514 3.1533,1.32253 1.4971,2.42239 -3.5454,17.00193 -7.5683,21.88241 -3.6234,4.39582 -10.1596,9.26636 -8.8453,6.59121 z"
         style="fill:#000000;stroke-width:1.33333" />
      <path
         id="path1247"
         d="m 1566.2733,132.61363 c -5.5489,-6.01983 -8.035,-11.63957 -8.6502,-19.55368 -0.2995,-3.85229 0.1209,-4.73511 2.411,-5.06308 2.3676,-0.33907 3.0162,0.68608 4.4296,7.0022 0.9108,4.06969 3.405,10.84808 5.5428,15.06309 4.4318,8.73827 4.2968,8.33032 2.7571,8.33032 -0.64,0 -3.5606,-2.60048 -6.4903,-5.77885 z"
         style="fill:#000000;stroke-width:1.33333" />
      <path
         id="path1241"
         d="m 1601.9271,148.4951 c 0,-0.49356 2.0339,-4.077 4.5199,-7.96319 3.3885,-5.2971 5.9334,-7.63134 10.1664,-9.32508 3.1056,-1.2426 5.9953,-1.91048 6.4216,-1.48418 1.221,1.22103 -3.6444,9.35388 -8.2891,13.85572 -3.8079,3.6907 -12.8188,7.14691 -12.8188,4.91673 z"
         style="fill:#000000;stroke-width:1.33333" />
      <path
         id="path1239"
         d="m 1587.8851,147.79204 c -5.5437,-2.2474 -15.7964,-16.00561 -13.5795,-18.2225 0.3421,-0.34209 3.1281,0.38077 6.1911,1.60635 4.1705,1.66869 6.7238,4.0333 10.1664,9.41502 2.5285,3.95268 4.5973,7.47503 4.5973,7.82746 0,0.97559 -4.3311,0.60778 -7.3753,-0.62633 z"
         style="fill:#000000;stroke-width:1.33333" />
      <path
         id="path1237"
         d="m 1595.4254,175.09549 c -1.7251,-3.25189 -5.2147,-8.3404 -7.7547,-11.30777 -3.3677,-3.93444 -4.0371,-5.39524 -2.4723,-5.39524 1.1801,0 2.4374,-0.76029 2.794,-1.68955 0.8245,-2.1486 18.788,-1.99042 20.9631,0.1846 0.8277,0.82772 2.3206,1.50495 3.3176,1.50495 1.0435,0 -0.4216,2.68757 -3.4526,6.33333 -2.8959,3.48334 -6.3887,8.57184 -7.7618,11.30778 l -2.4967,4.97445 z"
         style="fill:#000000;stroke-width:1.33333" />
      <path
         id="path1235"
         d="m 1640.3082,189.32563 c -6.7674,-6.59557 -9.1775,-9.83536 -8.8421,-11.88637 0.4249,-2.59913 1.9722,-1.99863 19.7943,7.68194 10.6333,5.7758 20.2333,11.08939 21.3333,11.80796 1.3853,0.90492 -1.8393,1.3306 -10.4911,1.38491 l -12.4912,0.0784 -9.3032,-9.06685 z"
         style="fill:#000000;stroke-width:1.33333" />
      <path
         id="path1233"
         d="m 1524.5937,196.92916 c 1.1,-0.71857 10.7,-6.03216 21.3334,-11.80796 17.822,-9.68057 19.3693,-10.28107 19.7943,-7.68194 0.3353,2.05101 -2.0747,5.2908 -8.8422,11.88637 l -9.3031,9.06685 -12.4912,-0.0784 c -8.6518,-0.0543 -11.8764,-0.47998 -10.4912,-1.3849 z"
         style="fill:#000000;stroke-width:1.33333" />
      <path
         id="path1231"
         d="m 1620.0925,199.99343 c -0.4599,-0.74411 0.8481,-4.91432 2.9067,-9.26712 l 3.7428,-7.91419 2.8378,8.10048 c 1.5607,4.45527 2.7049,8.23336 2.5425,8.39578 -1.2052,1.20512 -11.3513,1.78292 -12.0298,0.68505 z"
         style="fill:#000000;stroke-width:1.33333" />
      <path
         id="path1229"
         d="m 1567.5169,200.1081 c -1.7026,-0.32531 -2.7803,-1.28638 -2.4129,-2.15175 0.3652,-0.86013 1.6535,-4.75239 2.863,-8.64947 l 2.1991,-7.0856 3.8825,8.20963 c 2.1354,4.51529 3.5462,8.75381 3.1352,9.41893 -0.7598,1.22926 -4.1158,1.31892 -9.6669,0.25826 z"
         style="fill:#000000;stroke-width:1.33333" />
      <path
         id="path1223"
         d="m 1601.9271,208.60576 c 0,-9.39286 4.1725,-25.35825 9.1659,-35.07132 2.2079,-4.29475 7.6838,-13.20863 12.1688,-19.80863 l 8.1544,-12 -0.9128,8 c -1.832,16.05654 -5.7212,27.47782 -15.1877,44.60139 -5.0875,9.20258 -9.6454,17.78195 -10.1287,19.06528 -1.7057,4.52996 -3.2599,2.24783 -3.2599,-4.78672 z"
         style="fill:#000000;stroke-width:1.33333" />
      <path
         id="path1221"
         d="m 1583.298,197.35048 c -10.373,-19.04501 -15.0471,-32.19372 -16.6927,-46.958 l -0.9659,-8.66667 9.0025,13.33334 c 10.4229,15.4368 15.8524,26.61968 18.6166,38.34333 2.0763,8.80603 2.6854,22.35204 1.0019,22.28134 -0.55,-0.0231 -5.4831,-8.2731 -10.9624,-18.33334 z"
         style="fill:#000000;stroke-width:1.33333" />
      <path
         id="path1219"
         d="m 1688.7639,260.97451 c -2.4731,-1.50773 -10.8731,-7.91201 -18.6667,-14.23172 -18.06,-14.64461 -29.4438,-21.99372 -41.6895,-26.91372 -5.3638,-2.15501 -9.9388,-4.47768 -10.1667,-5.16148 -0.8147,-2.44397 8.4827,-4.89119 18.3527,-4.83077 18.0242,0.1104 28.3684,7.55624 38.6667,27.83274 3.3,6.49744 8.9102,15.01815 12.4671,18.9349 3.5569,3.91674 6.2569,7.11912 6,7.11637 -0.2569,-0.003 -2.4905,-1.23859 -4.9636,-2.74632 z"
         style="fill:#000000;stroke-width:1.33333" />
      <path
         id="path1217"
         d="m 1508.7413,257.3549 c 3.3318,-3.70575 9.2573,-12.82352 13.1679,-20.26171 10.602,-20.16593 20.6988,-27.29371 38.6845,-27.30905 9.9038,-0.008 19.1587,2.46565 18.3458,4.90437 -0.2318,0.69531 -4.6224,2.89869 -9.7569,4.89639 -11.8622,4.61524 -24.3515,12.70526 -43.454,28.14748 -8.3242,6.72917 -16.9147,13.16306 -19.09,14.29754 -3.5899,1.87224 -3.3957,1.44054 2.1027,-4.67502 z"
         style="fill:#000000;stroke-width:1.33333" />
      <path
         id="path1215"
         d="m 1718.8157,274.29422 c -14.0009,-4.81622 -22.129,-11.3543 -31.7757,-25.55964 -6.8183,-10.04034 -18.9112,-35.17783 -17.7932,-36.98671 1.2325,-1.99431 9.3961,-1.64917 14.8452,0.6276 5.859,2.44805 18.4572,15.15263 25.9131,26.13196 5.2459,7.72481 15.8912,28.89844 17.8742,35.55172 1.0776,3.61564 0.7858,3.62321 -9.0636,0.23507 z"
         style="fill:#000000;stroke-width:1.33333" />
      <path
         id="path1213"
         d="m 1468.5937,275.89083 c 0,-2.42964 8.4301,-21.03564 13.3653,-29.49835 6.5028,-11.1508 19.1478,-26.16146 26.2339,-31.14178 5.6747,-3.98834 17.9234,-6.4548 19.4874,-3.92411 1.0405,1.68344 -6.9272,19.72867 -13.8999,31.4808 -8.2788,13.95351 -17.2239,22.82571 -28.4205,28.18893 -10.2586,4.91396 -16.7662,6.81368 -16.7662,4.89451 z"
         style="fill:#000000;stroke-width:1.33333" />
      <path
         id="path1211"
         d="m 1727.7326,259.72582 c -10.3431,-20.9879 -19.227,-33.80659 -28.952,-41.7755 -3.4199,-2.80241 -5.8756,-5.64936 -5.4571,-6.32656 1.0661,-1.72504 11.9462,-1.53528 18.1257,0.31614 7.6978,2.30634 14.8821,9.19364 18.878,18.09788 4.2954,9.57125 7.8671,29.37664 7.3311,40.65106 l -0.3979,8.37031 z"
         style="fill:#000000;stroke-width:1.33333" />
      <path
         id="path1209"
         d="m 1459.6896,264.05915 c 2.1017,-36.35215 14.1402,-53.66667 37.3135,-53.66667 3.3549,0 6.4205,0.51863 6.8122,1.15251 0.3918,0.63387 -2.2072,3.61429 -5.7756,6.62315 -10.1399,8.55013 -18.4248,20.612 -28.3155,41.22434 -5.0144,10.45 -9.51,19 -9.9902,19 -0.4802,0 -0.5002,-6.45 -0.044,-14.33333 z"
         style="fill:#000000;stroke-width:1.33333" />
      <path
         id="path1199"
         d="m 1675.5937,297.54039 c -2.981,-1.25832 -1.7665,-3.8211 3.0369,-6.40788 5.352,-2.88224 7.802,-1.69136 7.076,3.43948 -0.3455,2.44244 -1.3484,3.21222 -4.4462,3.41284 -2.2,0.14248 -4.75,-0.0575 -5.6667,-0.44444 z"
         style="fill:#000000;stroke-width:1.33333" />
      <path
         id="path1197"
         d="m 1512.1493,297.50359 c -1.3255,-1.3255 -1.0735,-6.83962 0.3529,-7.72117 1.7455,-1.0788 10.7582,3.42916 10.7582,5.38103 0,2.72373 -8.8612,4.59002 -11.1111,2.34014 z"
         style="fill:#000000;stroke-width:1.33333" />
      <path
         id="path1195"
         d="m 1614.5937,299.05523 c -5.8245,-2.06065 -11.3672,-7.50286 -11.2748,-11.07042 0.032,-1.24244 0.8404,-4.44762 1.796,-7.12261 1.1688,-3.2718 1.3168,-5.6154 0.452,-7.16062 -0.707,-1.26335 -1.2689,-5.67472 -1.2486,-9.80306 0.1974,-40.18148 -0.1,-37.01746 3.76,-40.05344 4.9423,-3.88765 7.7666,-3.53865 20.2614,2.50368 12.1766,5.88844 21.4731,11.91376 40.3311,26.13955 7.009,5.28737 15.9582,11.59133 19.8871,14.00881 l 7.1435,4.39542 -4.7539,4.0833 c -10.4075,8.93939 -32.4831,19.91845 -48.3006,24.02178 -9.7784,2.53669 -20.9809,2.55969 -28.0532,0.0576 z"
         style="fill:#000000;stroke-width:1.33333" />
      <path
         id="path1193"
         d="m 1558.5937,300.15299 c -13.7564,-3.07882 -33.0875,-11.67028 -46.0537,-20.46793 -11.8538,-8.04291 -11.8641,-8.10758 -2.2856,-14.33718 4.5866,-2.983 15.5393,-10.86368 24.3393,-17.51262 16.2007,-12.24066 42.188,-26.77611 47.8718,-26.77611 1.7061,0 4.6863,1.24625 6.6227,2.76945 3.4323,2.69984 3.5237,3.16064 3.6362,18.33334 0.2055,27.72273 0.1481,29.21837 -1.2208,31.7761 -0.7427,1.38782 -0.8782,3.40782 -0.3011,4.48887 0.5771,1.08107 1.4564,4.23155 1.954,7.00107 0.7899,4.39615 0.4173,5.52288 -2.9341,8.87429 -2.1113,2.11135 -6.1915,4.49204 -9.0671,5.29042 -5.143,1.42793 -17.3323,1.73065 -22.5616,0.5603 z"
         style="fill:#000000;stroke-width:1.33333" />
      <path
         id="path1187"
         d="m 1650.816,309.50359 c -0.4889,-0.48888 -0.8889,-1.37045 -0.8889,-1.95902 0,-1.41144 14.7628,-10.83367 15.6244,-9.97211 1.034,1.034 -4.5069,8.21791 -8.2097,10.64408 -3.6026,2.36051 -5.1477,2.66523 -6.5258,1.28705 z"
         style="fill:#000000;stroke-width:1.33333" />
      <path
         id="path1185"
         d="m 1536.4369,305.21602 c -7.0532,-7.05319 -6.5572,-9.05441 1.1568,-4.66796 8.074,4.59109 10.2061,6.55971 9.0791,8.38315 -1.6738,2.70832 -5.0309,1.48985 -10.2359,-3.71519 z"
         style="fill:#000000;stroke-width:1.33333" />
      <path
         id="path1183"
         d="m 1673.9271,321.65961 c 0,-4.41223 8.0022,-16.60046 10.8991,-16.60046 0.6055,0 1.1009,3.26598 1.1009,7.25774 0,5.98844 -0.5183,7.62072 -2.9634,9.33333 -3.8657,2.70764 -9.0366,2.71301 -9.0366,0.009 z"
         style="fill:#000000;stroke-width:1.33333" />
      <path
         id="path1181"
         d="m 1513.8526,321.26693 c -2.373,-1.92155 -3.0366,-3.81547 -3.0366,-8.66667 0,-7.52316 0.9392,-8.71331 4.4026,-5.57895 2.7717,2.50832 8.0418,12.4207 8.0418,15.12547 0,2.43224 -6.0119,1.86999 -9.4078,-0.87985 z"
         style="fill:#000000;stroke-width:1.33333" />
      <path
         id="path1179"
         d="m 1656.6406,330.48014 c -0.7591,-1.41845 -1.3802,-4.77773 -1.3802,-7.46505 0,-5.1351 2.0607,-7.69448 13.4718,-16.73228 4.822,-3.81908 5.1949,-3.91598 5.1949,-1.35 0,6.60677 -11.2347,28.12634 -14.6838,28.12634 -0.6723,0 -1.8435,-1.16056 -2.6027,-2.57901 z"
         style="fill:#000000;stroke-width:1.33333" />
      <path
         id="path1177"
         d="m 1533.4029,328.46078 c -4.9121,-6.44011 -10.1137,-17.96373 -10.1295,-22.44073 l -0.013,-3.70578 8.7101,6.97979 c 9.368,7.50709 11.015,10.78053 9.1471,18.18011 -1.6006,6.34032 -3.4507,6.57692 -7.7147,0.98661 z"
         style="fill:#000000;stroke-width:1.33333" />
      <path
         id="path1175"
         d="m 1637.2604,340.23677 c -4.2747,-3.38088 -13.2027,-6.88658 -21.8919,-8.59607 -4.4341,-0.87235 -8.6998,-2.35457 -9.4793,-3.29381 -0.8055,-0.97056 -1.2471,-5.93374 -1.023,-11.49774 l 0.3942,-9.79 7.6579,-0.39961 c 8.8849,-0.46364 16.5014,2.36088 23.9122,8.86768 6.158,5.40679 8.0132,10.09781 7.5067,18.98099 -0.4502,7.89497 -2.3714,9.45014 -7.0768,5.72856 z"
         style="fill:#000000;stroke-width:1.33333" />
      <path
         id="path1173"
         d="m 1553.4826,341.50359 c -2.0024,-2.00244 -0.8456,-15.83232 1.6693,-19.95666 5.1781,-8.49188 17.176,-15.15444 27.29,-15.15444 9.8074,0 10.1518,0.38377 10.1518,11.31272 0,6.1598 -0.6076,10.17712 -1.6666,11.01894 -0.9167,0.72868 -6.2352,2.32494 -11.8188,3.54723 -5.785,1.26636 -12.8311,3.92129 -16.3797,6.17175 -6.4916,4.11685 -7.7673,4.53912 -9.246,3.06046 z"
         style="fill:#000000;stroke-width:1.33333" />
      <path
         id="path1171"
         d="m 1657.3091,354.54585 c -1.2569,-3.96008 1.4221,-13.41604 4.8381,-17.07667 3.4565,-3.70412 11.8835,-8.41003 15.0601,-8.41003 3.0919,0 2.4638,3.90708 -1.8321,11.39647 -3.7261,6.49615 -13.4836,16.60353 -16.0288,16.60353 -0.6818,0 -1.5986,-1.13098 -2.0373,-2.5133 z"
         style="fill:#000000;stroke-width:1.33333" />
      <path
         id="path1169"
         d="m 1529.3738,350.37573 c -3.4384,-3.67588 -7.7131,-9.82588 -9.4993,-13.66667 -3.1942,-6.86816 -3.2033,-6.99036 -0.5502,-7.41552 2.9491,-0.47259 12.6084,4.68525 16.1939,8.64712 2.6552,2.93404 5.1024,12.72781 4.1194,16.4866 -1.0782,4.12313 -3.5184,3.15989 -10.2638,-4.05153 z"
         style="fill:#000000;stroke-width:1.33333" />
      <path
         id="path1167"
         d="m 1724.3143,362.05107 c -12.3349,-7.46766 -24.5699,-33.82221 -28.9343,-62.32525 -0.8421,-5.5 -1.7827,-11.57048 -2.09,-13.48996 -0.4601,-2.8732 0.4474,-4.21264 5.1354,-7.57932 l 5.6944,-4.08936 11.2369,4.52625 11.237,4.52626 3.6766,11.71973 c 13.5309,43.13259 14.867,64.37775 4.3011,68.39488 -4.618,1.75576 -4.5613,1.76507 -10.2571,-1.68323 z"
         style="fill:#000000;stroke-width:1.33333" />
      <path
         id="path1165"
         d="m 1462.2012,363.66235 c -3.9248,-1.57514 -6.9408,-8.82489 -6.9408,-16.68426 0,-8.67888 4.421,-29.14267 10.3239,-47.78727 l 5.0239,-15.86832 5.3261,-1.84244 c 2.9294,-1.01334 7.864,-3.07023 10.9658,-4.57087 l 5.6397,-2.72845 5.3318,3.77253 c 6.4476,4.56198 6.6811,6.94068 2.7043,27.54799 -4.3944,22.77136 -11.5664,39.98985 -21.0213,50.46783 -3.9542,4.38212 -11.8261,9.47556 -13.918,9.00554 -0.2069,-0.0465 -1.7528,-0.637 -3.4354,-1.31228 z"
         style="fill:#000000;stroke-width:1.33333" />
      <path
         id="path1155"
         d="m 1635.9271,374.74785 c -3.1438,-1.16796 -10.5335,-2.05815 -18,-2.16838 l -12.6667,-0.18698 v -15.28222 c 0,-15.19649 0.02,-15.29348 3.5824,-17.29292 2.9826,-1.6741 4.8051,-1.75425 10.8861,-0.47874 15.3021,3.20965 24.8648,13.72472 24.8648,27.34109 0,9.25384 -1.5617,10.70771 -8.6666,8.06815 z"
         style="fill:#000000;stroke-width:1.33333" />
      <path
         id="path1153"
         d="m 1554.1278,375.39319 c -2.8512,-2.85113 -1.8393,-15.57884 1.7215,-21.65489 6.9581,-11.87312 26.2869,-19.27416 33.9839,-13.01248 2.6683,2.1708 2.8412,3.355 2.481,17 l -0.3871,14.66667 -13.3334,0.19137 c -8.7432,0.12547 -14.9855,0.90605 -18.1326,2.26737 -3.6181,1.56507 -5.1768,1.69844 -6.3333,0.54196 z"
         style="fill:#000000;stroke-width:1.33333" />
      <path
         id="path1151"
         d="m 1741.0104,375.72582 c 0.3275,-1.83333 1.5678,-6.90939 2.7561,-11.28013 4.8379,-17.79438 1.7379,-45.47856 -7.6831,-68.61098 -3.6367,-8.9296 -3.6656,-11.0213 -0.1115,-8.0717 6.0449,5.01678 11.5054,27.7922 12.3044,51.32065 0.7024,20.68183 -0.8939,32.0388 -5.1911,36.93384 l -2.6703,3.04165 z"
         style="fill:#000000;stroke-width:1.33333" />
      <path
         id="path1149"
         d="m 1453.4415,375.50817 c -3.3816,-5.18532 -4.7809,-14.29018 -4.8152,-31.33172 -0.034,-17.03239 2.1026,-31.50014 6.6872,-45.27672 2.4407,-7.33451 6.9902,-13.90836 8.5476,-12.35099 0.3214,0.3214 -1.5401,6.2404 -4.1367,13.15333 -9.2905,24.73396 -11.2811,47.67838 -5.853,67.46399 2.9932,10.91005 2.8651,13.39452 -0.4299,8.34211 z"
         style="fill:#000000;stroke-width:1.33333" />
      <path
         id="path1143"
         d="m 1660.2028,382.72582 c -1.2689,-6.42395 1.0951,-14.59799 5.7575,-19.90823 5.2168,-5.94164 16.8085,-23.44237 17.9874,-27.15685 0.4542,-1.43087 1.3853,-2.60159 2.0692,-2.60159 3.2669,0 -0.6514,22.49558 -5.9244,34.01326 -3.7685,8.23148 -13.4309,19.32008 -16.8352,19.32008 -1.4776,0 -2.5952,-1.34167 -3.0545,-3.66667 z"
         style="fill:#000000;stroke-width:1.33333" />
      <path
         id="path1141"
         d="m 1526.0013,380.31859 c -3.0793,-3.34065 -7.0456,-9.19065 -8.8141,-13 -3.9437,-8.49502 -7.6044,-24.35297 -7.0237,-30.4266 l 0.4302,-4.4995 5.6288,9.33333 c 3.0957,5.13333 8.9457,13.49039 13,18.57124 7.1879,9.00808 7.3712,9.44759 7.3712,17.66667 0,7.34878 -0.3199,8.42876 -2.4968,8.42876 -1.3733,0 -5.0163,-2.73326 -8.0956,-6.0739 z"
         style="fill:#000000;stroke-width:1.33333" />
      <path
         id="path1139"
         d="m 1729.8945,381.94151 c -4.0513,-3.18045 -9.0971,-7.83006 -11.2129,-10.33249 -3.9821,-4.70971 -12.1912,-20.89092 -11.1346,-21.94756 0.3297,-0.32971 2.5368,2.39041 4.9048,6.04471 2.3679,3.6543 9.6685,11.56257 16.2236,17.57392 11.186,10.25814 14.1588,14.44686 10.2517,14.44489 -0.9167,-4.5e-4 -4.9814,-2.60303 -9.0326,-5.78347 z"
         style="fill:#000000;stroke-width:1.33333" />
      <path
         id="path1137"
         d="m 1456.5937,385.94213 c 0,-0.98103 5.2029,-6.51987 11.5619,-12.30852 6.359,-5.78867 13.859,-14.07903 16.6666,-18.42303 6.0567,-9.3708 6.6487,-7.41929 1.2264,4.04233 -4.4265,9.35682 -10.9478,17.07211 -20.1229,23.80723 -6.7717,4.97091 -9.332,5.76159 -9.332,2.88199 z"
         style="fill:#000000;stroke-width:1.33333" />
      <path
         id="path1131"
         d="m 1605.4031,417.61677 c -0.4452,-1.15997 -0.8094,-8.94615 -0.8094,-17.30259 0,-14.99435 0.047,-15.22415 3.5612,-17.52691 5.2438,-3.43585 19.7851,-3.88705 25.7456,-0.79885 7.0261,3.64029 10.6932,10.04943 10.6932,18.6889 0,10.92328 -1.2527,12.38184 -10.6341,12.38184 -5.0454,0 -11.1929,1.19732 -17.1144,3.33333 -10.9286,3.94216 -10.4201,3.88775 -11.4421,1.22428 z"
         style="fill:#000000;stroke-width:1.33333" />
      <path
         id="path1129"
         d="m 1579.9271,416.31752 c -5.1415,-1.9922 -10.9609,-3.12816 -16.2865,-3.17911 -10.2219,-0.0977 -11.5818,-1.89107 -10.7956,-14.23716 0.4519,-7.09649 1.1562,-9.10693 4.3637,-12.45482 2.1037,-2.19576 5.8895,-4.67369 8.4129,-5.50649 6.102,-2.01384 19.1172,-0.96605 23.476,1.88992 3.4341,2.25011 3.4961,2.56049 3.4961,17.48432 0,15.85771 -0.5968,19.51504 -3.1426,19.25742 -0.8382,-0.0848 -5.124,-1.54916 -9.524,-3.25408 z"
         style="fill:#000000;stroke-width:1.33333" />
      <path
         id="path1127"
         d="m 1745.2604,417.55358 c -3.6667,-2.49501 -11.6886,-7.0258 -17.8265,-10.06839 -9.0413,-4.48185 -11.5091,-6.36802 -13,-9.9362 -1.9085,-4.56769 -2.4509,-11.43467 -1.0165,-12.86904 1.4093,-1.40933 19.5025,11.6767 26.5599,19.20968 6.4884,6.92567 13.4324,16.8403 12.4352,17.75506 -0.267,0.24492 -3.4854,-1.59608 -7.1521,-4.09111 z"
         style="fill:#000000;stroke-width:1.33333" />
      <path
         id="path1125"
         d="m 1444.5937,421.43254 c 0,-2.56357 9.3825,-14.69427 16.5543,-21.40311 8.7709,-8.20472 21.2945,-16.67712 22.6491,-15.32247 1.4146,1.41458 0.8474,8.31634 -1.0583,12.87722 -1.5152,3.62645 -3.8957,5.43599 -13,9.88168 -6.1298,2.99327 -14.2951,7.54177 -18.1451,10.1078 -3.85,2.56603 -7,4.30253 -7,3.85888 z"
         style="fill:#000000;stroke-width:1.33333" />
      <path
         id="path1119"
         d="m 1646.1534,480.6651 c -1.2212,-1.47149 -0.9866,-5.91604 1.0427,-19.75239 1.4402,-9.81949 3.1278,-26.34484 3.7502,-36.72297 1.0597,-17.66964 1.3649,-19.17513 4.8001,-23.67897 3.6151,-4.7396 12.1633,-10.11836 16.0806,-10.11836 3.1264,0 4.7676,4.45462 4.7572,12.91234 -0.01,4.26488 0.6752,16.95303 1.512,28.1959 1.785,23.98288 0.9586,28.4307 -6.7069,36.0962 -10.8431,10.8431 -22.2012,16.72484 -25.2359,13.06825 z"
         style="fill:#000000;stroke-width:1.33333" />
      <path
         id="path1117"
         d="m 1541.2499,479.54946 c -8.432,-4.51928 -16.5155,-11.77547 -20.2866,-18.21035 l -3.4845,-5.94584 1.5776,-24.83376 c 0.8677,-13.65857 1.5685,-27.6103 1.5574,-31.00385 -0.032,-9.98931 4.7282,-11.55259 14.7055,-4.82887 7.3287,4.93876 10.5601,12.01814 10.5858,23.19102 0.027,11.80042 2.1405,33.3364 4.8013,48.92976 1.5425,9.0394 1.6481,12.22648 0.4529,13.66666 -2.0996,2.5299 -3.6753,2.3765 -9.9094,-0.96477 z"
         style="fill:#000000;stroke-width:1.33333" />
      <path
         id="path1107"
         d="m 1808.245,501.20228 c -3.9156,-1.4262 -49.8294,-74.67403 -54.4804,-86.91455 -3.9794,-10.47283 -5.0141,-21.59395 -3.457,-37.15368 l 1.3936,-13.9251 5.1122,5.9251 c 10.3207,11.96168 17.1159,29.28053 25.3182,64.52816 6.0172,25.85721 12.7652,43.22107 22.446,57.75752 3.6863,5.53535 6.548,10.19336 6.3593,10.35114 -0.1887,0.15778 -1.4001,-0.0981 -2.6919,-0.56859 z"
         style="fill:#000000;stroke-width:1.33333" />
      <path
         id="path1105"
         d="m 1385.9271,501.60409 c 0,-0.29632 2.0312,-3.39014 4.5138,-6.87519 10.6884,-15.00413 18.7994,-35.19416 24.2392,-60.33641 6.8358,-31.59425 14.3639,-51.09736 24.7036,-64 l 5.8767,-7.33334 0.8681,7.33334 c 0.4775,4.03333 0.9149,13.03333 0.9719,20 0.1693,20.66393 -0.9613,23.10667 -37.4314,80.87613 -11.2954,17.89204 -19.6545,29.80533 -21.1962,30.20851 -1.4002,0.36614 -2.5457,0.42327 -2.5457,0.12696 z"
         style="fill:#000000;stroke-width:1.33333" />
      <path
         id="path1103"
         d="m 1793.9271,502.60813 c 0,-1.9911 -23.5534,-37.07275 -35.716,-53.19719 -10.573,-14.0171 -17.8,-24.22013 -20.8847,-29.48481 -0.8697,-1.4844 -0.5007,-1.51192 2.1064,-0.15708 11.0126,5.72287 23.0501,19.86969 31.9517,37.55056 2.8411,5.64325 9.6755,18.109 15.1875,27.70168 5.512,9.59267 10.0217,17.72546 10.0217,18.07287 0,0.34741 -0.6,0.63167 -1.3333,0.63167 -0.7333,0 -1.3333,-0.50296 -1.3333,-1.1177 z"
         style="fill:#000000;stroke-width:1.33333" />
      <path
         id="path1101"
         d="m 1401.0015,502.39249 c 0.3266,-1.1 4.7185,-9.21056 9.7597,-18.02347 5.0412,-8.81289 11.8454,-21.27661 15.1203,-27.69712 3.2749,-6.42052 8.5298,-14.95505 11.6776,-18.96562 5.3213,-6.77994 19.6673,-19.31104 22.11,-19.31295 1.7965,-10e-4 -3.0935,7.42275 -16.9975,25.80637 -7.2905,9.63936 -18.8065,25.92612 -25.5911,36.19279 -13.2311,20.02174 -17.0383,25.23084 -16.079,22 z"
         style="fill:#000000;stroke-width:1.33333" />
      <path
         id="path1097"
         d="m 1763.6036,490.05916 c -21.5668,-30.16984 -35.1565,-53.3409 -40.2478,-68.6246 -1.5192,-4.5602 -2.7621,-8.9102 -2.7621,-9.66667 0,-4.61011 3.9441,1.59309 15.8685,24.95793 11.4453,22.42608 27.726,51.12896 36.6798,64.66667 1.3338,2.01667 2.1459,3.66667 1.8047,3.66667 -0.3413,0 -5.4457,-6.75 -11.3431,-15 z"
         style="fill:#000000;stroke-width:1.33333" />
      <path
         id="path1089"
         d="m 1428.6987,493.667 c 10.42,-16.53946 23.7845,-40.53515 35.7982,-64.27451 9.5148,-18.80164 12.7798,-23.06531 11.2312,-14.66667 -2.4201,13.12488 -18.1567,41.45915 -40.3585,72.66667 -7.4344,10.45 -13.7805,19 -14.1025,19 -0.322,0 3.0222,-5.72646 7.4316,-12.72549 z"
         style="fill:#000000;stroke-width:1.33333" />
      <path
         id="path1087"
         d="m 1650.816,506.83693 c -2.4646,-2.46452 0.9606,-8.66618 7.6193,-13.79569 1.9329,-1.48899 1.5462,-0.0265 -1.6859,6.3762 -4.3941,8.70472 -4.507,8.84591 -5.9334,7.41949 z"
         style="fill:#000000;stroke-width:1.33333" />
      <path
         id="path1085"
         d="m 1540.5514,499.55695 -4.2468,-8.49779 4.8013,4.58532 c 5.336,5.0958 7.1164,8.98608 5.0558,11.04669 -0.9292,0.9292 -2.7164,-1.3434 -5.6103,-7.13422 z"
         style="fill:#000000;stroke-width:1.33333" />
      <path
         id="path1083"
         d="m 1783.2604,509.34997 c 0,-0.57337 -6.0776,-10.92337 -13.5058,-23 -14.269,-23.1984 -29.8704,-51.6924 -28.8577,-52.70508 0.7831,-0.78316 16.2631,21.23753 23.958,34.08093 5.7022,9.51743 21.0722,40.01835 21.0722,41.81658 0,0.46755 -0.6,0.85009 -1.3334,0.85009 -0.7333,0 -1.3333,-0.46913 -1.3333,-1.04252 z"
         style="fill:#000000;stroke-width:1.33333" />
      <path
         id="path1081"
         d="m 1411.2604,509.03865 c 0,-2.30436 15.868,-33.14545 22.9066,-44.52124 8.1812,-13.22244 21.3347,-31.66136 22.065,-30.93111 1.0068,1.00683 -7.8778,17.4481 -25.432,47.06266 -16.1061,27.17144 -19.5396,32.16009 -19.5396,28.38969 z"
         style="fill:#000000;stroke-width:1.33333" />
      <path
         id="path1075"
         d="m 1606.974,518.05916 c -1.2422,-2.17473 -1.8393,-12.71988 -2.1707,-38.33334 -0.4398,-33.99597 -0.3412,-35.67262 2.6058,-44.2976 2.7548,-8.06222 3.5719,-9.16789 8.1208,-10.988 6.3372,-2.53562 18.3799,-4.00913 23.0947,-2.82578 l 3.5761,0.89753 -0.9008,12.2736 c -1.9035,25.93769 -9.6545,61.7171 -16.1655,74.6224 -5.5006,10.90267 -14.4415,15.16191 -18.1604,8.65119 z"
         style="fill:#000000;stroke-width:1.33333" />
      <path
         id="path1073"
         d="m 1576.8686,516.50177 c -9.3788,-10.68182 -19.8331,-52.02151 -20.5959,-81.44261 l -0.3456,-13.33334 5.9381,-0.42326 c 5.7948,-0.41304 14.6918,1.17773 21.3952,3.82544 2.6028,1.02804 4.0183,3.42941 6.4589,10.95721 3.0103,9.28483 3.1087,10.91997 2.6667,44.30728 -0.504,38.07042 -0.9956,40.66667 -7.701,40.66667 -2.6732,0 -5.0126,-1.36397 -7.8164,-4.55739 z"
         style="fill:#000000;stroke-width:1.33333" />
      <path
         id="path1071"
         d="m 1821.0054,525.53557 c -5.2203,-1.84936 -15.0783,-10.8639 -15.0783,-13.78818 0,-4.88035 17.6894,-1.93604 28.3205,4.7138 7.7571,4.85206 10.2762,8.30713 7.3913,10.13762 -2.704,1.71575 -14.5056,1.10763 -20.6335,-1.06324 z"
         style="fill:#000000;stroke-width:1.33333" />
      <path
         id="path1069"
         d="m 1355.5937,526.84279 c -3.5256,-1.42263 -1.3588,-4.70743 6.4233,-9.7372 8.671,-5.60438 20.12,-8.95214 25.7676,-7.53466 4.5941,1.15306 4.395,2.46311 -1.3391,8.8101 -3.3496,3.70757 -6.8724,5.94054 -11.5754,7.33717 -6.5627,1.94892 -15.8855,2.49281 -19.2764,1.12459 z"
         style="fill:#000000;stroke-width:1.33333" />
      <path
         id="path1067"
         d="m 1640.0564,526.05916 c -3.6296,-5.63579 -3.9452,-12.02695 -0.7918,-16.03583 3.5648,-4.5319 5.7932,-4.59913 7.7818,-0.23477 2.0786,4.56197 1.9506,7.54221 -0.5974,13.91028 -2.4537,6.13239 -3.6732,6.58267 -6.3926,2.36032 z"
         style="fill:#000000;stroke-width:1.33333" />
      <path
         id="path1065"
         d="m 1550.6144,523.77156 c -2.4457,-5.42352 -2.1779,-13.75517 0.5291,-16.4622 1.8871,-1.88703 7.8905,2.38359 8.8772,6.31484 0.8515,3.39257 -3.6863,15.43496 -5.8162,15.43496 -0.6631,0 -2.2787,-2.37943 -3.5901,-5.2876 z"
         style="fill:#000000;stroke-width:1.33333" />
      <path
         id="path1063"
         d="m 1506.0676,523.00848 c -0.272,-15.58279 4.8454,-48.7532 7.8036,-50.58144 2.6962,-1.66635 2.7134,2.58393 0.061,14.9736 -1.5366,7.177 -3.9031,19.93621 -5.2588,28.3538 -2.3045,14.30819 -2.4742,14.78052 -2.6055,7.25404 z"
         style="fill:#000000;stroke-width:1.33333" />
      <path
         id="path1061"
         d="m 1688.8717,519.72583 c -0.9471,-6.96667 -3.2608,-20.35296 -5.1415,-29.74731 -3.3631,-16.7984 -3.313,-21.2782 0.1845,-16.49514 3.1005,4.24027 7.9814,40.75765 7.0963,53.09313 -0.3384,4.71716 -0.7426,3.42284 -2.1393,-6.85068 z"
         style="fill:#000000;stroke-width:1.33333" />
      <path
         id="path1051"
         d="m 1851.4671,541.08824 c -4.5137,-2.91735 -8.2067,-5.78384 -8.2067,-6.37 0,-1.79987 4.071,-6.99241 5.4821,-6.99241 0.732,0 4.898,2.42236 9.2577,5.38301 5.9136,4.01585 7.9269,6.18076 7.9269,8.52401 0,2.77288 -2.1855,4.75964 -5.2357,4.75964 -0.5597,0 -4.7106,-2.38692 -9.2243,-5.30425 z"
         style="fill:#000000;stroke-width:1.33333" />
      <path
         id="path1049"
         d="m 1791.588,540.04116 c -3.9816,-9.48189 -4.7691,-18.15829 -1.9551,-21.5416 4.2092,-5.06093 5.9579,-1.67132 6.6601,12.90964 0.7366,15.29712 -0.7561,18.03573 -4.705,8.63196 z"
         style="fill:#000000;stroke-width:1.33333" />
      <path
         id="path1047"
         d="m 1401.2082,544.67847 c -1.1622,-2.95583 -0.1945,-25.06275 1.1956,-27.31191 0.7665,-1.24032 1.6999,-1.28323 3.7735,-0.17348 2.4701,1.32196 2.6895,2.39136 2.1208,10.33917 -0.7133,9.9698 -5.4283,21.37232 -7.0899,17.14622 z"
         style="fill:#000000;stroke-width:1.33333" />
      <path
         id="path1045"
         d="m 1332.8104,545.22129 c -3.6438,-2.30965 -1.0313,-7.32797 6.45,-12.38965 4.0333,-2.72887 8.0679,-4.99403 8.9658,-5.03369 0.8978,-0.0396 2.5654,1.73202 3.7056,3.9371 l 2.0733,4.00922 -8.3724,5.31145 c -8.8366,5.60597 -9.9693,5.97396 -12.8223,4.16557 z"
         style="fill:#000000;stroke-width:1.33333" />
      <path
         id="path1027"
         d="m 1798.8189,559.38865 c -2.1476,-1.5703 -2.1167,-2.31014 0.5147,-12.33333 2.2244,-8.473 2.6396,-12.92191 2.0219,-21.66283 -0.4275,-6.05 -0.3995,-11 0.062,-11 0.4619,0 3.216,2.69952 6.1202,5.99894 3.1028,3.525 11.0618,9.43601 19.2995,14.33333 14.846,8.82611 17.3729,11.40135 15.1897,15.48065 -3.72,6.9508 -36.681,13.95614 -43.2084,9.18324 z"
         style="fill:#000000;stroke-width:1.33333" />
      <path
         id="path1025"
         d="m 1376.5937,559.55168 c -8.9804,-1.46431 -21.8466,-7.66199 -22.4267,-10.80299 -0.5998,-3.24818 4.7099,-7.737 17.9259,-15.15446 6.7994,-3.81618 13.715,-8.97667 17.1509,-12.79818 3.1665,-3.52196 6.0065,-6.40356 6.3111,-6.40356 0.3046,0 0.5129,6.45 0.463,14.33334 -0.068,10.78354 0.5316,16.12132 2.4226,21.55288 2.4315,6.98436 2.4341,7.27754 0.079,9 -2.7084,1.98044 -10.8332,2.08158 -21.9252,0.27297 z"
         style="fill:#000000;stroke-width:1.33333" />
      <path
         id="path1023"
         d="m 1623.6167,562.85859 c -3.9243,-5.56147 -9.1402,-16.29995 -11.0994,-22.85139 l -1.7101,-5.71863 5.8933,-6.02894 c 6.894,-7.05278 13.9434,-11.73884 15.8689,-10.54883 0.7467,0.46149 1.3635,2.15367 1.3707,3.76039 0.01,1.60672 1.4272,5.95822 3.1556,9.67002 l 3.1425,6.74871 -2.9023,7.91796 c -1.5963,4.35487 -4.7329,10.82769 -6.9703,14.38404 l -4.0679,6.46609 z"
         style="fill:#000000;stroke-width:1.33333" />
      <path
         id="path1021"
         d="m 1566.2386,559.37691 c -2.3884,-3.94094 -5.5053,-10.47335 -6.9263,-14.51647 l -2.5838,-7.35113 3.266,-6.45104 c 1.7962,-3.54808 3.2659,-8.14936 3.2659,-10.22508 0,-2.27938 0.7128,-3.77403 1.8,-3.77403 2.3604,0 11.034,6.44223 16.702,12.40524 3.7392,3.93395 4.3428,5.37004 3.563,8.47721 -1.3746,5.47676 -9.2539,21.95972 -12.2021,25.52575 l -2.542,3.07488 z"
         style="fill:#000000;stroke-width:1.33333" />
      <path
         id="path1019"
         d="m 1856.347,582.72583 c -4.4777,-5.24131 -14.5239,-23.47254 -13.8714,-25.17295 0.3856,-1.00488 1.7699,-1.81907 3.0763,-1.80931 2.6758,0.02 16.3752,22.38935 16.3752,26.73858 0,3.2114 -2.9353,3.33957 -5.5801,0.24368 z"
         style="fill:#000000;stroke-width:1.33333" />
      <path
         id="path1017"
         d="m 1335.2604,582.29547 c 0,-4.27082 13.6159,-26.50059 16.2547,-26.53783 1.24,-0.0175 2.6365,0.58613 3.1033,1.3414 0.8109,1.31212 -9.6474,20.74711 -13.7903,25.62679 -2.6877,3.16574 -5.5677,2.94313 -5.5677,-0.43036 z"
         style="fill:#000000;stroke-width:1.33333" />
      <path
         id="path1007"
         d="m 1805.2636,589.06432 c -0.4515,-0.73049 -2.2559,-6.26423 -4.0099,-12.29719 -3.0791,-10.59118 -2.9079,-12.9374 0.9502,-13.02089 0.9505,-0.0205 5.6363,14.54515 7.2092,22.40981 0.6634,3.31688 0.3941,4.23644 -1.2407,4.23644 -1.1484,0 -2.4573,-0.59768 -2.9088,-1.32817 z"
         style="fill:#000000;stroke-width:1.33333" />
      <path
         id="path1005"
         d="m 1387.2604,588.22573 c 0,-1.29926 1.502,-7.28656 3.3378,-13.30512 2.918,-9.56658 3.6726,-10.85525 6,-10.24662 3.1922,0.83478 3.2791,-0.20491 -1.1453,13.70746 -2.4846,7.81248 -4.3125,11.45935 -5.8966,11.76443 -1.4748,0.28401 -2.2959,-0.40273 -2.2959,-1.92015 z"
         style="fill:#000000;stroke-width:1.33333" />
      <path
         id="path995"
         d="m 1835.4572,584.72583 c -9.0497,-19.8516 -9.0251,-19.76347 -6.115,-21.89138 2.1986,-1.60762 2.7522,-1.59541 3.9831,0.0879 3.2692,4.47091 12.8916,28.7916 12.1529,30.71657 -1.8358,4.78418 -5.1008,1.8802 -10.021,-8.91312 z"
         style="fill:#000000;stroke-width:1.33333" />
      <path
         id="path993"
         d="m 1817.2089,580.90449 c -4.0312,-12.09788 -4.6027,-15.03392 -3.1103,-15.97832 1.0057,-0.63634 2.4285,-0.97741 3.1618,-0.7579 1.7476,0.52308 11.1627,27.72756 10.3448,29.89089 -0.3465,0.91667 -1.7163,1.66667 -3.0439,1.66667 -1.8885,0 -3.4884,-3.2252 -7.3524,-14.82134 z"
         style="fill:#000000;stroke-width:1.33333" />
      <path
         id="path991"
         d="m 1369.271,594.40963 c -1.0899,-1.76356 8.9587,-30.67152 10.6561,-30.65555 0.7333,0.007 2.1558,0.53357 3.1611,1.1704 1.5035,0.95243 1.1755,3.137 -1.8487,12.31292 -2.0221,6.13528 -4.51,12.80505 -5.5287,14.82172 -1.8609,3.68388 -4.9246,4.80212 -6.4398,2.35048 z"
         style="fill:#000000;stroke-width:1.33333" />
      <path
         id="path989"
         d="m 1351.9259,594.39053 c -1.347,-2.17936 -0.01,-6.35892 6.6272,-20.64973 5.4934,-11.83576 6.1604,-12.71137 8.6628,-11.37212 1.4911,0.79803 2.7112,1.95913 2.7112,2.58024 0,0.62109 -2.8995,7.64999 -6.4434,15.61975 -6.0772,13.66689 -9.2837,17.50153 -11.5578,13.82186 z"
         style="fill:#000000;stroke-width:1.33333" />
      <path
         id="path983"
         d="m 1610.9373,607.60528 c -6.2902,-16.95476 -9.6034,-51.48245 -6.5775,-68.54568 l 0.9457,-5.33289 1.7674,5.99956 c 1.6727,5.67822 5.8481,14.07697 14.0623,28.28612 l 3.6342,6.28656 -4.8701,16.3801 c -2.6786,9.00906 -5.3001,17.82586 -5.8255,19.5929 -0.8833,2.97095 -1.1194,2.77021 -3.1365,-2.66667 z"
         style="fill:#000000;stroke-width:1.33333" />
      <path
         id="path981"
         d="m 1582.6376,609.72583 c -0.5288,-2.2 -3.0115,-10.85696 -5.5171,-19.23768 -2.6849,-8.98044 -4.1966,-16.37202 -3.6814,-18 0.4808,-1.51928 3.2653,-6.55075 6.1879,-11.18106 2.9225,-4.6303 6.9744,-12.68718 9.0042,-17.90418 l 3.6905,-9.48544 0.9953,10.57084 c 1.7578,18.66884 -2.218,51.50838 -7.8471,64.81528 l -1.8707,4.42224 z"
         style="fill:#000000;stroke-width:1.33333" />
      <path
         id="path975"
         d="m 1608.0917,655.05916 c 1.4505,-11.25864 8.1797,-37.19166 14.6334,-56.39455 7.2102,-21.45354 41.7116,-107.32487 43.9527,-109.39461 2.1254,-1.96299 -1.0025,25.69309 -4.1244,36.46596 -3.8514,13.29051 -6.3713,19.47659 -20.9064,51.3232 -14.3588,31.46012 -23.127,52.42234 -29.2801,70 -4.2556,12.15698 -4.9872,13.5259 -4.2752,8 z"
         style="fill:#000000;stroke-width:1.33333" />
      <path
         id="path973"
         d="m 1586.0316,651.36207 c -4.8627,-15.27644 -14.7172,-39.24728 -29.4499,-71.63624 -21.6712,-47.64268 -25.0422,-57.90912 -26.0497,-79.33334 -0.3448,-7.33333 -0.3203,-12.73333 0.054,-12 0.8322,1.62835 14.7573,35.52296 27.9369,68 12.6259,31.11254 23.8921,65.90287 28.1478,86.92099 1.8626,9.19936 3.1709,16.94183 2.9073,17.20548 -0.2637,0.26364 -1.8597,-3.85696 -3.5468,-9.15689 z"
         style="fill:#000000;stroke-width:1.33333" />
      <path
         id="path967"
         d="m 1663.9645,717.72583 c 5.247,-16.01307 11.8565,-63.19832 13.9947,-99.90803 1.5074,-25.87829 0.6993,-44.54548 -4.1191,-95.15697 -1.4869,-15.61908 -2.5257,-32.11909 -2.3083,-36.66667 0.3436,-7.18734 0.7368,-8.26834 3.0073,-8.26834 3.0798,0 3.9791,3.65894 9.6674,39.33334 3.4185,21.43881 3.7098,26.14805 3.5883,58 -0.1451,38.00203 -2.8916,67.63314 -9.1205,98.39655 -3.4842,17.20805 -9.3133,36.05696 -13.2783,42.93679 -1.268,2.2 -1.9121,2.8 -1.4315,1.33333 z"
         style="fill:#000000;stroke-width:1.33333" />
      <path
         id="path965"
         d="m 1634.4004,740.05917 c 3.0374,-10.85366 1.6773,-59.55142 -2.6783,-95.89878 -3.1007,-25.87544 -3.4254,-24.67981 21.3322,-78.5541 4.0741,-8.86573 8.8711,-20.4655 10.6598,-25.77728 1.7887,-5.31176 3.5592,-9.15797 3.9345,-8.54713 2.2442,3.65329 5.4333,32.812 5.5169,50.44395 0.094,19.78226 0.019,20.30482 -6.8549,48 -7.7264,31.12867 -14.969,68.19139 -18.5645,95 l -2.3693,17.66667 h -5.8147 c -4.8977,0 -5.7117,-0.36799 -5.1617,-2.33333 z"
         style="fill:#000000;stroke-width:1.33333" />
      <path
         id="path963"
         d="m 1551.2604,739.48487 c 0,-12.57973 -13.508,-83.75299 -21.7118,-114.39861 -5.4999,-20.54528 -5.539,-20.85639 -5.4501,-43.36043 0.081,-20.47167 2.808,-46.1913 5.3306,-50.27291 0.4255,-0.68852 2.4523,3.74121 4.5039,9.84385 2.0516,6.10266 8.9382,22.19572 15.3037,35.76239 12.631,26.92035 18.0296,41.37682 18.0129,48.2351 0,2.43736 -0.8773,11.03157 -1.9364,19.09824 -4.2366,32.26856 -5.6685,87.83413 -2.4776,96.14943 0.5424,1.4135 -0.7406,1.85057 -5.4325,1.85057 -5.4235,0 -6.1427,-0.34044 -6.1427,-2.90763 z"
         style="fill:#000000;stroke-width:1.33333" />
      <path
         id="path961"
         d="m 1651.3545,745.90155 c -2.1395,-3.99766 -1.4469,-11.75989 4.0607,-45.50911 4.1131,-25.20448 12.032,-61.35824 15.274,-69.73354 1.8024,-4.65644 1.8687,-4.18531 1.1824,8.40021 -2.2465,41.1924 -10.7946,94.3861 -17.2053,107.06682 l -1.5504,3.06681 z"
         style="fill:#000000;stroke-width:1.33333" />
      <path
         id="path959"
         d="m 1541.9584,745.80835 c -0.7729,-2.03308 -2.3883,-7.68334 -3.5898,-12.55617 -1.2014,-4.87283 -3.2064,-10.35968 -4.4555,-12.19301 -12.8097,-18.80107 -23.4136,-78.29829 -24.8328,-139.33334 -0.7598,-32.67627 0.5139,-47.36656 7.6066,-87.73155 2.7708,-15.76867 3.2103,-17.03464 5.786,-16.66667 4.1524,0.5932 4.1501,7.60043 -0.017,52.21138 -5.5028,58.9092 -4.9403,95.25449 2.252,145.52017 3.0351,21.21124 7.5365,42.02461 9.5161,44.00001 0.8922,0.89022 1.0844,0.44712 0.5785,-1.33334 -4.0031,-14.08755 -12.5305,-93.82124 -9.761,-91.26812 3.0843,2.84335 16.2669,66.81545 20.3445,98.72752 2.1418,16.76176 2.1528,18.35916 0.147,21.22284 l -2.169,3.09676 -1.4054,-3.69648 z"
         style="fill:#000000;stroke-width:1.33333" />
      <path
         id="path957"
         d="m 1613.432,747.68658 c -4.78,-5.68069 -5.5075,-10.71412 -5.4862,-37.96075 0.018,-22.56947 0.2718,-24.99343 4.2669,-40.66667 2.3365,-9.16666 5.7069,-20.86666 7.4897,-26 3.9617,-11.40701 4.029,-11.20938 6.806,20 3.0124,33.85442 3.9791,66.61417 2.2395,75.89078 -2.4385,13.00299 -8.7139,16.58268 -15.3159,8.73664 z"
         style="fill:#000000;stroke-width:1.33333" />
      <path
         id="path955"
         d="m 1572.1795,749.33805 c -4.1407,-4.57538 -5.343,-15.65192 -4.4444,-40.94555 0.85,-23.92756 4.4206,-68.86966 5.7733,-72.66667 0.9338,-2.62115 4.6618,8.0186 10.7451,30.66667 4.7317,17.61582 4.8367,18.54068 4.9209,43.33333 0.062,18.19627 -0.4298,26.83587 -1.7449,30.66667 -3.5065,10.21445 -10.4276,14.27429 -15.25,8.94555 z"
         style="fill:#000000;stroke-width:1.33333" />
      <path
         id="path945"
         d="m 1631.329,770.72583 c -6.049,-5.58196 -6.5406,-10.0665 -1.6406,-14.96644 5.8709,-5.87089 15.1055,-5.03737 19.5631,1.76575 2.6027,3.97221 1.6306,8.78081 -2.7253,13.48091 -4.2477,4.58332 -10.0425,4.47648 -15.1972,-0.28022 z"
         style="fill:#000000;stroke-width:1.33333" />
      <path
         id="path943"
         d="m 1552.377,772.72583 c -3.3314,-2.69564 -6.4499,-8.04512 -6.4499,-11.06425 0,-3.89635 5.4034,-8.57953 10.8088,-9.368 5.5915,-0.81563 10.6434,1.70117 12.9121,6.43261 4.214,8.78847 -9.7363,20.09638 -17.271,13.99964 z"
         style="fill:#000000;stroke-width:1.33333" />
      <path
         id="path937"
         d="m 1650.1814,783.77946 c 0.3503,-4.84377 1.4396,-8.90879 2.7858,-10.39636 1.2159,-1.34345 3.7253,-8.11595 5.5765,-15.04996 1.8513,-6.93401 4.5418,-15.60731 5.979,-19.27397 l 2.613,-6.66667 0.062,22.89095 c 0.034,12.59002 -0.2764,23.77372 -0.6904,24.85265 -0.4489,1.16964 -1.7952,1.68912 -3.3345,1.2866 -1.7883,-0.46767 -4.2694,1.01271 -8.0744,4.81767 l -5.4927,5.49277 0.5753,-7.95368 z"
         style="fill:#000000;stroke-width:1.33333" />
      <path
         id="path935"
         d="m 1542.4063,786.44291 c -2.7701,-3.0537 -5.478,-4.67196 -8,-4.78085 l -3.8126,-0.1646 -0.6666,-24.82308 c -0.3667,-13.65269 -0.2765,-24.40131 0.2004,-23.88581 1.3144,1.42072 9.1329,26.61704 9.1329,29.43218 0,1.35467 1.831,5.89419 4.0688,10.08783 3.0533,5.72168 3.9685,9.01325 3.6667,13.18768 l -0.4022,5.56291 z"
         style="fill:#000000;stroke-width:1.33333" />
      <path
         id="path933"
         d="m 1633.9947,795.69881 c -0.8434,-3.28514 -2.3672,-8.52298 -3.3863,-11.63964 -1.019,-3.11667 -1.6625,-5.66667 -1.4299,-5.66667 0.2326,0 2.6226,0.91909 5.3111,2.04241 2.6885,1.12334 5.4618,1.68792 6.1628,1.25466 1.6426,-1.0152 1.7487,-1.56139 -1.9426,10.00924 l -3.1816,9.97297 z"
         style="fill:#000000;stroke-width:1.33333" />
      <path
         id="path931"
         d="m 1558.9403,793.54142 c -1.1953,-4.29857 -2.5792,-8.87239 -3.0751,-10.16404 -0.6388,-1.66375 -0.3687,-2.14395 0.9263,-1.647 1.0053,0.3858 4.0721,-0.44272 6.8151,-1.84115 2.7429,-1.39842 4.975,-2.45728 4.9601,-2.353 -0.015,0.10427 -1.6979,5.50662 -3.74,12.00519 l -3.7129,11.81559 z"
         style="fill:#000000;stroke-width:1.33333" />
      <path
         id="path929"
         d="m 1569.4416,829.53974 c -1.7475,-12.74984 -0.9243,-22.15673 2.6675,-30.48057 8.1257,-18.83114 12.8902,-32.62799 14.9407,-43.26467 1.8181,-9.43065 2.3359,-10.68712 3.043,-7.38332 1.3532,6.32243 1.2715,24.58115 -0.1491,33.31465 -0.7686,4.72586 -3.7947,12.96638 -7.3939,20.13478 -6.2088,12.36608 -9.9118,23.61585 -9.9402,30.19856 -0.026,5.95445 -2.2488,4.18645 -3.168,-2.51943 z"
         style="fill:#000000;stroke-width:1.33333" />
      <path
         id="path927"
         d="m 1623.7234,827.78385 c -0.9537,-6.05683 -3.7926,-14.17831 -8.2643,-23.6421 -3.7463,-7.92876 -7.4237,-17.64781 -8.1718,-21.5979 -1.4838,-7.83459 -1.574,-27.77332 -0.1544,-34.15135 0.7541,-3.3884 1.1467,-2.47919 2.5677,5.94656 2.0075,11.90301 6.6482,25.75832 13.318,39.76167 4.7703,10.01522 4.9,10.69513 4.8273,25.30307 -0.089,17.85841 -2.0138,21.77136 -4.1225,8.38005 z"
         style="fill:#000000;stroke-width:1.33333" />
      <path
         id="path925"
         d="m 1610.2611,886.83672 c -1.9088,-4.6622 -0.8594,-41.95848 1.5694,-55.77755 1.2888,-7.33333 2.7978,-13.81333 3.3533,-14.39999 2.0254,-2.13919 4.6931,20.19966 4.6653,39.06666 -0.024,16.03961 -0.4738,20.4502 -2.6425,25.88908 -2.8482,7.14322 -5.3796,9.0464 -6.9455,5.2218 z"
         style="fill:#000000;stroke-width:1.33333" />
      <path
         id="path923"
         d="m 1581.424,885.37548 c -3.7303,-7.21351 -5.2553,-19.9398 -4.4062,-36.76916 0.9363,-18.55543 3.4012,-34.2147 4.9428,-31.40119 4.1908,7.64816 8.1574,56.14979 5.413,66.18737 -1.8039,6.5978 -3.3046,7.09796 -5.9496,1.98298 z"
         style="fill:#000000;stroke-width:1.33333" />
      <path
         id="path913"
         d="m 1616.018,946.39251 c -1.4758,-40.89954 -1.2537,-46.58754 2.1744,-55.66337 2.62,-6.9364 2.9882,-7.35116 3.8496,-4.33664 2.5127,8.79262 0.353,61.68191 -3.3211,81.33334 -1.5635,8.36259 -1.6583,7.61409 -2.7029,-21.33333 z"
         style="fill:#000000;stroke-width:1.33333" />
      <path
         id="path911"
         d="m 1579.2493,975.39251 c -0.01,-0.18334 -0.9227,-6.93334 -2.037,-15 -2.4774,-17.93571 -4.0782,-69.35123 -2.3015,-73.92422 1.2042,-3.09943 1.389,-2.93764 3.8076,3.33333 2.0174,5.23063 2.5239,9.89302 2.4545,22.59088 -0.1227,22.41115 -1.1281,63.33334 -1.5561,63.33334 -0.196,0 -0.3614,-0.15 -0.3675,-0.33333 z"
         style="fill:#000000;stroke-width:1.33333" />
      <path
         id="path909"
         d="m 1617.5937,1004.1401 c -2.8102,-0.7344 -2.7887,-0.1315 -0.2589,-7.24662 3.408,-9.58541 11.0244,-39.64609 13.302,-52.50097 1.3025,-7.35164 2.5918,-26.46155 3.3282,-49.33334 1.5764,-48.95956 6.0751,-77.25829 14.6761,-92.31806 4.3554,-7.62608 8.2188,-9.41581 12.0516,-5.583 2.1442,2.14426 2.567,4.49176 2.5635,14.23439 -0.01,15.1679 -2.4459,28.7637 -12.0631,67.20794 -4.3397,17.34769 -12.1298,50.34769 -17.3113,73.33333 -11.3799,50.48283 -12.0444,53.16713 -13.113,52.97073 -0.463,-0.085 -1.8917,-0.4291 -3.1751,-0.7644 z"
         style="fill:#000000;stroke-width:1.33333" />
      <path
         id="path907"
         d="m 1572.0838,990.72584 c -1.8751,-7.88333 -7.3491,-31.73333 -12.1643,-53 -4.8152,-21.26667 -11.3979,-48.86667 -14.6281,-61.33334 -11.6703,-45.04046 -14.751,-72.18891 -8.9978,-79.29379 5.561,-6.86749 13.5838,3.44855 18.8923,24.29226 4.8743,19.13887 6.9728,38.53149 8.1161,75.00153 1.3739,43.82425 4.4156,62.81314 15.8048,98.66667 2.3355,7.35223 2.3636,8.07343 0.3474,8.90623 -1.2066,0.4985 -2.5915,0.9485 -3.0775,1 -0.486,0.052 -2.4178,-6.35623 -4.2929,-14.23956 z"
         style="fill:#000000;stroke-width:1.33333" />
      <path
         id="path905"
         d="m 1631.6689,1002.7258 c 0.3912,-2.0166 3.6953,-18.36663 7.3425,-36.33329 3.6473,-17.96667 8.8672,-44.36667 11.5999,-58.66667 5.973,-31.25567 13.1172,-61.00142 15.136,-63.02024 2.3523,-2.35226 3.3574,-0.11054 3.9178,8.73808 0.7583,11.9708 -2.3134,27.33922 -14.1804,70.94883 -5.7871,21.26666 -12.4563,47.66666 -14.8204,58.66666 -5.2984,24.65283 -4.8735,23.33333 -7.5134,23.33333 -1.6761,0 -2.0255,-0.8645 -1.482,-3.6667 z"
         style="fill:#000000;stroke-width:1.33333" />
      <path
         id="path903"
         d="m 1559.4072,996.76644 c -2.2331,-12.17611 -12.1638,-52.56551 -18.1347,-73.75607 -10.298,-36.5474 -12.7702,-47.91125 -13.4773,-61.9512 -0.7133,-14.16499 0.4255,-19.57307 3.4787,-16.51983 2.3205,2.32052 9.7141,34.12631 17.168,73.85316 3.7838,20.16667 9.0496,46.86667 11.7017,59.33334 5.6288,26.45876 5.7728,27.78296 3.0803,28.33236 -1.5583,0.3179 -2.4545,-1.864 -3.8167,-9.29176 z"
         style="fill:#000000;stroke-width:1.33333" />
      <path
         id="path893"
         d="m 1641.507,1036.0592 c -3.6891,-10.0009 -6.2466,-17.6904 -6.2466,-18.7815 0,-0.3943 2.4939,3.4453 5.542,8.5323 3.0481,5.087 6.6481,10.6801 8,12.429 3.3737,4.3644 3.1005,6.8202 -0.7588,6.8202 -2.7545,0 -3.6938,-1.2933 -6.5366,-9 z"
         style="fill:#000000;stroke-width:1.33333" />
      <path
         id="path891"
         d="m 1545.9271,1043.5257 c 0,-0.8434 3,-6.2102 6.6666,-11.9262 3.6667,-5.716 6.6667,-10.9906 6.6667,-11.7212 0,-0.7306 0.6643,-1.739 1.4762,-2.2407 1.7129,-1.0587 1.3125,0.4223 -4.44,16.4216 -3.4635,9.6329 -4.3536,11 -7.1623,11 -1.764,0 -3.2072,-0.6901 -3.2072,-1.5335 z"
         style="fill:#000000;stroke-width:1.33333" />
      <path
         id="path889"
         d="m 1631.2345,1045.3923 c -0.014,-0.55 -0.8953,-7 -1.9577,-14.3333 -2.5145,-17.3552 -2.5031,-18.2895 0.2176,-17.7644 1.6722,0.3227 2.9998,3.9511 5.2799,14.431 3.9351,18.087 3.9295,18.6667 -0.1806,18.6667 -1.8333,0 -3.345,-0.45 -3.3592,-1 z"
         style="fill:#000000;stroke-width:1.33333" />
      <path
         id="path887"
         d="m 1617.8619,1044.059 c -0.036,-1.2834 -0.8105,-9.0887 -1.7214,-17.3453 -1.7104,-15.503 -1.305,-17.6547 3.3262,-17.6547 1.597,0 2.5771,1.3753 3.0882,4.3333 1.7271,9.9966 3.3211,23.3371 3.3458,28 0.025,4.6725 -0.2356,5 -3.9736,5 -2.8958,0 -4.018,-0.6441 -4.0652,-2.3333 z"
         style="fill:#000000;stroke-width:1.33333" />
      <path
         id="path885"
         d="m 1606.2198,1029.8193 c 0.21,-9.4171 0.9423,-16.9132 1.6704,-17.098 1.703,-0.4322 3.2743,9.0614 3.6972,22.3377 0.325,10.2063 0.2085,10.6852 -2.7009,11.098 l -3.0406,0.4314 z"
         style="fill:#000000;stroke-width:1.33333" />
      <path
         id="path883"
         d="m 1585.1468,1034.1768 c 2.0065,-26.7007 5.385,-29.8897 5.422,-5.1178 0.025,16.5736 0.01,16.6692 -3.1664,17.1178 l -3.1913,0.4511 z"
         style="fill:#000000;stroke-width:1.33333" />
      <path
         id="path881"
         d="m 1571.2604,1042.1126 c 0,-4.9298 2.2926,-25.293 3.3933,-30.1402 0.5161,-2.2723 1.4799,-2.9758 3.6538,-2.6666 2.8295,0.4023 2.9383,0.9223 2.6024,12.4467 -0.1928,6.6148 -0.8063,14.7148 -1.3633,18 -0.8834,5.2105 -1.477,6.027 -4.6494,6.395 -3.319,0.3851 -3.6368,0.032 -3.6368,-4.0349 z"
         style="fill:#000000;stroke-width:1.33333" />
      <path
         id="path879"
         d="m 1559.2604,1044.1902 c 0,-1.2111 1.3161,-8.4745 2.9248,-16.1408 2.611,-12.4439 4.8504,-16.993 7.2056,-14.6378 0.3751,0.3751 -0.2508,7.3698 -1.3909,15.5439 -1.14,8.174 -2.0728,15.4412 -2.0728,16.1493 0,0.7081 -1.5,1.2875 -3.3334,1.2875 -2.21,0 -3.3333,-0.7421 -3.3333,-2.2021 z"
         style="fill:#000000;stroke-width:1.33333" />
      <path
         id="path873"
         d="m 1654.5201,1054.3109 c -2.0379,-2.2518 -2.1564,-2.9524 -0.6562,-3.8796 1.2247,-0.7569 2.6009,-0.1804 4.1571,1.7414 3.9488,4.8766 0.7469,6.832 -3.5009,2.1382 z"
         style="fill:#000000;stroke-width:1.33333" />
      <path
         id="path871"
         d="m 1536.5937,1056.2693 c 0,-0.4344 1.0966,-2.1837 2.4368,-3.8875 1.6568,-2.1064 3.0267,-2.7331 4.2803,-1.9584 1.5182,0.9384 1.4047,1.6244 -0.6434,3.8875 -2.3095,2.5519 -6.0737,3.7656 -6.0737,1.9584 z"
         style="fill:#000000;stroke-width:1.33333" />
      <path
         id="path861"
         d="m 1646.707,1057.7114 c -2.1179,-3.2323 -1.8976,-5.9858 0.4788,-5.9858 0.6057,0 2.048,1.445 3.2052,3.2111 1.7442,2.662 1.7993,3.4639 0.322,4.69 -1.3716,1.1382 -2.2943,0.6971 -4.006,-1.9154 z"
         style="fill:#000000;stroke-width:1.33333" />
      <path
         id="path859"
         d="m 1546.1198,1059.8585 c -1.4864,-0.9299 -1.3942,-1.7612 0.5189,-4.681 2.2297,-3.4029 4.6916,-4.0147 5.5068,-1.3685 0.7328,2.3788 -4.1145,7.2452 -6.0257,6.0495 z"
         style="fill:#000000;stroke-width:1.33333" />
      <path
         id="path857"
         d="m 1637.974,1059.8135 c -1.9671,-3.6755 -1.7059,-6.7543 0.5728,-6.7543 2.1413,0 4.7136,3.9541 4.7136,7.2456 0,2.939 -3.6312,2.6014 -5.2864,-0.4913 z"
         style="fill:#000000;stroke-width:1.33333" />
      <path
         id="path855"
         d="m 1553.9271,1060.3048 c 0,-3.2915 2.5723,-7.2456 4.7135,-7.2456 2.2788,0 2.54,3.0788 0.5729,6.7543 -1.6552,3.0927 -5.2864,3.4303 -5.2864,0.4913 z"
         style="fill:#000000;stroke-width:1.33333" />
      <path
         id="path853"
         d="m 1626.7675,1062.0592 c -1.4429,-5.3838 -0.9453,-7.6667 1.6707,-7.6667 2.4459,0 4.0983,3.3281 4.1373,8.3333 0.027,3.493 -4.8431,2.934 -5.808,-0.6666 z"
         style="fill:#000000;stroke-width:1.33333" />
      <path
         id="path851"
         d="m 1564.5937,1061.8349 c 0,-4.9714 1.3755,-7.4424 4.1427,-7.4424 2.6297,0 3.1289,2.2735 1.6836,7.6667 -1.1321,4.2246 -5.8263,4.044 -5.8263,-0.2243 z"
         style="fill:#000000;stroke-width:1.33333" />
      <path
         id="path849"
         d="m 1608.9177,1064.8498 c -0.9115,-0.9115 -1.6573,-3.9373 -1.6573,-6.724 0,-5.0336 0.035,-5.0666 5.4064,-5.0666 h 5.4064 l -0.4064,6.3333 c -0.3618,5.6384 -0.7732,6.3762 -3.7491,6.724 -1.8385,0.2148 -4.0885,-0.3552 -5,-1.2667 z"
         style="fill:#000000;stroke-width:1.33333" />
      <path
         id="path845"
         d="m 1580.1493,1065.5036 c -0.4889,-0.4889 -0.8889,-3.4889 -0.8889,-6.6667 v -5.7777 h 5.3333 c 5.0625,0 5.3334,0.2076 5.3334,4.0876 0,5.7166 -2.2234,9.2457 -5.8247,9.2457 -1.6853,0 -3.4642,-0.4 -3.9531,-0.8889 z"
         style="fill:#000000;stroke-width:1.33333" />
    </g>
  </g>
  <g
     inkscape:label="muscleHL"
     id="layer2"
     inkscape:groupmode="layer">
    <path
       style="display:inline;fill:#8800aa;stroke-width:1.33333;fill-opacity:1;stroke:#8800aa;stroke-opacity:1"
       d="m 1634.4004,740.05917 c 3.0374,-10.85366 1.6773,-59.55142 -2.6783,-95.89878 -3.1007,-25.87544 -3.4254,-24.67981 21.3322,-78.5541 4.0741,-8.86573 8.8711,-20.4655 10.6598,-25.77728 1.7887,-5.31176 3.5592,-9.15797 3.9345,-8.54713 2.2442,3.65329 5.4333,32.812 5.5169,50.44395 0.094,19.78226 0.019,20.30482 -6.8549,48 -7.7264,31.12867 -14.969,68.19139 -18.5645,95 l -2.3693,17.66667 h -5.8147 c -4.8977,0 -5.7117,-0.36799 -5.1617,-2.33333 z"
       id="path3043"
       transform="translate(-1328.5549,-29.0824)" />
    <path
       style="display:inline;fill:#8800aa;stroke-width:1.33333;fill-opacity:1;stroke:#8800aa;stroke-opacity:1"
       d="m 1551.2604,739.48487 c 0,-12.57973 -13.508,-83.75299 -21.7118,-114.39861 -5.4999,-20.54528 -5.539,-20.85639 -5.4501,-43.36043 0.081,-20.47167 2.808,-46.1913 5.3306,-50.27291 0.4255,-0.68852 2.4523,3.74121 4.5039,9.84385 2.0516,6.10266 8.9382,22.19572 15.3037,35.76239 12.631,26.92035 18.0296,41.37682 18.0129,48.2351 0,2.43736 -0.8773,11.03157 -1.9364,19.09824 -4.2366,32.26856 -5.6685,87.83413 -2.4776,96.14943 0.5424,1.4135 -0.7406,1.85057 -5.4325,1.85057 -5.4235,0 -6.1427,-0.34044 -6.1427,-2.90763 z"
       id="path3045"
       transform="translate(-1328.5549,-29.0824)" />
  </g>
</svg>
