<?xml version="1.0" encoding="UTF-8" standalone="no"?>
<svg
   xmlns:dc="http://purl.org/dc/elements/1.1/"
   xmlns:cc="http://creativecommons.org/ns#"
   xmlns:rdf="http://www.w3.org/1999/02/22-rdf-syntax-ns#"
   xmlns:svg="http://www.w3.org/2000/svg"
   xmlns="http://www.w3.org/2000/svg"
   xmlns:sodipodi="http://sodipodi.sourceforge.net/DTD/sodipodi-0.dtd"
   xmlns:inkscape="http://www.inkscape.org/namespaces/inkscape"
   inkscape:version="1.0 (4035a4fb49, 2020-05-01)"
   sodipodi:docname="muscle_12_2.svg"
   viewBox="0 0 540 1040"
   height="1040"
   width="540"
   id="svg833"
   version="1.1">
  <metadata
     id="metadata839">
    <rdf:RDF>
      <cc:Work
         rdf:about="">
        <dc:format>image/svg+xml</dc:format>
        <dc:type
           rdf:resource="http://purl.org/dc/dcmitype/StillImage" />
        <dc:title></dc:title>
      </cc:Work>
    </rdf:RDF>
  </metadata>
  <defs
     id="defs837" />
  <sodipodi:namedview
     inkscape:current-layer="layer3"
     inkscape:cy="409.57839"
     inkscape:cx="265.42428"
     inkscape:zoom="1.4388721"
     showborder="true"
     showgrid="false"
     id="namedview835"
     inkscape:window-height="480"
     inkscape:window-width="640"
     inkscape:pageshadow="2"
     inkscape:pageopacity="0"
     guidetolerance="10"
     gridtolerance="10"
     objecttolerance="10"
     borderopacity="1"
     bordercolor="#666666"
     pagecolor="#ffffff" />
  <g
     style="display:none"
     id="g841"
     inkscape:label="fullBack"
     inkscape:groupmode="layer">
    <path
       style="fill:#000000;stroke-width:1.33333"
       d="m 228.8183,1030.3514 c -1.5322,-1.5322 -0.971,-5.3831 1.0259,-7.0404 2.8364,-2.354 7.4185,0.5137 7.4185,4.6428 0,2.7198 -0.6514,3.2865 -3.7777,3.2865 -2.0778,0 -4.1778,-0.4 -4.6667,-0.8889 z"
       id="path865" />
    <path
       style="fill:#000000;stroke-width:1.33333"
       d="m 211.4657,1023.3393 c -11.11,-11.6478 -10.0039,-16.4734 1.6597,-7.2411 8.1009,6.4123 10.804,9.5705 10.804,12.6231 0,4.7086 -4.8271,2.6241 -12.4637,-5.382 z"
       id="path863" />
    <path
       style="fill:#000000;stroke-width:1.33333"
       d="m 295.9095,21.810053 c -1.8224,-1.419704 -7.3643,-3.837374 -12.3154,-5.372598 -9.3779,-2.907909 -11.56,-4.501802 -9.2818,-6.779946 2.5945,-2.594493 15.1652,2.324877 20.8701,8.16723 5.6641,5.800586 6.096,8.167919 0.7271,3.985314 z"
       id="path1289" />
    <path
       style="fill:#000000;stroke-width:1.33333"
       d="m 241.2428,20.601689 c 3.4936,-4.906293 12.281,-10.177991 19.0199,-11.410375 4.4637,-0.816298 5,-0.617944 5,1.849288 0,2.148512 -1.2613,3.067279 -5.6666,4.127703 -3.1167,0.750223 -9.1649,3.183623 -13.4404,5.407556 l -7.7737,4.043514 z"
       id="path1287" />
    <path
       style="fill:#000000;stroke-width:1.33333"
       d="m 290.791,55.274189 c -8.2351,-2.001715 -14.8966,-5.7091 -15.6497,-8.709659 -0.4019,-1.60142 -0.539,-5.249488 -0.3047,-8.106819 0.5507,-6.714175 3.252,-7.26852 11.316,-2.322247 3.382,2.074374 9.5152,5.587062 13.6296,7.805973 6.5041,3.507783 7.4805,4.552011 7.4805,8 0,3.777465 -0.2846,3.976388 -6,4.192656 -3.3,0.124867 -8.0122,-0.262084 -10.4717,-0.859904 z"
       id="path1277" />
    <path
       style="fill:#000000;stroke-width:1.33333"
       d="m 232.3941,55.171736 c -2.4985,-2.498499 -0.4243,-7.624558 3.7918,-9.370937 2.1924,-0.908097 7.5357,-3.945304 11.8741,-6.749348 11.0147,-7.119119 14.1258,-7.730308 15.8789,-3.119388 1.9834,5.21674 0.2699,12.397111 -3.5568,14.904435 -6.5975,4.322847 -25.1298,7.193435 -27.988,4.335238 z"
       id="path1275" />
    <path
       style="fill:#000000;stroke-width:1.33333"
       d="m 301.3881,87.244083 c -2.1146,-9.85986 -1.8699,-15.560597 0.7103,-16.550717 5.2761,-2.024616 8.5675,8.115817 5.5633,17.139657 -2.5057,7.52626 -4.5749,7.33201 -6.2736,-0.58894 z"
       id="path1255" />
    <path
       style="fill:#000000;stroke-width:1.33333"
       d="m 231.8772,89.082283 c -1.7846,-5.40741 -1.0513,-15.93837 1.2715,-18.261217 1.1171,-1.11708 2.1304,-1.129294 3.8174,-0.04601 1.8437,1.183892 2.2034,3.008037 1.824,9.249537 -0.8327,13.6997 -4.0079,17.85996 -6.9129,9.0577 z"
       id="path1253" />
    <path
       style="fill:#000000;stroke-width:1.33333"
       d="m 287.6377,105.03525 c -3.9134,-8.362797 -4.058,-9.221747 -2.5203,-14.971037 1.6756,-6.26489 8.9653,-20.157574 10.5765,-20.156638 1.6412,9.55e-4 1.9305,38.165705 0.3123,41.189375 -2.4058,4.4952 -3.9527,3.37469 -8.3685,-6.0617 z"
       id="path1245" />
    <path
       style="fill:#000000;stroke-width:1.33333"
       d="m 243.9078,112.53342 c -1.8269,-3.41362 -2.132,-8.99853 -1.63,-29.833017 0.3097,-12.850332 0.3862,-13.145213 2.8345,-10.929505 3.5621,3.223645 9.7537,17.600445 9.7331,22.599995 -0.018,4.35911 -3.8678,14.295857 -7.2747,18.776457 -1.9093,2.51095 -1.9985,2.496 -3.6629,-0.61393 z"
       id="path1243" />
    <path
       style="fill:#000000;stroke-width:1.33333"
       d="m 281.5961,179.07374 c -0.9167,-0.93501 -1.6667,-4.49984 -1.6667,-7.92187 0,-3.42201 -1.5,-14.18217 -3.3333,-23.91148 -2.6414,-14.01755 -3.3334,-21.93299 -3.3334,-38.13124 0,-18.845407 0.2014,-20.549387 2.5791,-21.821847 1.4184,-0.75914 2.7684,-1.38025 3,-1.38025 0.2315,0 0.4209,5.55001 0.4209,12.33334 0,10.858697 0.4541,13.258087 3.7979,20.067687 5.5229,11.24751 18.9666,23.93174 45.3423,42.78089 l 10.4734,7.48476 h -5.8952 c -9.1371,0 -20.0677,2.41216 -30.5868,6.74986 -11.7554,4.84756 -18.5256,6.06828 -20.7982,3.75015 z"
       id="path1227" />
    <path
       style="fill:#000000;stroke-width:1.33333"
       d="m 236.1082,175.12509 c -10.1962,-3.92862 -16.6471,-5.54326 -24.5957,-6.1562 -10.426,-0.804 -10.6697,-0.89927 -7.5368,-2.94635 21.7227,-14.19405 45.6902,-35.39128 50.9223,-45.03657 4.4894,-8.27603 6.8375,-21.034707 5.2068,-28.292097 -1.4326,-6.37603 0.069,-8.18566 3.9086,-4.71078 4.0693,3.68262 3.6793,33.081327 -0.7507,56.590627 -1.8333,9.72931 -3.3333,20.86662 -3.3333,24.74959 0,7.76644 -2.2356,11.29191 -7.0952,11.18876 -1.5976,-0.0339 -9.1243,-2.45804 -16.726,-5.38698 z"
       id="path1225" />
    <path
       style="fill:#000000;stroke-width:1.33333"
       d="m 393.1577,239.99946 c -6.2911,-6.65083 -15.2278,-17.1924 -19.8593,-23.42573 -4.6316,-6.23334 -11.4476,-14.46695 -15.1468,-18.29692 l -6.7258,-6.96358 6.4339,-2.84604 c 9.1104,-4.02996 20.549,-4.83652 28.0367,-1.97694 12.6443,4.8289 21.8324,20.72721 23.0566,39.8952 0.6264,9.80896 -1.3404,24.21892 -3.4474,25.25793 -0.5002,0.24667 -6.0568,-4.99311 -12.3479,-11.64392 z"
       id="path1207" />
    <path
       style="fill:#000000;stroke-width:1.33333"
       d="m 324.6323,250.24039 c 0.5435,-1.28333 2.9504,-7.43656 5.3486,-13.67382 6.3791,-16.5911 11.1007,-26.91603 13.5425,-29.61419 2.8512,-3.15056 7.774,-3.01032 12.5017,0.35616 8.0381,5.72363 23.0732,33.21652 20.4693,37.42973 -0.3973,0.64283 -2.9369,1.17959 -5.6437,1.19278 -2.7067,0.0133 -11.2213,1.5024 -18.9213,3.30934 -7.7,1.80695 -17.2142,3.29615 -21.1426,3.30935 -6.2947,0.0212 -7.0254,-0.25304 -6.1545,-2.30935 z"
       id="path1205" />
    <path
       style="fill:#000000;stroke-width:1.33333"
       d="m 189.9294,249.72678 c -5.8667,-1.45963 -14.2667,-3.06619 -18.6667,-3.57013 -10.2385,-1.17263 -10.5622,-2.82016 -3.3759,-17.17798 6.5609,-13.10838 16.5971,-24.40494 21.682,-24.40494 6.2962,0 8.6009,3.65748 19.1142,30.33333 l 6.9627,17.66667 -7.5248,-0.0965 c -4.1387,-0.0531 -12.3248,-1.29078 -18.1915,-2.75041 z"
       id="path1203" />
    <path
       style="fill:#000000;stroke-width:1.33333"
       d="m 131.7972,246.24039 c -5.7666,-20.15412 2.3896,-47.85185 16.9812,-57.66666 7.0151,-4.71862 22.2795,-4.77968 32.2092,-0.12894 l 6.8417,3.20448 -6.5749,6.79552 c -3.6161,3.73755 -10.9962,12.65235 -16.4001,19.81068 -7.8686,10.42327 -29.384,34.31826 -30.9006,34.31826 -0.1894,0 -1.1599,-2.85 -2.1565,-6.33334 z"
       id="path1201" />
    <path
       style="fill:#000000;stroke-width:1.33333"
       d="m 278.1516,275.68484 c -1.4018,-1.40183 -1.0143,-53.15873 0.4968,-66.34931 1.6765,-14.63426 3.1511,-17.8506 9.9477,-21.69792 12.174,-6.89132 44.7835,-15.06388 60.1066,-15.06388 6.7898,0 25.293,3.71154 24.1585,4.84597 -0.2737,0.27371 -3.9326,1.13263 -8.1308,1.90872 -10.2481,1.89445 -18.1198,5.42263 -22.8719,10.25141 -2.161,2.1959 -8.9442,13.81784 -15.0737,25.82655 -13.9972,27.42253 -19.9457,36.37547 -33.3324,50.16735 -9.9573,10.2586 -13.0858,12.32604 -15.3008,10.11111 z"
       id="path1191" />
    <path
       style="fill:#000000;stroke-width:1.33333"
       d="m 248.3442,268.2404 c -13.1519,-12.61551 -20.5195,-23.36723 -33.7957,-49.31866 -6.6549,-13.0086 -13.6422,-25.48491 -15.5272,-27.72513 -4.0328,-4.79268 -11.099,-8.64103 -19.246,-10.4816 -3.2153,-0.72639 -7.6459,-1.72416 -9.8459,-2.21727 l -4,-0.89656 5.3333,-1.93609 c 13.5351,-4.91346 39.6389,-2.59902 64.5202,5.72053 15.2931,5.11352 21.1654,9.06884 22.8716,15.40512 2.1361,7.93292 3.8954,32.559 3.9199,54.87064 0.021,18.87943 -0.982,24.91235 -4.1406,24.91235 -0.771,0 -5.3113,-3.75 -10.0896,-8.33333 z"
       id="path1189" />
    <path
       style="fill:#000000;stroke-width:1.33333"
       d="m 420.741,338.90706 c -0.315,-1.65 -1.8716,-10.98913 -3.4592,-20.75364 -2.436,-14.9827 -9.5532,-46.18078 -12.6793,-55.57969 -0.6401,-1.92452 0.059,-1.56223 2.5107,1.30177 4.3691,5.10304 9.4205,18.78504 12.1482,32.90392 2.2249,11.51584 4.3809,45.12764 2.8948,45.12764 -0.4635,0 -1.1003,-1.35 -1.4152,-3 z"
       id="path1163" />
    <path
       style="fill:#000000;stroke-width:1.33333"
       d="m 405.5543,339.57373 c -1.6081,-3.91593 -1.0682,-45.42333 0.6126,-47.10416 1.8556,-1.85553 2.2679,-0.048 5.7548,25.22575 2.802,20.30997 2.3592,24.21174 -2.7477,24.21174 -1.4639,0 -3.0928,-1.05 -3.6197,-2.33333 z"
       id="path1161" />
    <path
       style="fill:#000000;stroke-width:1.33333"
       d="m 126.4957,339.7861 c -1.4669,-1.76754 -1.267,-5.65032 1.1997,-23.30166 1.6281,-11.64939 3.3516,-22.20108 3.8302,-23.44822 0.7872,-2.05153 0.966,-2.0228 1.8766,0.30166 1.206,3.07862 1.5402,43.44862 0.3846,46.46013 -1.043,2.71788 -5.031,2.71137 -7.2911,-0.012 z"
       id="path1159" />
    <path
       style="fill:#000000;stroke-width:1.33333"
       d="m 117.871,323.2404 c 0.4035,-16.51162 1.171,-23.23716 3.8171,-33.45195 3.2475,-12.53603 7.8424,-23.24969 12.2438,-28.54805 l 2.2152,-2.66667 -0.9259,2.66667 c -2.9871,8.6032 -11.4144,45.43218 -13.896,60.72824 -1.6007,9.86613 -3.1463,18.83842 -3.4347,19.93842 -0.2885,1.1 -0.2972,-7.3 -0.019,-18.66666 z"
       id="path1157" />
    <path
       style="fill:#000000;stroke-width:1.33333"
       d="m 394.8215,349.29338 c -6.0171,-6.85305 -10.312,-14.83893 -14.1383,-26.28808 -4.2882,-12.83176 -4.4374,-24.03085 -0.6721,-50.46801 2.5269,-17.74247 2.6293,-28.56338 0.3388,-35.83926 -0.9448,-3.00134 4.1553,3.12684 10.3582,12.44619 6.4087,9.62856 10.5635,22.48143 10.5287,32.56996 -0.014,4.13942 -0.9084,15.32622 -1.9867,24.85955 -2.4087,21.29353 -2.438,35.7426 -0.086,42.33333 2.2226,6.2281 0.8905,6.3466 -4.3427,0.38632 z"
       id="path1147" />
    <path
       style="fill:#000000;stroke-width:1.33333"
       d="m 139.2949,351.57373 c 3.0089,-7.13381 3.3426,-17.76139 1.2436,-39.61328 -2.8202,-29.36085 -2.7047,-38.20133 0.6248,-47.81539 2.4263,-7.00617 13.2692,-25.15549 16.0584,-26.87932 0.6173,-0.38149 0.8144,3.95675 0.4379,9.64052 -0.4584,6.92279 0.2434,16.55323 2.1261,29.1739 3.3388,22.38201 3.4958,30.57016 0.7903,41.21344 -2.5158,9.8972 -9.8521,25.00922 -15.3472,31.61346 -4.3568,5.23622 -7.64,6.7117 -5.9339,2.66667 z"
       id="path1145" />
    <path
       style="fill:#000000;stroke-width:1.33333"
       d="m 414.1717,374.19131 c -3.3941,-7.123 -6.5753,-15.57249 -7.0692,-18.77665 l -0.8981,-5.82572 3.5173,2.30462 c 1.9345,1.26753 5.3139,5.98912 7.5097,10.49239 4.1206,8.45073 6.7073,22.53397 4.4006,23.95956 -0.709,0.43818 -4.0661,-5.0312 -7.4603,-12.1542 z"
       id="path1135" />
    <path
       style="fill:#000000;stroke-width:1.33333"
       d="m 117.5685,379.29201 c 0.7569,-10.57892 5.7271,-22.31072 11.3136,-26.70503 1.8999,-1.49449 3.6898,-2.48184 3.9776,-2.1941 1.8828,1.88284 -12.395,38.18085 -15.0184,38.18085 -0.5153,0 -0.638,-4.17677 -0.2728,-9.28172 z"
       id="path1133" />
    <path
       style="fill:#000000;stroke-width:1.33333"
       d="m 341.2627,418.5737 c -2.5666,-0.98841 -5.9812,-1.84277 -7.5879,-1.89856 -1.6068,-0.0557 -3.2498,-0.63282 -3.6512,-1.28229 -1.558,-2.52104 10.232,-40.44196 14.3062,-46.01384 1.284,-1.756 1.5996,0.38189 1.5996,10.83689 0,7.16346 0.4981,19.17447 1.1069,26.69114 0.6087,7.51666 0.6087,13.62101 0,13.56522 -0.6088,-0.0558 -3.2069,-0.91014 -5.7736,-1.89856 z"
       id="path1123" />
    <path
       style="fill:#000000;stroke-width:1.33333"
       d="m 191.3371,419.36064 c -0.4123,-0.66715 -0.3859,-2.16102 0.059,-3.3197 0.4446,-1.15866 1.2128,-12.76281 1.707,-25.78698 l 0.8985,-23.68031 2.4225,5.33333 c 4.2413,9.33728 12.839,36.5965 12.839,40.70591 0,3.34937 -0.5212,3.96081 -3.3762,3.96081 -1.8569,0 -5.5301,0.9 -8.1628,2 -5.6419,2.35735 -5.4321,2.3315 -6.3867,0.78699 z"
       id="path1121" />
    <path
       style="fill:#000000;stroke-width:1.33333"
       d="m 275.0796,454.3185 c -1.0917,-4.34942 0.3176,-68.59977 2.1731,-99.07819 2.1911,-35.99026 4.0137,-50.77245 6.9867,-56.66666 3.7429,-7.42071 24.5882,-27.72559 32.6655,-31.81867 8.0407,-4.07453 21.9467,-7.83849 40.6502,-11.00292 16.5349,-2.79751 18.9469,-2.27694 17.7012,3.82048 -2.1006,10.28285 -47.2003,138.35758 -52.0525,147.81923 -1.2735,2.48337 -7.2189,9.31521 -13.212,15.18188 -5.9932,5.86667 -15.255,16.21667 -20.5819,23 -5.3269,6.78333 -10.5278,12.33333 -11.5575,12.33333 -1.0297,0 -2.2775,-1.61481 -2.7728,-3.58848 z"
       id="path1115" />
    <path
       style="fill:#000000;stroke-width:1.33333"
       d="m 257.1098,454.2404 c -1.8251,-2.01667 -5.6713,-6.66667 -8.5469,-10.33333 -2.8757,-3.66667 -11.251,-12.96667 -18.6118,-20.66667 -15.3604,-16.06833 -12.2817,-9.59088 -36.1225,-76 -18.6008,-51.81275 -29.8992,-85.57006 -29.8992,-89.33256 0,-1.51312 0.9432,-3.1131 2.0961,-3.55549 5.0505,-1.93806 46.6849,7.14125 57.0288,12.43643 5.0924,2.60684 28.0476,24.81026 31.6216,30.58591 4.4517,7.19403 6.9933,36.1332 9.2779,105.63702 1.3876,42.2159 0.938,54.89536 -1.9467,54.89536 -0.8683,0 -3.0721,-1.65 -4.8973,-3.66667 z"
       id="path1113" />
    <path
       style="fill:#000000;stroke-width:1.33333"
       d="m 428.8914,448.33295 c -17.5106,-25.21056 -24.8643,-38.64812 -35.1467,-64.22388 -6.674,-16.60059 -7.3031,-19.96172 -3.0086,-16.07532 1.8989,1.71853 4.7791,2.53998 8.9058,2.53998 h 6.0991 l 7.0179,14.66667 c 4.4219,9.24107 9.0042,21.92792 12.3873,34.29552 2.9531,10.79587 7.1691,24.26412 9.369,29.92947 2.1998,5.66534 3.7764,10.52401 3.5033,10.79702 -0.273,0.27303 -4.3802,-5.09524 -9.1271,-11.92946 z"
       id="path1111" />
    <path
       style="fill:#000000;stroke-width:1.33333"
       d="m 101.1047,459.2404 c 0.6707,-1.83333 2.4977,-6.54873 4.0599,-10.47867 1.5623,-3.92993 5.5005,-16.5936 8.7517,-28.14148 3.4271,-12.17277 8.8218,-27.24921 12.8372,-35.87598 l 6.926,-14.87984 4.4368,0.83234 c 3.2365,0.60716 5.7304,0.0692 9.218,-1.98857 l 4.7811,-2.82093 -0.8923,3.0099 c -7.2987,24.62152 -30.8301,68.32735 -48.6411,90.34323 l -2.6967,3.33333 z"
       id="path1109" />
    <path
       style="fill:#000000;stroke-width:1.33333"
       d="m 84.0412,473.70623 c -0.3334,-14.51818 8.9313,-53.61154 21.3162,-89.94579 6.1379,-18.00701 9.6186,-26.35119 7.4474,-17.85337 -0.4684,1.83333 -1.7736,12.33333 -2.9004,23.33333 -3.445,33.62995 -8.8351,54.48268 -20.0607,77.60947 -5.3803,11.08441 -5.6968,11.45837 -5.8025,6.85636 z"
       id="path1099" />
    <path
       style="fill:#000000;stroke-width:1.33333"
       d="m 463.3362,472.90707 c -4.0902,-34.23871 -11.264,-66.25431 -21.287,-95 -3.1962,-9.16667 -6.2296,-17.86667 -6.741,-19.33334 l -0.9298,-2.66667 2.2692,2.66667 c 1.248,1.46667 4.8439,8.06667 7.9907,14.66667 5.4811,11.49568 8.9677,22.28383 20.0378,62 2.7594,9.9 6.8092,22.45447 8.9996,27.89883 l 3.9824,9.89881 -3.6054,3.10119 c -1.9829,1.70564 -5.0351,3.10117 -6.7826,3.10117 -2.7954,0 -3.2682,-0.76128 -3.9339,-6.33333 z"
       id="path1095" />
    <path
       style="fill:#000000;stroke-width:1.33333"
       d="m 450.1604,468.72476 c -11.7742,-25.75784 -17.2276,-46.10696 -20.2291,-75.48436 -1.1239,-11 -2.3606,-22.1 -2.7483,-24.66667 l -0.705,-4.66666 1.94,4.20334 c 3.1915,6.91474 15.0838,44.15579 18.6694,58.46332 5.1186,20.425 10.3172,52.66667 8.4918,52.66667 -0.3366,0 -2.7751,-4.73204 -5.4188,-10.51564 z"
       id="path1093" />
    <path
       style="fill:#000000;stroke-width:1.33333"
       d="m 66.9587,477.62616 c -4.6364,-2.2377 -4.6778,-5.01258 -0.2555,-17.11759 2.264,-6.19749 7.1049,-22.06817 10.7573,-35.26817 11.06,-39.97104 17.642,-57.34451 25.0061,-66.00406 l 2.8312,-3.32928 -2.8396,7.33334 c -12.2909,31.74256 -23.3419,76.77212 -25.9766,105.84783 -0.8331,9.19356 -1.1859,10.14365 -3.7361,10.06193 -1.5489,-0.0496 -4.1529,-0.73542 -5.7868,-1.524 z"
       id="path1091" />
    <path
       style="fill:#000000;stroke-width:1.33333"
       d="m 182.1355,480.57374 c 1.7097,-13.42359 5.8119,-35.75289 7.7541,-42.20769 5.2696,-17.51312 21.4281,-21.56556 35.456,-8.89214 5.9225,5.35056 6.812,9.6078 2.2565,10.79909 -1.6467,0.43061 -7.6122,3.09443 -13.2567,5.91956 -16.1591,8.08789 -21.8345,14.7576 -31.525,37.04784 -1.2299,2.82904 -1.3335,2.4256 -0.6849,-2.66666 z"
       id="path1079" />
    <path
       style="fill:#000000;stroke-width:1.33333"
       d="m 355.9017,482.32974 c -5.367,-16.78991 -16.2374,-29.28538 -31.7523,-36.49902 -14.5529,-6.76637 -15.3178,-7.19133 -15.852,-8.80699 -0.8393,-2.53865 8.2984,-10.6414 14.8013,-13.12489 12.091,-4.61759 22.5341,1.39632 26.7623,15.41176 2.1646,7.17511 8.8949,46.86768 8.0856,47.6858 -0.2299,0.23247 -1.1501,-1.86753 -2.0449,-4.66666 z"
       id="path1077" />
    <path
       style="fill:#000000;stroke-width:1.33333"
       d="m 490.9294,502.57563 c -4.5833,-5.38837 -8.3333,-10.70772 -8.3333,-11.82077 0,-4.93194 3.4887,-3.47828 11.5315,4.80493 6.7171,6.91788 8.4685,9.57917 8.4685,12.86781 0,2.48164 -0.6691,4.10578 -1.6667,4.0456 -0.9166,-0.0553 -5.4166,-4.5092 -10,-9.89757 z"
       id="path1059" />
    <path
       style="fill:#000000;stroke-width:1.33333"
       d="m 37.2627,507.723 c 0,-4.23502 1.0554,-5.83037 8.3146,-12.56888 6.1909,-5.7469 8.745,-7.3609 10,-6.31934 0.927,0.76934 1.6854,1.82061 1.6854,2.33613 0,1.53121 -17.4234,21.40283 -18.766,21.40283 -0.6787,0 -1.234,-2.18283 -1.234,-4.85074 z"
       id="path1057" />
    <path
       style="fill:#000000;stroke-width:1.33333"
       d="m 488.3406,517.61814 c -1.1353,-1.46898 -4.3329,-8.91422 -6.7476,-15.71107 -0.3908,-1.1 2.0931,1.54556 5.5199,5.87903 3.4268,4.33346 6.0249,8.49596 5.7735,9.25 -0.7183,2.15493 -3.095,2.45925 -4.5458,0.58204 z"
       id="path1055" />
    <path
       style="fill:#000000;stroke-width:1.33333"
       d="m 47.0718,517.22352 c -0.4587,-1.19537 1.5251,-4.99694 4.8706,-9.33333 6.2034,-8.04076 7.1725,-8.81313 5.4155,-4.31645 -5.8167,14.88706 -8.4635,18.39938 -10.2861,13.64978 z"
       id="path1053" />
    <path
       style="fill:#000000;stroke-width:1.33333"
       d="m 523.9294,519.51222 c -1.1,-0.38564 -5.1578,-3.02931 -9.0175,-5.8748 -5.8063,-4.28076 -6.7969,-5.58576 -5.7394,-7.56166 3.2734,-6.1164 4.9,-6.06081 13.3703,0.45692 8.2891,6.37835 10.0623,10.24731 5.72,12.48064 -1.2834,0.66004 -3.2334,0.88455 -4.3334,0.4989 z"
       id="path1043" />
    <path
       style="fill:#000000;stroke-width:1.33333"
       d="m 273.9376,500.74279 c -1.1063,-22.84359 -0.1402,-26.56547 8.3312,-32.09591 2.7467,-1.79311 6.3439,-4.44769 7.9939,-5.89909 2.4531,-2.15779 3,-2.26374 3,-0.58112 0,4.94737 -4.3115,26.48448 -6.8879,34.40707 -2.658,8.17342 -9.8988,24 -10.9803,24 -0.2731,0 -0.9287,-8.92392 -1.4569,-19.83095 z"
       id="path1041" />
    <path
       style="fill:#000000;stroke-width:1.33333"
       d="m 259.089,511.90707 c -5.9792,-13.37584 -8.2311,-20.57681 -10.4956,-33.56247 -3.3005,-18.92619 -3.3697,-18.79189 6.0096,-11.65887 4.4039,3.34914 8.7057,7.39405 9.5596,8.98867 1.6314,3.04658 1.6186,28.41259 -0.02,39.566 l -0.8815,6 z"
       id="path1039" />
    <path
       style="fill:#000000;stroke-width:1.33333"
       d="m 10.6492,518.63779 c -2.7217,-3.27952 -1.0189,-6.35285 6.9476,-12.53895 7.4673,-5.79845 7.7238,-5.88609 10.3284,-3.52896 4.3801,3.96399 3.2008,6.62446 -5.5375,12.49207 -9.2089,6.1836 -9.5005,6.27244 -11.7385,3.57584 z"
       id="path1037" />
    <path
       style="fill:#000000;stroke-width:1.33333"
       d="m 477.5341,520.16115 c -0.6913,-0.87308 -1.6762,-3.98741 -2.1885,-6.92075 -0.5124,-2.93333 -1.2161,-6.83333 -1.5638,-8.66666 -0.3478,-1.83334 1.4641,0.56666 4.0263,5.33333 2.5622,4.76667 4.6877,9.05248 4.7233,9.52401 0.1289,1.70815 -3.7716,2.27798 -4.9973,0.73007 z"
       id="path1035" />
    <path
       style="fill:#000000;stroke-width:1.33333"
       d="m 463.3687,518.90707 c -1.2226,-5.99853 -2.2601,-17.5986 -1.5065,-16.845 1.6494,1.64939 7.3017,17.59299 6.6251,18.68768 -1.3879,2.24568 -4.5147,1.12005 -5.1186,-1.84268 z"
       id="path1033" />
    <path
       style="fill:#000000;stroke-width:1.33333"
       d="m 71.2348,520.31495 c -0.3829,-0.99764 0.7915,-5.39753 2.6096,-9.77755 l 3.3056,-7.96366 -0.077,6 c -0.042,3.3 -0.4833,7.45552 -0.9804,9.23448 -1.0415,3.72682 -3.8367,5.16906 -4.8583,2.50673 z"
       id="path1031" />
    <path
       style="fill:#000000;stroke-width:1.33333"
       d="m 57.7982,520.04602 c -0.6172,-1.60844 6.6621,-18.13895 7.9876,-18.13895 0.6333,0 -2.9858,17.25807 -3.9444,18.80913 -1.1046,1.78724 -3.2357,1.43399 -4.0432,-0.67018 z"
       id="path1029" />
    <path
       style="fill:#000000;stroke-width:1.33333"
       d="m 518.9422,557.57374 c -3.3456,-4.24432 -13.8036,-26.38712 -13.0434,-27.61704 0.4701,-0.76063 1.8932,-1.38296 3.1625,-1.38296 2.8892,0 15.6913,25.26497 14.4462,28.50966 -0.9903,2.58063 -2.7672,2.77147 -4.5653,0.49034 z"
       id="path1015" />
    <path
       style="fill:#000000;stroke-width:1.33333"
       d="m 16.0236,557.35387 c -1.2425,-1.49705 -0.1726,-4.66271 5.1822,-15.33333 6.5748,-13.10188 8.0854,-14.65458 11.904,-12.2362 1.4751,0.93421 0.3195,4.01768 -5.7392,15.3129 -4.1725,7.77875 -8.0802,14.14316 -8.6838,14.14316 -0.6037,0 -1.8021,-0.84894 -2.6632,-1.88653 z"
       id="path1013" />
    <path
       style="fill:#000000;stroke-width:1.33333"
       d="m 467.3581,560.72806 c -0.7376,-1.19356 -6.0688,-22.64388 -6.086,-24.48766 -0.01,-0.55 1.1792,-1 2.6319,-1 1.791,0 2.9089,1.1804 3.4726,3.66667 0.4572,2.01667 1.7043,7.19097 2.7713,11.49845 1.0671,4.30748 1.6233,8.65748 1.236,9.66667 -0.7967,2.07605 -2.9329,2.42409 -4.0258,0.65587 z"
       id="path1011" />
    <path
       style="fill:#000000;stroke-width:1.33333"
       d="m 68.4071,559.89544 c -0.4245,-1.1064 0.3482,-6.9564 1.7173,-13 2.1814,-9.6294 2.8746,-11.04308 5.6049,-11.43074 2.494,-0.35411 2.9653,0.0449 2.3621,2 -0.4145,1.3433 -1.6749,6.45465 -2.8009,11.35856 -2.5197,10.97462 -3.3063,13.08381 -4.8789,13.08381 -0.6779,0 -1.5799,-0.90523 -2.0045,-2.01163 z"
       id="path1009" />
    <path
       style="fill:#000000;stroke-width:1.33333"
       d="m 482.7506,564.2404 c -0.6121,-1.65 -2.4942,-8.27304 -4.1825,-14.71785 -3.1111,-11.87604 -2.6615,-15.59951 1.6822,-13.93267 1.6787,0.64418 9.0125,24.70067 9.0125,29.56296 0,3.26475 -5.2348,2.53131 -6.5122,-0.91244 z"
       id="path1003" />
    <path
       style="fill:#000000;stroke-width:1.33333"
       d="m 50.5961,563.89784 c 0,-1.83841 1.6089,-9.03841 3.5753,-16 2.7787,-9.8371 4.0981,-12.65744 5.9213,-12.65744 3.7362,0 4.1591,2.19966 1.9262,10.01752 -1.1492,4.0237 -3.0321,10.61582 -4.1841,14.64915 -1.6083,5.63064 -2.6918,7.33333 -4.6667,7.33333 -1.8565,0 -2.572,-0.92988 -2.572,-3.34256 z"
       id="path1001" />
    <path
       style="fill:#000000;stroke-width:1.33333"
       d="m 501.6139,566.90707 c -0.7198,-0.91667 -3.7799,-8.23955 -6.8001,-16.27307 -5.5661,-14.80502 -5.5903,-16.66354 -0.2177,-16.69946 2.3843,-0.016 13.6796,29.51874 12.4824,32.63872 -0.9337,2.43312 -3.6842,2.60113 -5.4646,0.33381 z"
       id="path999" />
    <path
       style="fill:#000000;stroke-width:1.33333"
       d="m 32.4187,566.59231 c -0.4598,-1.19819 1.7077,-9.04253 4.8166,-17.43188 4.5201,-12.19741 6.1659,-15.25336 8.2152,-15.25336 1.4094,0 2.878,0.82195 3.2635,1.82653 1.1935,3.11012 -10.4738,32.0771 -13.1256,32.58779 -1.2836,0.24719 -2.7099,-0.53091 -3.1697,-1.72908 z"
       id="path997" />
    <path
       style="fill:#000000;stroke-width:1.33333"
       d="m 344.8082,564.41394 c -4.9904,-6.94327 -14.4334,-13.85618 -31.5455,-23.09348 -24.8402,-13.40904 -26.0053,-15.81194 -20.8283,-42.95691 1.936,-10.15107 4.432,-25.03861 5.5466,-33.08344 2.3604,-17.0368 4.4408,-21.34104 9.7228,-20.11592 8.4789,1.96662 22.9122,10.38594 30.0626,17.53636 20.5295,20.52952 25.492,49.07447 15.5085,89.20652 -2.3715,9.53333 -4.3945,17.43316 -4.4954,17.55519 -0.1009,0.122 -1.888,-2.14974 -3.9713,-5.04832 z"
       id="path987" />
    <path
       style="fill:#000000;stroke-width:1.33333"
       d="m 189.2627,566.59932 c 0,-1.74828 -1.8,-10.1598 -4,-18.69225 -6.8651,-26.62573 -5.3364,-50.69017 4.4045,-69.33333 8.0689,-15.44321 30.1611,-32.60306 42.6807,-33.15182 5.6495,-0.24764 6.9029,2.79053 9.5326,23.10619 1.1833,9.14157 3.3284,22.01348 4.7669,28.60424 1.4384,6.59076 2.6153,14.89109 2.6153,18.44517 0,11.97922 -3.9693,16.01143 -27.9997,28.44336 -9.4528,4.89034 -15.1189,8.989 -22.3333,16.155 -8.3898,8.33355 -9.667,9.18219 -9.667,6.42344 z"
       id="path985" />
    <path
       style="fill:#000000;stroke-width:1.33333"
       d="m 359.5556,606.28098 c -0.4414,-3.72723 -2.1144,-11.09565 -3.7178,-16.37431 -2.1097,-6.94577 -2.6993,-11.41968 -2.1341,-16.19245 0.9369,-7.9106 6.4918,-27.80715 7.7634,-27.80715 2.9015,0 2.9375,56.21224 0.041,64.04238 -0.9746,2.63468 -1.2721,2.07572 -1.9524,-3.66847 z"
       id="path979" />
    <path
       style="fill:#000000;stroke-width:1.33333"
       d="m 176.4775,598.57374 c -1.4763,-17.82397 -1.4521,-35.92244 0.062,-46.66667 l 1.1277,-8 3.7405,11.33333 c 4.5637,13.82746 4.9338,25.39906 1.2481,39.02811 -1.4335,5.30122 -3.1369,11.73856 -3.7852,14.30523 -1.006,3.98283 -1.3568,2.51744 -2.3935,-10 z"
       id="path977" />
    <path
       style="fill:#000000;stroke-width:1.33333"
       d="m 290.2618,642.41682 c -3.5877,-5.69761 -7.6315,-50.88329 -7.6525,-85.50975 l -0.013,-21.66667 h 3.7033 c 2.0368,0 4.9629,0.88227 6.5025,1.96059 2.6615,1.86425 2.8304,3.38748 3.437,31 0.5071,23.08442 0.1251,33.41416 -1.8632,50.37275 -3.1173,26.58885 -2.9598,25.67593 -4.1139,23.84308 z"
       id="path971" />
    <path
       style="fill:#000000;stroke-width:1.33333"
       d="m 247.97,643.16399 c -0.022,-0.40868 -1.2048,-10.30868 -2.6278,-22 -2.0163,-16.56609 -2.5083,-28.013 -2.2298,-51.8728 l 0.3574,-30.61588 5.117,-2.25764 c 8.0897,-3.56916 8.6769,-2.71364 8.6691,12.63205 -0.017,34.51751 -4.4852,86.69538 -7.9289,92.59995 -0.7241,1.24158 -1.3348,1.92302 -1.357,1.51432 z"
       id="path969" />
    <path
       style="fill:#000000;stroke-width:1.33333"
       d="m 240.7761,722.90708 c -7.447,-21.0257 -8.3288,-29.77586 -5.6196,-55.7691 1.1788,-11.31033 2.6009,-26.26424 3.1602,-33.23091 l 1.0169,-12.66666 2.2713,12.04606 c 3.7931,20.11602 4.789,30.72074 5.695,60.6389 0.8303,27.42091 0.2347,38.64837 -2.0503,38.64837 -0.5773,0 -2.5904,-4.35 -4.4735,-9.66666 z"
       id="path953" />
    <path
       style="fill:#000000;stroke-width:1.33333"
       d="m 292.5473,728.04629 c -0.51,-3.40037 -0.6311,-20.12276 -0.2692,-37.16085 0.5045,-23.75257 1.3578,-35.02142 3.6581,-48.3117 3.382,-19.5402 5.3265,-23.86128 5.3265,-11.83664 0,4.41652 0.9623,17.58652 2.1384,29.26667 2.8868,28.66924 2.0559,42.97345 -3.4407,59.23664 -2.3545,6.96667 -4.7772,13.18905 -5.3835,13.82752 -0.6064,0.63847 -1.5197,-1.62128 -2.0296,-5.02164 z"
       id="path951" />
    <path
       style="fill:#000000;stroke-width:1.33333"
       d="m 343.5208,732.97217 c -0.4729,-6.83479 -2.505,-17.57436 -4.8682,-25.72895 -4.6627,-16.08898 -4.8438,-19.75004 -1.9174,-38.76796 1.6489,-10.71629 1.9568,-19.24784 1.3437,-37.23485 -0.8185,-24.01579 -3.7793,-53.86427 -6.2547,-63.05757 -0.7719,-2.86638 -1.1323,-5.48268 -0.801,-5.81398 0.3313,-0.33131 4.2262,2.75269 8.6554,6.85334 7.8411,7.25949 8.1233,7.76142 10.7222,19.0703 8.5404,37.16253 9.1832,56.29229 2.81,83.61457 -3.8115,16.33978 -4.4583,21.86251 -5.1886,44.30409 -0.9283,28.52649 -3.1221,36.6951 -4.5014,16.76101 z"
       id="path949" />
    <path
       style="fill:#000000;stroke-width:1.33333"
       d="m 192.5632,739.63592 c -0.5609,-2.7842 -1.1305,-14.36218 -1.2659,-25.72884 -0.219,-18.39288 -0.741,-22.72042 -4.7445,-39.33334 -6.7222,-27.89453 -6.2295,-45.98892 2.36,-86.66667 2.1652,-10.25394 2.563,-10.9633 10.2808,-18.33333 8.1489,-7.78174 11.0354,-9.44128 9.5107,-5.46802 -0.464,1.20927 -1.7067,7.35927 -2.7616,13.66667 -5.1115,30.56275 -6.181,72.8315 -2.4401,96.43515 l 2.2665,14.30048 -4.4879,16.36619 c -2.4684,9.00141 -4.8851,21.31895 -5.3704,27.37232 -0.4854,6.05336 -1.2077,11.33133 -1.6052,11.72883 -0.3975,0.3975 -1.1816,-1.55526 -1.7424,-4.33944 z"
       id="path947" />
    <path
       style="fill:#000000;stroke-width:1.33333"
       d="m 298.1076,752.77065 c -1.198,-1.32379 -2.1782,-3.43308 -2.1782,-4.68733 0,-1.25426 3.45,-12.307 7.6667,-24.56168 l 7.6666,-22.28123 -0.1098,-30 c -0.09,-24.50788 -0.6587,-33.29527 -3.1081,-48 -2.9718,-17.84118 -5.5151,-70.42927 -3.6421,-75.31015 0.6857,-1.78702 1.9647,-1.50395 8.804,1.94853 4.401,2.2216 8.869,5.3868 9.9289,7.03377 4.101,6.37224 9.629,71.97726 8.1168,96.32785 -1.2204,19.65098 -6.104,38.26325 -18.4836,70.44412 -5.595,14.54425 -10.1727,27.25885 -10.1727,28.25464 0,2.99073 -2.1705,3.39281 -4.4885,0.83148 z"
       id="path941" />
    <path
       style="fill:#000000;stroke-width:1.33333"
       d="m 234.3851,744.87134 c -1.9494,-5.66368 -6.9596,-19.24853 -11.1337,-30.18856 -4.1742,-10.94001 -9.1504,-25.64001 -11.0583,-32.66666 -3.2886,-12.11158 -3.4679,-14.43921 -3.4497,-44.77571 0.018,-29.75654 0.8756,-42.37462 4.6977,-69.10531 1.681,-11.75663 3.0121,-13.59058 13.7469,-18.93994 l 6.7279,-3.35266 1.1616,4.36561 c 2.0158,7.57617 -0.1144,48.13892 -3.9055,74.36563 -2.6784,18.52916 -3.6079,30.47241 -3.7358,48 -0.1899,26.0166 0.667,30.77855 10.0206,55.68471 2.8266,7.52659 5.1393,15.51604 5.1393,17.75432 0,4.20509 -2.0401,9.25465 -3.7136,9.19191 -0.5242,-0.0196 -2.5481,-4.66966 -4.4974,-10.33334 z"
       id="path939" />
    <path
       style="fill:#000000;stroke-width:1.33333"
       d="m 324.191,864.17693 c -5.0435,-5.20356 -5.1407,-6.85106 -1.3923,-23.60318 2.5848,-11.55172 2.8582,-17.12647 3.1061,-63.33334 0.2864,-53.38471 0.9973,-60.6428 6.213,-63.43417 4.3593,-2.333 5.4238,0.0605 6.6826,15.02502 0.6359,7.55836 3.018,23.64248 5.2938,35.74248 4.8744,25.91679 6.5604,55.65427 3.8463,67.84093 -1.9796,8.88873 -10.8447,29.99354 -14.1181,33.6107 -3.1846,3.51887 -4.7137,3.22542 -9.6314,-1.84844 z"
       id="path921" />
    <path
       style="fill:#000000;stroke-width:1.33333"
       d="m 204.6542,865.51617 c -1.1019,-1.68166 -4.4452,-8.90146 -7.4297,-16.04401 -9.6278,-23.04221 -10.0846,-42.38288 -1.9892,-84.23175 1.8442,-9.53333 4.0116,-23.93333 4.8164,-32 0.8049,-8.06667 1.7281,-16.05653 2.0515,-17.75525 0.7663,-4.0244 4.0315,-3.37838 7.6849,1.52046 2.7288,3.65912 2.8132,5.16203 2.992,53.33334 0.1673,45.04228 0.4515,50.96813 3.1133,64.90145 4.9061,25.68184 4.9756,23.27366 -0.825,28.60098 -6.0278,5.5359 -7.7074,5.80601 -10.4142,1.67478 z"
       id="path919" />
    <path
       style="fill:#000000;stroke-width:1.33333"
       d="m 289.8438,871.90775 c -8.6375,-20.67226 -3.7972,-58.85618 14.4507,-114.00067 9.9227,-29.98559 11.6364,-33.86004 16.0127,-36.2022 2.6212,-1.40284 2.6515,-1.14523 1.7698,15.05413 -0.4934,9.06477 -1.4663,32.35284 -2.1619,51.75127 -1.5669,43.69748 -3.345,61.60524 -6.8531,69.01848 -2.8459,6.01404 -16.0569,19.04499 -19.3081,19.04499 -1.0783,0 -2.8379,-2.09971 -3.9101,-4.666 z"
       id="path917" />
    <path
       style="fill:#000000;stroke-width:1.33333"
       d="m 234.8717,868.0894 c -4.5318,-4.71937 -8.8271,-10.12592 -9.5452,-12.01456 -2.5586,-6.72975 -4.1328,-26.18076 -6.0563,-74.83443 -1.0728,-27.13333 -2.3,-51.88333 -2.7273,-55 -0.9058,-6.60713 0.2295,-7.05691 5.0483,-2 2.5182,2.64263 6.2719,12.04517 13.4404,33.66667 14.4942,43.71667 20.8274,78.40692 18.0525,98.88299 -1.4724,10.86538 -4.7334,18.91706 -7.8971,19.4985 -1.1417,0.20982 -5.7836,-3.47981 -10.3153,-8.19917 z"
       id="path915" />
    <path
       style="fill:#000000;stroke-width:1.33333"
       d="m 318.0585,1010.9071 c 0.5666,-3.1167 0.9205,-12.99429 0.7863,-21.95029 -0.2437,-16.26938 1.9642,-38.26311 5.861,-58.38306 3.0771,-15.88784 3.5535,-16.96112 4.7353,-10.66667 2.0905,11.13503 1.1774,29.6648 -2.4423,49.56071 -2.0275,11.14442 -3.6457,25.00902 -3.7082,31.77261 -0.1164,12.5978 -0.8699,15.3333 -4.2237,15.3333 -1.671,0 -1.8528,-1.0217 -1.0084,-5.6666 z"
       id="path901" />
    <path
       style="fill:#000000;stroke-width:1.33333"
       d="m 304.8183,1017.0182 c -0.4889,-0.4889 -0.894,-9.0389 -0.9003,-18.99999 -0.014,-21.6555 -1.7013,-42.39769 -5.4333,-66.77779 -1.5155,-9.9 -2.8143,-23.46986 -2.8864,-30.15524 -0.1184,-10.98801 0.2218,-12.75722 3.5428,-18.42409 4.7103,-8.03757 14.3252,-18.08734 17.3046,-18.08734 4.0031,0 12.817,8.08202 12.817,11.75268 0,1.8185 -2.1105,13.12028 -4.6901,25.11505 -7.0951,32.99142 -9.649,49.53754 -11.9201,77.22893 -2.9982,36.55469 -3.3579,39.23669 -5.2635,39.23669 -0.925,0 -2.0818,-0.4 -2.5707,-0.8889 z"
       id="path899" />
    <path
       style="fill:#000000;stroke-width:1.33333"
       d="m 230.0322,1016.3389 c -0.3057,-0.9708 -1.5527,-14.9652 -2.7712,-31.09849 -2.4412,-32.32259 -4.6998,-47.37006 -12.6401,-84.21171 -3.7891,-17.58075 -4.9523,-25.38862 -4.0371,-27.09859 2.0535,-3.83703 9.3037,-9.35636 12.2905,-9.35636 3.0639,0 9.5775,6.40292 15.9799,15.70853 6.1215,8.89732 6.4886,20.22707 1.6948,52.31303 -2.7748,18.57264 -3.8797,32.03316 -4.4842,54.6295 -0.7261,27.14639 -1.0233,30.02669 -3.1394,30.43189 -1.2856,0.2461 -2.5875,-0.3469 -2.8932,-1.3178 z"
       id="path897" />
    <path
       style="fill:#000000;stroke-width:1.33333"
       d="m 218.6589,1016.6126 c -1.4228,-0.8794 -1.9807,-4.5479 -2.1711,-14.2778 -0.1513,-7.73119 -1.473,-18.55539 -3.227,-26.42769 -3.199,-14.35808 -5.131,-47.114 -3.3174,-56.24356 l 1.0111,-5.0898 1.1542,4 c 4.6363,16.06741 9.1805,55.50346 8.2198,71.33336 -0.3783,6.2333 -0.069,14.63329 0.6871,18.66659 1.4518,7.7432 0.7942,9.9862 -2.3567,8.0389 z"
       id="path895" />
    <path
       style="fill:#000000;stroke-width:1.33333"
       d="m 291.9174,1015.0725 c -4.5353,-5.3785 -5.4724,-7.2956 -4.3992,-9 2.7219,-4.3226 5.3557,-3.134 8.9246,4.0279 3.5009,7.0253 4.4574,11.8065 2.362,11.8065 -0.6186,0 -3.7179,-3.0755 -6.8874,-6.8344 z"
       id="path877" />
    <path
       style="fill:#000000;stroke-width:1.33333"
       d="m 239.9294,1018.5204 c 0,-3.4975 4.3517,-13.1828 6.5273,-14.5274 1.8209,-1.1254 5.1477,0.4771 6.0904,2.9337 0.4578,1.1931 0.01,2.6026 -1.009,3.1727 -1.0081,0.5641 -3.5141,3.4516 -5.5688,6.4166 -4.3102,6.2196 -6.0399,6.7936 -6.0399,2.0044 z"
       id="path875" />
    <path
       style="fill:#000000;stroke-width:1.33333"
       d="m 315.9294,1028.0223 c 0,-2.3066 2.2988,-5.1388 8.1166,-10 7.1113,-5.9421 11.8834,-8.3713 11.8834,-6.0492 0,4.2671 -13.9903,19.2671 -17.9702,19.2671 -1.2568,0 -2.0298,-1.2255 -2.0298,-3.2179 z"
       id="path869" />
    <path
       style="fill:#000000;stroke-width:1.33333"
       d="m 301.8932,1029.8483 c -1.1552,-1.8692 2.9381,-7.9414 5.3534,-7.9414 2.3986,0 5.1366,4.8942 4.1607,7.4375 -0.84,2.189 -8.2307,2.5804 -9.5141,0.5038 z"
       id="path867" />
  </g>
  <g
     inkscape:label="muscHL"
     id="layer3"
     inkscape:groupmode="layer">
    <path
       id="path3204"
       d="m 275.0796,454.3185 c -1.0917,-4.34942 0.3176,-68.59977 2.1731,-99.07819 2.1911,-35.99026 4.0137,-50.77245 6.9867,-56.66666 3.7429,-7.42071 24.5882,-27.72559 32.6655,-31.81867 8.0407,-4.07453 21.9467,-7.83849 40.6502,-11.00292 16.5349,-2.79751 18.9469,-2.27694 17.7012,3.82048 -2.1006,10.28285 -47.2003,138.35758 -52.0525,147.81923 -1.2735,2.48337 -7.2189,9.31521 -13.212,15.18188 -5.9932,5.86667 -15.255,16.21667 -20.5819,23 -5.3269,6.78333 -10.5278,12.33333 -11.5575,12.33333 -1.0297,0 -2.2775,-1.61481 -2.7728,-3.58848 z"
       style="display:inline;fill:#8800aa;stroke-width:1.33333;fill-opacity:1;stroke:#8800aa;stroke-opacity:1" />
    <path
       id="path3206"
       d="m 257.1098,454.2404 c -1.8251,-2.01667 -5.6713,-6.66667 -8.5469,-10.33333 -2.8757,-3.66667 -11.251,-12.96667 -18.6118,-20.66667 -15.3604,-16.06833 -12.2817,-9.59088 -36.1225,-76 -18.6008,-51.81275 -29.8992,-85.57006 -29.8992,-89.33256 0,-1.51312 0.9432,-3.1131 2.0961,-3.55549 5.0505,-1.93806 46.6849,7.14125 57.0288,12.43643 5.0924,2.60684 28.0476,24.81026 31.6216,30.58591 4.4517,7.19403 6.9933,36.1332 9.2779,105.63702 1.3876,42.2159 0.938,54.89536 -1.9467,54.89536 -0.8683,0 -3.0721,-1.65 -4.8973,-3.66667 z"
       style="display:inline;fill:#8800aa;stroke-width:1.33333;fill-opacity:1;stroke:#8800aa;stroke-opacity:1" />
  </g>
</svg>
